<?xml version="1.0" encoding="utf-8"?>
<!-- Generator: Adobe Illustrator 16.0.0, SVG Export Plug-In . SVG Version: 6.00 Build 0)  -->
<!DOCTYPE svg PUBLIC "-//W3C//DTD SVG 1.1//EN" "http://www.w3.org/Graphics/SVG/1.1/DTD/svg11.dtd">
<svg version="1.1" id="Layer_1" xmlns="http://www.w3.org/2000/svg" xmlns:xlink="http://www.w3.org/1999/xlink" x="0px" y="0px"
	 width="100px" height="36.508px" viewBox="22.533 99.017 100 36.508" enable-background="new 22.533 99.017 100 36.508"
	 xml:space="preserve">
<g>
	<polygon fill="#010101" points="26.191,135.214 26.191,124.931 22.533,124.931 22.533,124 30.918,124 30.918,124.931 
		27.26,124.931 27.26,135.214 	"/>
	<polygon fill="#010101" points="40.373,135.214 40.373,129.9 33.299,129.9 33.299,135.214 32.333,135.214 32.333,124 33.299,124 
		33.299,128.934 40.373,128.934 40.373,124 41.304,124 41.304,135.214 	"/>
	<rect x="43.651" y="124" fill="#010101" width="0.932" height="11.214"/>
	<polygon fill="#010101" points="54.865,135.214 47.792,125.518 47.792,135.214 46.86,135.214 46.86,124 47.792,124 54.762,133.42 
		54.762,124 55.832,124 55.832,135.214 	"/>
	<polygon fill="#010101" points="64.803,135.214 60.179,129.9 59.007,131.315 59.007,135.214 58.075,135.214 58.075,124 59.007,124 
		59.007,130.142 64.424,124 65.632,124 60.904,129.314 66.08,135.214 	"/>
	<path fill="#010101" d="M79.296,135.214l-1.07-2.726h-5.9l-1.07,2.726h-1.07L74.776,124h1.173l4.589,11.214H79.296z M75.19,125.069
		l-2.588,6.487h5.314L75.19,125.069z"/>
	<polygon fill="#010101" points="89.579,135.214 89.579,129.9 82.505,129.9 82.505,135.214 81.539,135.214 81.539,124 82.505,124 
		82.505,128.934 89.579,128.934 89.579,124 90.511,124 90.511,135.214 	"/>
	<polygon fill="#010101" points="92.754,135.214 92.754,124 99.862,124 99.862,124.931 93.72,124.931 93.72,129.072 99.724,129.072 
		99.724,129.9 93.72,129.9 93.72,134.248 99.862,134.248 99.862,135.214 	"/>
	<path fill="#010101" d="M109.869,135.214l-1.069-2.726h-5.901l-1.07,2.726h-1.035L105.383,124h1.173l4.589,11.214H109.869z
		 M105.763,125.069l-2.588,6.487h5.313L105.763,125.069z"/>
	<path fill="#34A6DE" d="M51.588,105.642c1.518,0,2.967,0.586,3.899,1.518c0.345-1.07,0.932-2.001,1.656-2.968
		c-1.518-1.173-3.416-1.898-5.555-1.898c-4.969,0.035-9.11,4.072-9.11,9.145c0,4.969,4.003,9.075,9.075,9.075
		c2.14,0,4.003-0.725,5.556-1.898c-0.725-0.932-1.173-1.898-1.656-2.967c-1.07,0.932-2.347,1.518-3.899,1.518
		c-3.175,0-5.797-2.588-5.797-5.797C45.79,108.23,48.378,105.642,51.588,105.642z"/>
	<path fill="#34A6DE" d="M32.816,99.017c-0.587,0-1.07,0.345-1.312,0.828l-8.972,19.945h3.554l1.311-2.83h10.87l1.312,2.83h3.554
		l-8.903-19.807C33.989,99.396,33.403,99.017,32.816,99.017z M28.917,113.786l4.003-8.869l4.037,8.869H28.917z"/>
	<path fill="#34A6DE" d="M75.777,111.439c0-4.969-3.899-8.868-8.73-9.075c-0.104,0-0.242,0.104-0.104,0.242
		c0.345,0.725,1.173,2.346,2.588,3.416c1.898,1.415,2.967,3.174,2.967,5.314c0,2.726-2.139,5.797-5.659,5.797
		c-3.554,0-5.659-3.071-5.659-5.797c0-2.14,1.173-3.899,2.967-5.314c1.415-1.173,2.347-2.83,2.588-3.554
		c0.104-0.104,0-0.242-0.104-0.242c-4.969,0.104-8.869,4.141-8.869,9.075c0,4.003,3.417,8.73,8.972,8.73
		c2.484,0,4.589-0.725,6.142-2.001l1.76,1.656h4.969l-4.658-4.382C75.431,114.269,75.777,112.957,75.777,111.439z"/>
	<rect x="97.723" y="102.675" fill="#34A6DE" width="3.416" height="17.115"/>
	<path fill="#34A6DE" d="M91.097,111.301c0,3.554-1.76,5.797-4.728,5.797c-2.967,0-4.727-2.243-4.727-5.797v-8.626h-3.417v8.626
		c0,5.176,3.417,8.972,8.144,8.972c4.728,0,8.144-3.761,8.144-8.972v-8.626h-3.416V111.301L91.097,111.301z"/>
	<path fill="#34A6DE" d="M117.564,105.401l-0.725-0.725c-1.519-1.656-3.313-2.484-5.314-2.484c-2.243,0-4.244,0.828-5.659,2.588
		c-1.519,1.656-2.243,3.899-2.243,6.384c0,2.588,0.828,4.831,2.243,6.487c1.518,1.657,3.554,2.588,5.797,2.588
		c1.898,0,3.554-0.828,5.176-2.243l0.586-0.586v2.381h3.416v-17.115h-3.416v2.726H117.564z M116.253,115.683
		c-1.07,1.173-2.346,1.656-4.003,1.656c-1.518,0-2.829-0.586-3.761-1.76c-0.931-1.173-1.415-2.588-1.415-4.382
		c0-1.656,0.483-3.071,1.519-4.244s2.346-1.76,3.761-1.76c1.657,0,2.968,0.586,3.899,1.76s1.519,2.588,1.519,4.382
		C117.771,113.061,117.323,114.51,116.253,115.683z"/>
	<rect x="121.222" y="134.214" fill="#010101" width="1.311" height="1.311"/>
	<path d="M112.112,135.283V124h3.589c3.485,0,5.693,2.553,5.693,5.659c0,3.14-2.208,5.625-5.693,5.625H112.112L112.112,135.283z
		 M120.393,129.624c0-2.623-1.69-4.762-4.692-4.762h-2.623v9.524h2.623C118.703,134.386,120.393,132.281,120.393,129.624z"/>
</g>
</svg>
