<?xml version="1.0" encoding="utf-8"?>
<!-- Generator: Adobe Illustrator 16.0.0, SVG Export Plug-In . SVG Version: 6.00 Build 0)  -->
<!DOCTYPE svg PUBLIC "-//W3C//DTD SVG 1.1//EN" "http://www.w3.org/Graphics/SVG/1.1/DTD/svg11.dtd">
<svg version="1.1" id="Шар_1" xmlns="http://www.w3.org/2000/svg" xmlns:xlink="http://www.w3.org/1999/xlink" x="0px" y="0px"
	 width="100px" height="30.769px" viewBox="14.238 -288.227 100 30.769" enable-background="new 14.238 -288.227 100 30.769"
	 xml:space="preserve">
<path fill="#005A81" d="M114.238-261.464c0,2.212-1.794,4.006-4.006,4.006H18.244c-2.212,0-4.006-1.793-4.006-4.006v-22.757
	c0-2.212,1.793-4.006,4.006-4.006h91.988c2.212,0,4.006,1.793,4.006,4.006V-261.464L114.238-261.464z"/>
<g>
	<g>
		<path fill="#FFFFFF" d="M28.163-268.26h-6.589v-6.297c0.053-3.362,2.83-6.088,6.188-6.088l0.126-0.002
			c0.11-0.003,0.219-0.004,0.328,0.002h5.733v6.311c-0.063,3.195-2.594,5.856-5.762,6.073L28.163-268.26z M23.027-269.712h5.086
			c2.413-0.177,4.338-2.209,4.386-4.636l0-4.844l-4.36-0.002c-0.029-0.002-0.059-0.002-0.088-0.002l-0.124,0.002
			c-0.054,0.001-0.108,0.003-0.163,0.003c-2.571,0-4.696,2.084-4.736,4.647L23.027-269.712z"/>
	</g>
	<g>
		<path fill="#FFFFFF" d="M27.955-271.282h-3.363v-3.219c0.027-1.729,1.45-3.125,3.17-3.125l0.128-0.002
			c0.028,0,0.057,0.001,0.086,0.002h2.955l0,3.217c-0.032,1.651-1.328,3.014-2.952,3.125L27.955-271.282z M26.045-272.734h1.859
			c0.869-0.071,1.559-0.805,1.576-1.681v-1.758h-1.717c-0.933,0-1.703,0.756-1.718,1.685V-272.734z"/>
	</g>
	<g>
		<rect x="50.346" y="-277.343" fill="#FFFFFF" width="1.453" height="6.517"/>
	</g>
	<g>
		<rect x="56.958" y="-277.343" fill="#FFFFFF" width="1.453" height="2.795"/>
	</g>
	<g>
		<rect x="66.066" y="-277.339" fill="#FFFFFF" width="4.569" height="1.452"/>
	</g>
	<g>
		<rect x="72.11" y="-272.218" fill="#FFFFFF" width="4.274" height="1.452"/>
	</g>
	<g>
		<rect x="67.346" y="-279.918" fill="#FFFFFF" width="1.453" height="9.092"/>
	</g>
	<g>
		<rect x="72.114" y="-279.918" fill="#FFFFFF" width="1.453" height="9.092"/>
	</g>
	<g>
		<path fill="#FFFFFF" d="M45.238-273.704c0-0.851-0.371-1.614-0.956-2.145c0.427-0.431,0.692-1.023,0.692-1.677
			c0-1.281-1.017-2.335-2.286-2.387l0,0h-1.812l0,0h-1.452v9.092h0.302l0,0h2.593l0,0c0.007,0,0.014,0,0.021,0
			c0.101,0,0.201,0.01,0.299,0h0.049l0,0C44.122-270.993,45.238-272.224,45.238-273.704z M40.876-278.458h1.715v0.002
			c0.513,0,0.93,0.418,0.93,0.931c0,0.514-0.417,0.929-0.93,0.929l0,0c0,0-0.001,0-0.002,0l0,0h-0.165c-0.028-0.001-0.056,0-0.084,0
			c-0.007,0-0.014,0-0.021,0l0,0h-1.443V-278.458z M42.492-272.274h-1.617v-2.871h1.506c0.777,0.023,1.403,0.659,1.403,1.441
			C43.785-272.96,43.217-272.352,42.492-272.274z"/>
	</g>
	<g>
		<g>
			<path fill="#FFFFFF" d="M96.925-270.803c-1.84,0-3.336-1.497-3.336-3.336s1.496-3.336,3.336-3.336
				c1.839,0,3.336,1.497,3.336,3.336S98.764-270.803,96.925-270.803z M96.925-276.023c-1.039,0-1.884,0.845-1.884,1.884
				s0.845,1.883,1.884,1.883s1.883-0.845,1.883-1.883S97.964-276.023,96.925-276.023z"/>
		</g>
	</g>
	<g>
		<g>
			<path fill="#FFFFFF" d="M55.676-271.964c-1.502,0-2.724-1.21-2.724-2.698s1.222-2.699,2.724-2.699
				c1.502,0,2.725,1.21,2.725,2.699C58.401-273.175,57.178-271.964,55.676-271.964z M55.676-275.909
				c-0.701,0-1.272,0.559-1.272,1.247c0,0.687,0.571,1.246,1.272,1.246c0.702,0,1.272-0.559,1.272-1.246
				S56.378-275.909,55.676-275.909z"/>
		</g>
	</g>
	<g>
		<path fill="#FFFFFF" d="M106.559-274.662c0-1.488-1.222-2.699-2.725-2.699c-0.465,0-0.902,0.116-1.286,0.32v-0.302h-1.452v6.517
			h1.459v-3.835l0,0c0-0.001,0-0.001,0-0.001c0-0.688,0.578-1.247,1.279-1.247c0.698,0,1.266,0.554,1.271,1.236l0,0v3.847h1.453
			v-3.835l0,0C106.559-274.661,106.559-274.662,106.559-274.662z"/>
	</g>
	<g>
		<path fill="#FFFFFF" d="M65.151-274.662c0-1.488-1.222-2.699-2.725-2.699c-0.465,0-0.902,0.116-1.286,0.32v-2.787h-1.452v9.001
			h1.459v-3.835l0,0c0,0,0-0.001,0-0.001c0-0.688,0.578-1.247,1.279-1.247c0.698,0,1.266,0.554,1.271,1.236l0,0v3.847h1.453v-3.835
			l0,0C65.151-274.661,65.151-274.662,65.151-274.662z"/>
	</g>
	<g>
		<path fill="#FFFFFF" d="M90.287-277.362c-0.684,0-1.304,0.276-1.752,0.722c-0.421-0.446-1.007-0.721-1.72-0.721
			c-0.465,0-0.902,0.117-1.286,0.32v-0.302h-1.453v6.517h1.459v-3.835c0,0,0-0.001,0-0.001c0-0.688,0.577-1.247,1.279-1.247
			c0.698,0,0.99,0.554,0.996,1.236v3.847h1.451v-3.835c0,0,0-0.001,0-0.001c0-0.083,0.006-0.167,0-0.249l0,0
			c0.003-0.551,0.462-0.999,1.026-0.999s1.035,0.448,1.038,0.999v4.085h1.451v-4.175C92.725-276.311,91.621-277.362,90.287-277.362z
			"/>
	</g>
	<g>
		<path fill="#FFFFFF" d="M49.034-277.361c-0.004,0-0.008,0-0.011,0c-0.465,0-0.903,0.117-1.286,0.32v-0.302h-1.452v6.517h1.459
			v-3.835c0,0,0-0.001,0-0.001c0-0.688,0.578-1.247,1.279-1.247c0.004,0,0.008,0.001,0.011,0.001V-277.361z"/>
	</g>
	<g>
		<circle fill="#FFFFFF" cx="51.073" cy="-278.984" r="1.067"/>
	</g>
	<g>
		<path fill="#FFFFFF" d="M55.676-273.392c-0.912,0-1.728,0.414-2.268,1.062l1.089,0.971c0.271-0.351,0.696-0.581,1.178-0.581
			c0.819,0,1.485,0.653,1.485,1.456c0,0.803-0.666,1.456-1.485,1.456c-0.682,0-1.252-0.456-1.425-1.072h-1.483
			c0.191,1.422,1.421,2.524,2.908,2.524c1.62,0,2.938-1.305,2.938-2.908S57.296-273.392,55.676-273.392z"/>
	</g>
	<g>
		<path fill="#FFFFFF" d="M81.574-272.993c-0.344,0.447-0.881,0.737-1.488,0.737c-0.786,0-1.458-0.483-1.741-1.168h1.479v-0.003
			h3.519c0.05-0.229,0.078-0.467,0.078-0.711c0-1.839-1.497-3.336-3.336-3.336c-1.84,0-3.336,1.497-3.336,3.336
			s1.497,3.336,3.336,3.336c1.436,0,2.66-0.914,3.129-2.19H81.574L81.574-272.993z M80.087-276.023c0.777,0,1.445,0.473,1.732,1.146
			h-3.465C78.641-275.55,79.309-276.023,80.087-276.023z"/>
	</g>
	<g>
		<path fill="#FFFFFF" d="M61.032-266.372c0.079,0,0.154-0.013,0.226-0.038c0.072-0.026,0.136-0.061,0.191-0.105
			c0.055-0.045,0.1-0.098,0.134-0.16c0.035-0.062,0.055-0.128,0.062-0.2h0.42c-0.006,0.115-0.038,0.225-0.095,0.33
			c-0.057,0.105-0.132,0.197-0.225,0.276c-0.093,0.08-0.2,0.143-0.323,0.189c-0.123,0.047-0.252,0.071-0.39,0.071
			c-0.195,0-0.365-0.035-0.51-0.104c-0.145-0.07-0.265-0.164-0.361-0.282c-0.096-0.118-0.167-0.256-0.214-0.413
			c-0.047-0.157-0.071-0.322-0.071-0.497v-0.101c0-0.174,0.024-0.34,0.071-0.497c0.047-0.157,0.119-0.294,0.214-0.413
			c0.096-0.119,0.216-0.212,0.36-0.282c0.144-0.069,0.314-0.104,0.509-0.104c0.152,0,0.29,0.024,0.414,0.072
			s0.231,0.114,0.322,0.198s0.161,0.184,0.212,0.299s0.08,0.239,0.086,0.372h-0.42c-0.007-0.08-0.025-0.155-0.057-0.224
			c-0.031-0.07-0.073-0.13-0.126-0.183c-0.053-0.052-0.116-0.093-0.188-0.124s-0.154-0.045-0.243-0.045
			c-0.138,0-0.252,0.027-0.342,0.082c-0.09,0.054-0.163,0.126-0.218,0.215s-0.094,0.188-0.116,0.3
			c-0.023,0.111-0.034,0.223-0.034,0.334v0.101c0,0.115,0.011,0.229,0.034,0.339c0.022,0.111,0.061,0.211,0.115,0.299
			c0.055,0.088,0.127,0.159,0.219,0.214C60.778-266.399,60.893-266.372,61.032-266.372z"/>
		<path fill="#FFFFFF" d="M63.818-268.256c-0.039-0.007-0.074-0.011-0.107-0.014c-0.033-0.002-0.07-0.003-0.111-0.003
			c-0.154,0-0.279,0.034-0.375,0.101c-0.097,0.067-0.169,0.157-0.217,0.271v1.843h-0.444v-2.596h0.432l0.007,0.3
			c0.067-0.107,0.151-0.192,0.252-0.254c0.101-0.063,0.224-0.094,0.367-0.094c0.032,0,0.069,0.004,0.111,0.011
			c0.041,0.007,0.07,0.015,0.086,0.023V-268.256L63.818-268.256z"/>
		<path fill="#FFFFFF" d="M65.258-266.01c-0.181,0-0.344-0.031-0.491-0.094s-0.272-0.149-0.375-0.261
			c-0.104-0.111-0.184-0.243-0.24-0.397c-0.056-0.153-0.084-0.321-0.084-0.504v-0.101c0-0.211,0.032-0.4,0.095-0.566
			c0.063-0.167,0.148-0.307,0.253-0.42c0.105-0.114,0.226-0.201,0.362-0.26c0.136-0.06,0.277-0.09,0.425-0.09
			c0.186,0,0.345,0.033,0.48,0.097c0.134,0.065,0.245,0.154,0.332,0.268c0.087,0.114,0.151,0.248,0.193,0.403
			c0.042,0.155,0.063,0.324,0.063,0.506v0.199h-1.759c0.003,0.12,0.022,0.232,0.059,0.336s0.087,0.194,0.154,0.271
			s0.146,0.138,0.24,0.183c0.094,0.044,0.2,0.067,0.318,0.067c0.157,0,0.289-0.032,0.398-0.096c0.109-0.063,0.204-0.148,0.286-0.254
			l0.271,0.211c-0.042,0.064-0.092,0.126-0.151,0.186s-0.128,0.114-0.208,0.161c-0.08,0.047-0.17,0.085-0.272,0.113
			C65.504-266.024,65.387-266.01,65.258-266.01z M65.203-268.338c-0.09,0-0.172,0.017-0.247,0.049s-0.143,0.081-0.202,0.143
			c-0.06,0.063-0.108,0.14-0.148,0.233c-0.039,0.093-0.066,0.199-0.08,0.319h1.301v-0.034c-0.005-0.086-0.019-0.172-0.042-0.257
			c-0.023-0.084-0.06-0.161-0.108-0.228c-0.048-0.067-0.111-0.122-0.188-0.163C65.411-268.317,65.316-268.338,65.203-268.338z"/>
		<path fill="#FFFFFF" d="M68.387-266.058c-0.016-0.032-0.029-0.072-0.039-0.121s-0.018-0.1-0.024-0.152
			c-0.042,0.043-0.088,0.084-0.141,0.124c-0.052,0.039-0.109,0.074-0.17,0.103c-0.062,0.03-0.128,0.053-0.2,0.07
			c-0.072,0.017-0.148,0.025-0.228,0.025c-0.133,0-0.253-0.02-0.361-0.06c-0.108-0.04-0.2-0.095-0.276-0.164
			c-0.076-0.068-0.135-0.15-0.176-0.243c-0.042-0.094-0.063-0.194-0.063-0.302c0-0.139,0.027-0.262,0.082-0.368
			c0.054-0.106,0.132-0.195,0.234-0.268c0.102-0.072,0.224-0.126,0.368-0.163c0.144-0.037,0.305-0.055,0.482-0.055h0.441v-0.204
			c0-0.155-0.046-0.279-0.139-0.371c-0.093-0.092-0.23-0.138-0.411-0.138c-0.083,0-0.159,0.011-0.228,0.034s-0.127,0.053-0.176,0.09
			c-0.049,0.038-0.087,0.082-0.114,0.131c-0.027,0.05-0.041,0.102-0.041,0.156h-0.446c0-0.093,0.024-0.185,0.073-0.276
			c0.049-0.091,0.118-0.173,0.208-0.246c0.089-0.073,0.198-0.132,0.325-0.178c0.127-0.045,0.269-0.068,0.426-0.068
			c0.141,0,0.271,0.018,0.39,0.054c0.119,0.036,0.221,0.09,0.306,0.163s0.151,0.164,0.199,0.272
			c0.048,0.109,0.072,0.236,0.072,0.382v1.207c0,0.088,0.008,0.18,0.023,0.277c0.015,0.097,0.038,0.18,0.068,0.25v0.039H68.387
			L68.387-266.058z M67.651-266.396c0.08,0,0.155-0.011,0.226-0.033c0.07-0.022,0.134-0.052,0.192-0.088
			c0.057-0.036,0.108-0.077,0.15-0.124s0.076-0.094,0.1-0.144v-0.533h-0.37c-0.254,0-0.45,0.04-0.588,0.119
			c-0.138,0.08-0.207,0.199-0.207,0.359c0,0.063,0.011,0.121,0.031,0.175c0.021,0.054,0.053,0.101,0.095,0.14
			c0.042,0.04,0.094,0.071,0.156,0.094S67.569-266.396,67.651-266.396z"/>
		<path fill="#FFFFFF" d="M70.06-269.283v0.629h0.485v0.343H70.06v1.61c0,0.067,0.008,0.121,0.024,0.162
			c0.016,0.041,0.038,0.072,0.063,0.095c0.027,0.022,0.057,0.037,0.091,0.044c0.034,0.007,0.07,0.011,0.107,0.011
			s0.076-0.003,0.116-0.011c0.041-0.007,0.073-0.013,0.095-0.018v0.36c-0.035,0.01-0.081,0.02-0.137,0.031s-0.124,0.017-0.204,0.017
			c-0.082,0-0.159-0.012-0.232-0.035c-0.073-0.023-0.136-0.062-0.19-0.116c-0.055-0.055-0.098-0.126-0.13-0.215
			s-0.048-0.198-0.048-0.328v-1.608h-0.473v-0.343h0.473v-0.629H70.06z"/>
		<path fill="#FFFFFF" d="M71.065-269.343c0-0.072,0.022-0.133,0.066-0.182c0.044-0.05,0.109-0.075,0.195-0.075
			c0.087,0,0.152,0.025,0.197,0.075c0.045,0.049,0.067,0.11,0.067,0.182s-0.022,0.132-0.067,0.18
			c-0.045,0.048-0.11,0.072-0.197,0.072c-0.086,0-0.151-0.024-0.195-0.072S71.065-269.271,71.065-269.343z M71.545-266.058h-0.444
			v-2.596h0.444V-266.058z"/>
		<path fill="#FFFFFF" d="M72.676-268.654l0.014,0.326c0.093-0.117,0.205-0.208,0.336-0.275c0.131-0.066,0.279-0.1,0.441-0.1
			c0.126,0,0.241,0.017,0.343,0.052c0.103,0.034,0.189,0.089,0.262,0.166c0.072,0.076,0.127,0.173,0.167,0.293
			c0.039,0.119,0.059,0.263,0.059,0.433v1.701h-0.444v-1.706c0-0.101-0.011-0.187-0.034-0.258c-0.022-0.071-0.056-0.129-0.1-0.174
			s-0.098-0.078-0.163-0.099c-0.065-0.021-0.14-0.031-0.225-0.031c-0.144,0-0.27,0.038-0.379,0.115
			c-0.109,0.077-0.193,0.177-0.254,0.302v1.85h-0.444v-2.597L72.676-268.654L72.676-268.654z"/>
		<path fill="#FFFFFF" d="M74.862-267.378c0-0.198,0.023-0.379,0.071-0.541c0.047-0.162,0.115-0.302,0.204-0.417
			c0.088-0.116,0.196-0.206,0.323-0.27c0.126-0.064,0.269-0.096,0.427-0.096c0.165,0,0.308,0.029,0.43,0.086s0.226,0.141,0.312,0.25
			l0.022-0.288h0.405v2.541c0,0.171-0.027,0.324-0.08,0.457c-0.054,0.134-0.129,0.247-0.227,0.339
			c-0.098,0.091-0.213,0.162-0.348,0.209c-0.134,0.048-0.283,0.072-0.446,0.072c-0.067,0-0.144-0.008-0.231-0.023
			s-0.175-0.04-0.264-0.074c-0.089-0.035-0.174-0.081-0.255-0.138s-0.151-0.129-0.209-0.213l0.231-0.267
			c0.054,0.067,0.11,0.123,0.167,0.168s0.115,0.081,0.174,0.108c0.059,0.027,0.118,0.047,0.178,0.059
			c0.06,0.012,0.12,0.018,0.179,0.018c0.104,0,0.198-0.015,0.284-0.044c0.084-0.03,0.157-0.074,0.217-0.133s0.106-0.131,0.138-0.217
			c0.032-0.086,0.048-0.186,0.048-0.299v-0.226c-0.086,0.099-0.188,0.175-0.308,0.228c-0.119,0.053-0.258,0.079-0.418,0.079
			c-0.155,0-0.296-0.033-0.421-0.099c-0.125-0.065-0.232-0.157-0.322-0.274c-0.088-0.118-0.157-0.257-0.205-0.418
			c-0.048-0.161-0.072-0.336-0.072-0.526V-267.378L74.862-267.378z M75.308-267.327c0,0.13,0.013,0.252,0.04,0.366
			s0.067,0.214,0.122,0.299c0.056,0.084,0.126,0.152,0.212,0.201c0.086,0.05,0.19,0.075,0.31,0.075c0.079,0,0.149-0.01,0.212-0.029
			c0.063-0.02,0.12-0.046,0.171-0.079c0.05-0.034,0.095-0.074,0.133-0.12c0.039-0.046,0.072-0.098,0.101-0.154v-1.186
			c-0.029-0.053-0.062-0.102-0.101-0.147c-0.039-0.045-0.083-0.085-0.133-0.119c-0.051-0.034-0.107-0.06-0.169-0.078
			c-0.063-0.018-0.132-0.027-0.209-0.027c-0.122,0-0.225,0.025-0.312,0.075c-0.086,0.051-0.157,0.119-0.213,0.206
			s-0.097,0.187-0.124,0.301c-0.026,0.114-0.04,0.236-0.04,0.366L75.308-267.327L75.308-267.327z"/>
		<path fill="#FFFFFF" d="M79.983-266.372c0.078,0,0.153-0.013,0.226-0.038c0.072-0.026,0.135-0.061,0.19-0.105
			c0.055-0.045,0.1-0.098,0.135-0.16c0.034-0.062,0.054-0.128,0.061-0.2h0.42c-0.006,0.115-0.038,0.225-0.095,0.33
			c-0.057,0.105-0.131,0.197-0.224,0.276c-0.093,0.08-0.201,0.143-0.323,0.189c-0.123,0.047-0.252,0.071-0.39,0.071
			c-0.195,0-0.365-0.035-0.51-0.104c-0.145-0.07-0.265-0.164-0.361-0.282c-0.096-0.118-0.168-0.256-0.215-0.413
			c-0.047-0.157-0.07-0.322-0.07-0.497v-0.101c0-0.174,0.023-0.34,0.07-0.497c0.047-0.157,0.119-0.294,0.215-0.413
			c0.096-0.119,0.216-0.212,0.36-0.282c0.144-0.069,0.313-0.104,0.509-0.104c0.152,0,0.29,0.024,0.414,0.072
			c0.124,0.048,0.231,0.114,0.322,0.198s0.161,0.184,0.212,0.299c0.051,0.115,0.08,0.239,0.086,0.372h-0.42
			c-0.006-0.08-0.025-0.155-0.056-0.224c-0.031-0.07-0.073-0.13-0.126-0.183c-0.053-0.052-0.115-0.093-0.188-0.124
			c-0.073-0.03-0.154-0.045-0.244-0.045c-0.138,0-0.252,0.027-0.342,0.082c-0.09,0.054-0.163,0.126-0.218,0.215
			s-0.094,0.188-0.117,0.3c-0.022,0.111-0.033,0.223-0.033,0.334v0.101c0,0.115,0.011,0.229,0.033,0.339
			c0.022,0.111,0.061,0.211,0.115,0.299c0.055,0.088,0.127,0.159,0.219,0.214C79.728-266.399,79.843-266.372,79.983-266.372z"/>
		<path fill="#FFFFFF" d="M81.396-267.38c0-0.188,0.028-0.363,0.083-0.524c0.056-0.161,0.134-0.301,0.236-0.419
			c0.101-0.119,0.225-0.211,0.371-0.278s0.309-0.101,0.489-0.101c0.184,0,0.349,0.034,0.496,0.101s0.271,0.16,0.373,0.278
			c0.103,0.118,0.181,0.258,0.235,0.419c0.054,0.161,0.082,0.335,0.082,0.524v0.053c0,0.189-0.027,0.364-0.082,0.524
			c-0.055,0.161-0.133,0.3-0.235,0.417c-0.102,0.118-0.227,0.21-0.372,0.276c-0.146,0.066-0.31,0.1-0.492,0.1
			s-0.347-0.034-0.492-0.1c-0.146-0.066-0.27-0.159-0.372-0.276c-0.102-0.117-0.181-0.257-0.236-0.417
			c-0.055-0.161-0.083-0.335-0.083-0.524V-267.38L81.396-267.38z M81.843-267.327c0,0.13,0.015,0.252,0.045,0.367
			c0.03,0.115,0.076,0.216,0.138,0.304s0.139,0.156,0.23,0.208s0.2,0.077,0.323,0.077c0.122,0,0.229-0.025,0.322-0.077
			c0.093-0.051,0.169-0.12,0.23-0.208c0.061-0.087,0.107-0.188,0.138-0.304s0.047-0.237,0.047-0.367v-0.053
			c0-0.128-0.016-0.25-0.047-0.366c-0.031-0.116-0.078-0.218-0.139-0.305c-0.062-0.087-0.139-0.157-0.232-0.209
			c-0.092-0.052-0.201-0.078-0.324-0.078c-0.122,0-0.228,0.026-0.319,0.078c-0.092,0.052-0.168,0.122-0.229,0.209
			c-0.062,0.087-0.107,0.188-0.138,0.305c-0.031,0.116-0.045,0.238-0.045,0.366V-267.327L81.843-267.327z"/>
		<path fill="#FFFFFF" d="M84.734-268.654l0.012,0.288c0.089-0.105,0.198-0.188,0.325-0.247c0.127-0.059,0.275-0.089,0.445-0.089
			c0.168,0,0.316,0.033,0.445,0.1c0.129,0.067,0.227,0.172,0.296,0.318c0.086-0.125,0.199-0.226,0.337-0.302
			c0.138-0.077,0.302-0.115,0.491-0.115c0.139,0,0.262,0.018,0.369,0.054c0.108,0.036,0.198,0.092,0.273,0.169
			c0.074,0.077,0.13,0.175,0.169,0.293s0.058,0.259,0.058,0.422v1.706H87.51v-1.708c0-0.109-0.013-0.199-0.04-0.271
			c-0.026-0.072-0.063-0.13-0.111-0.173c-0.048-0.043-0.106-0.073-0.175-0.09c-0.069-0.017-0.146-0.025-0.229-0.025
			c-0.091,0-0.172,0.014-0.242,0.043c-0.07,0.028-0.131,0.067-0.181,0.116s-0.09,0.106-0.12,0.173
			c-0.03,0.066-0.048,0.137-0.056,0.212v1.723H85.91v-1.706c0-0.101-0.013-0.187-0.04-0.258c-0.026-0.071-0.063-0.129-0.111-0.174
			c-0.048-0.044-0.106-0.078-0.174-0.098c-0.068-0.021-0.145-0.031-0.229-0.031c-0.159,0-0.286,0.034-0.382,0.103
			c-0.096,0.069-0.168,0.159-0.216,0.269v1.896h-0.444v-2.596H84.734L84.734-268.654z"/>
		<path fill="#FFFFFF" d="M89.041-268.654l0.012,0.288c0.089-0.105,0.198-0.188,0.325-0.247c0.127-0.059,0.276-0.089,0.445-0.089
			c0.168,0,0.316,0.033,0.445,0.1c0.129,0.067,0.227,0.172,0.296,0.318c0.087-0.125,0.199-0.226,0.337-0.302
			s0.302-0.115,0.491-0.115c0.139,0,0.262,0.018,0.37,0.054s0.198,0.092,0.272,0.169c0.074,0.077,0.13,0.175,0.169,0.293
			s0.058,0.259,0.058,0.422v1.706h-0.444v-1.708c0-0.109-0.013-0.199-0.04-0.271c-0.026-0.072-0.064-0.13-0.112-0.173
			c-0.048-0.043-0.106-0.073-0.175-0.09c-0.069-0.017-0.145-0.025-0.228-0.025c-0.091,0-0.172,0.014-0.243,0.043
			c-0.07,0.028-0.131,0.067-0.181,0.116s-0.09,0.106-0.12,0.173c-0.03,0.066-0.048,0.137-0.056,0.212v1.723h-0.446v-1.706
			c0-0.101-0.013-0.187-0.04-0.258c-0.026-0.071-0.063-0.129-0.111-0.174c-0.049-0.044-0.106-0.078-0.174-0.098
			c-0.068-0.021-0.145-0.031-0.229-0.031c-0.159,0-0.286,0.034-0.382,0.103s-0.168,0.159-0.216,0.269v1.896h-0.444v-2.596H89.041
			L89.041-268.654z"/>
		<path fill="#FFFFFF" d="M94.534-266.315c-0.082,0.096-0.185,0.171-0.31,0.225c-0.125,0.053-0.275,0.081-0.451,0.081
			c-0.128,0-0.244-0.019-0.348-0.054c-0.104-0.036-0.193-0.093-0.269-0.17c-0.076-0.078-0.133-0.178-0.174-0.3
			c-0.041-0.123-0.061-0.27-0.061-0.443v-1.677h0.444v1.682c0,0.117,0.014,0.213,0.041,0.289c0.027,0.076,0.063,0.136,0.108,0.18
			c0.044,0.044,0.096,0.074,0.153,0.091c0.058,0.017,0.117,0.025,0.178,0.025c0.181,0,0.326-0.034,0.436-0.103
			c0.109-0.069,0.19-0.161,0.241-0.276v-1.888h0.444v2.596h-0.422L94.534-266.315z"/>
		<path fill="#FFFFFF" d="M96.06-268.654l0.015,0.326c0.093-0.117,0.205-0.208,0.336-0.275s0.278-0.1,0.441-0.1
			c0.126,0,0.241,0.017,0.343,0.052c0.103,0.034,0.189,0.089,0.262,0.166c0.072,0.076,0.127,0.173,0.167,0.293
			c0.039,0.119,0.059,0.263,0.059,0.433v1.701h-0.444v-1.706c0-0.101-0.012-0.187-0.034-0.258c-0.022-0.071-0.056-0.129-0.1-0.174
			s-0.099-0.078-0.163-0.099c-0.065-0.021-0.14-0.031-0.225-0.031c-0.144,0-0.27,0.038-0.379,0.115
			c-0.109,0.077-0.194,0.177-0.255,0.302v1.85H95.64v-2.597L96.06-268.654L96.06-268.654z"/>
		<path fill="#FFFFFF" d="M98.354-269.343c0-0.072,0.022-0.133,0.066-0.182c0.044-0.05,0.109-0.075,0.196-0.075
			s0.152,0.025,0.197,0.075c0.045,0.049,0.067,0.11,0.067,0.182s-0.022,0.132-0.067,0.18c-0.045,0.048-0.11,0.072-0.197,0.072
			s-0.152-0.024-0.196-0.072S98.354-269.271,98.354-269.343z M98.835-266.058H98.39v-2.596h0.444V-266.058z"/>
		<path fill="#FFFFFF" d="M100.147-269.283v0.629h0.485v0.343h-0.485v1.61c0,0.067,0.008,0.121,0.024,0.162
			c0.016,0.041,0.038,0.072,0.063,0.095c0.027,0.022,0.057,0.037,0.091,0.044c0.034,0.007,0.07,0.011,0.107,0.011
			s0.076-0.003,0.116-0.011c0.041-0.007,0.073-0.013,0.095-0.018v0.36c-0.035,0.01-0.081,0.02-0.137,0.031s-0.124,0.017-0.204,0.017
			c-0.082,0-0.159-0.012-0.232-0.035c-0.073-0.023-0.136-0.062-0.19-0.116c-0.055-0.055-0.098-0.126-0.13-0.215
			c-0.032-0.089-0.048-0.198-0.048-0.328v-1.608h-0.473v-0.343h0.473v-0.629H100.147z"/>
		<path fill="#FFFFFF" d="M101.153-269.343c0-0.072,0.022-0.133,0.066-0.182c0.044-0.05,0.109-0.075,0.195-0.075
			c0.087,0,0.152,0.025,0.197,0.075c0.044,0.049,0.067,0.11,0.067,0.182s-0.022,0.132-0.067,0.18
			c-0.045,0.048-0.11,0.072-0.197,0.072c-0.086,0-0.151-0.024-0.195-0.072S101.153-269.271,101.153-269.343z M101.633-266.058
			h-0.444v-2.596h0.444V-266.058z"/>
		<path fill="#FFFFFF" d="M103.421-266.01c-0.181,0-0.345-0.031-0.491-0.094s-0.271-0.149-0.375-0.261
			c-0.104-0.111-0.184-0.243-0.24-0.397c-0.056-0.153-0.084-0.321-0.084-0.504v-0.101c0-0.211,0.032-0.4,0.095-0.566
			s0.147-0.307,0.253-0.42c0.105-0.114,0.226-0.201,0.362-0.26c0.136-0.06,0.277-0.09,0.424-0.09c0.186,0,0.346,0.033,0.48,0.097
			c0.135,0.065,0.245,0.154,0.333,0.268c0.087,0.114,0.152,0.248,0.193,0.403c0.042,0.155,0.063,0.324,0.063,0.506v0.199h-1.759
			c0.003,0.12,0.023,0.232,0.059,0.336c0.036,0.104,0.087,0.194,0.154,0.271c0.066,0.077,0.146,0.138,0.24,0.183
			c0.094,0.044,0.2,0.067,0.318,0.067c0.157,0,0.289-0.032,0.398-0.096c0.109-0.063,0.204-0.148,0.286-0.254l0.271,0.211
			c-0.042,0.064-0.092,0.126-0.151,0.186s-0.128,0.114-0.208,0.161c-0.08,0.047-0.17,0.085-0.272,0.113
			C103.666-266.024,103.55-266.01,103.421-266.01z M103.365-268.338c-0.089,0-0.172,0.017-0.247,0.049s-0.142,0.081-0.202,0.143
			c-0.059,0.063-0.108,0.14-0.147,0.233s-0.066,0.199-0.081,0.319h1.301v-0.034c-0.005-0.086-0.019-0.172-0.042-0.257
			c-0.023-0.084-0.059-0.161-0.108-0.228c-0.049-0.067-0.112-0.122-0.188-0.163S103.479-268.338,103.365-268.338z"/>
		<path fill="#FFFFFF" d="M106.458-266.746c0-0.048-0.007-0.093-0.022-0.136c-0.014-0.042-0.043-0.083-0.085-0.12
			c-0.042-0.038-0.103-0.072-0.181-0.104c-0.079-0.032-0.182-0.062-0.31-0.089c-0.144-0.03-0.274-0.066-0.389-0.108
			c-0.115-0.041-0.213-0.091-0.294-0.15c-0.081-0.058-0.143-0.127-0.186-0.208c-0.043-0.08-0.065-0.173-0.065-0.281
			c0-0.102,0.023-0.2,0.068-0.292c0.046-0.092,0.11-0.173,0.193-0.242c0.083-0.07,0.184-0.125,0.302-0.166
			c0.119-0.041,0.25-0.061,0.396-0.061c0.155,0,0.294,0.021,0.417,0.064c0.122,0.042,0.226,0.1,0.312,0.174
			c0.086,0.073,0.151,0.16,0.196,0.258c0.044,0.099,0.067,0.204,0.067,0.315h-0.446c0-0.053-0.012-0.105-0.036-0.159
			c-0.024-0.054-0.06-0.102-0.106-0.144s-0.103-0.077-0.17-0.104c-0.067-0.026-0.145-0.04-0.233-0.04
			c-0.093,0-0.172,0.011-0.236,0.033c-0.065,0.021-0.118,0.05-0.16,0.086s-0.072,0.077-0.091,0.122
			c-0.02,0.046-0.029,0.093-0.029,0.141s0.008,0.091,0.024,0.129c0.016,0.039,0.046,0.073,0.091,0.104s0.106,0.06,0.184,0.086
			s0.178,0.053,0.301,0.08c0.159,0.037,0.296,0.079,0.413,0.125c0.117,0.046,0.214,0.1,0.291,0.162
			c0.077,0.062,0.134,0.132,0.171,0.212c0.038,0.081,0.057,0.173,0.057,0.278c0,0.114-0.024,0.218-0.071,0.313
			c-0.047,0.094-0.114,0.175-0.202,0.242c-0.088,0.067-0.194,0.12-0.317,0.157s-0.26,0.057-0.41,0.057
			c-0.173,0-0.325-0.024-0.458-0.072c-0.132-0.048-0.243-0.112-0.333-0.19c-0.089-0.08-0.157-0.17-0.204-0.271
			s-0.069-0.206-0.069-0.313h0.444c0.004,0.091,0.026,0.167,0.066,0.229c0.039,0.062,0.088,0.112,0.147,0.15
			c0.059,0.039,0.124,0.065,0.194,0.082s0.141,0.024,0.211,0.024c0.091,0,0.171-0.009,0.24-0.029
			c0.069-0.019,0.127-0.045,0.174-0.079c0.047-0.033,0.083-0.073,0.107-0.119S106.458-266.694,106.458-266.746z"/>
	</g>
</g>
</svg>
