<?xml version="1.0" encoding="utf-8"?>
<!-- Generator: Adobe Illustrator 16.0.0, SVG Export Plug-In . SVG Version: 6.00 Build 0)  -->
<!DOCTYPE svg PUBLIC "-//W3C//DTD SVG 1.1//EN" "http://www.w3.org/Graphics/SVG/1.1/DTD/svg11.dtd">
<svg version="1.1" id="Layer_1" xmlns="http://www.w3.org/2000/svg" xmlns:xlink="http://www.w3.org/1999/xlink" x="0px" y="0px"
	 width="100px" height="42.845px" viewBox="1905.725 45.948 100 42.845" enable-background="new 1905.725 45.948 100 42.845"
	 xml:space="preserve">
<title>logo_sam</title>
<path id="Shape" fill="#333333" d="M1913.398,45.948h1.81c2.069,0.172,3.966,1.035,5.259,2.586c0.862,1.121,1.466,2.414,1.639,3.793
	c-1.294,0.086-2.5,0-3.794,0c-0.172-1.035-0.861-1.983-1.724-2.5c-1.38-0.862-3.189-0.862-4.569,0
	c-1.293,0.948-2.155,2.328-2.241,3.965c-0.345,1.983,0,3.966,1.034,5.69c1.294,1.81,3.794,2.414,5.776,1.293
	c1.12-0.776,1.811-2.069,1.896-3.448h3.793c-0.086,2.069-1.034,4.052-2.586,5.517c-1.725,1.379-4.052,2.069-6.207,1.724
	c-1.982-0.172-3.793-1.035-5.173-2.5c-1.465-1.638-2.327-3.707-2.5-5.948v-1.638c0-2.5,1.121-4.914,3.018-6.638
	C1910.122,46.811,1911.674,46.121,1913.398,45.948L1913.398,45.948z"/>
<path fill="#333333" d="M1935.036,61.638c0-2.241,0-4.569,0-6.81c0.086-0.862-0.173-1.638-0.689-2.328
	c-0.948-0.862-2.155-1.466-3.448-1.466c-1.983-0.172-4.052-0.086-5.776,0.949c-1.12,0.776-1.811,1.982-1.811,3.362h3.535
	c0.086-0.517,0.259-1.034,0.604-1.379c0.689-0.517,1.638-0.689,2.413-0.517c0.604,0,1.121,0.345,1.38,0.862
	c0.259,0.517,0.172,1.207-0.259,1.638c-0.518,0.345-1.121,0.517-1.811,0.604c-1.466,0.086-2.931,0.345-4.311,0.862
	c-0.948,0.345-1.724,1.207-1.896,2.242c-0.259,1.121-0.086,2.328,0.518,3.362c0.775,0.948,1.896,1.552,3.104,1.552
	c1.811,0.259,3.534-0.345,4.914-1.552c0.086,0.431,0.172,0.776,0.258,1.207c1.207,0,2.414,0,3.621,0
	C1935.122,63.362,1935.036,62.5,1935.036,61.638z M1930.984,61.121c-0.776,1.121-2.414,1.207-3.534,0.862
	c-0.862-0.345-1.207-1.293-0.862-2.155c0.086-0.172,0.172-0.259,0.259-0.345l0,0c1.206-1.293,3.275-0.69,4.655-1.552
	C1931.415,58.966,1931.674,60.173,1930.984,61.121z"/>
<path id="Shape-3" fill="#333333" d="M1942.795,51.121c1.811-0.517,4.138,0,5,1.896c0.775-1.034,1.811-1.724,3.104-1.983
	c1.552-0.345,3.104,0.086,4.311,1.035c0.861,0.948,1.293,2.155,1.206,3.448c0,2.931,0,5.776,0,8.707c-1.206,0-2.327,0.086-3.534,0
	c0-2.5,0-5,0-7.5c0.086-0.862-0.086-1.724-0.604-2.5c-0.689-0.517-1.552-0.69-2.414-0.431c-0.775,0.259-1.293,0.948-1.379,1.811
	c-0.086,0.689-0.173,1.379-0.173,2.069c0,2.155,0,4.311,0,6.465c-1.12,0-2.327,0-3.534,0c0-2.586,0-5.086,0-7.672
	c0-0.862,0-1.81-0.689-2.414c-1.035-0.69-2.414-0.518-3.189,0.517c-0.432,0.69-0.689,1.552-0.604,2.414c0,2.414,0,4.741,0,7.155
	c-1.207,0.086-2.328,0-3.535,0c0-4.31,0-8.621,0-12.931c1.121,0,2.242,0,3.362,0c0,0.604,0,1.121,0,1.724
	C1940.811,52.069,1941.76,51.466,1942.795,51.121L1942.795,51.121z"/>
<path fill="#333333" d="M1970.295,58.621c0.172-2.414-0.604-5-2.5-6.465c-2.673-1.896-6.293-1.552-8.535,0.862
	c-1.896,2.242-2.327,5.345-1.12,8.017c0.862,1.897,2.586,3.19,4.655,3.449c1.724,0.345,3.534,0,5.086-0.949
	c1.034-0.862,1.896-1.982,2.241-3.275c-1.034,0-2.069,0-3.104,0c0,0,0,0,0,0.086c-0.948,1.552-3.017,2.069-4.568,1.121
	c-0.862-0.689-1.294-1.724-1.294-2.758h9.139V58.621z M1961.07,56.38c0.086-0.862,0.432-1.638,1.121-2.155l0,0
	c0.861-0.604,1.896-0.69,2.845-0.431c1.12,0.345,1.638,1.552,1.811,2.586C1964.863,56.38,1962.967,56.38,1961.07,56.38z"/>
<path id="Shape-5" fill="#333333" d="M1974.691,53.621c0.861-1.81,2.931-3.104,4.914-2.586c0,1.121,0,2.242,0,3.276
	c-1.121-0.259-2.242-0.086-3.19,0.431c-1.034,0.776-1.552,1.983-1.465,3.276c0,2.069,0,4.138,0,6.121c-1.207,0-2.328,0-3.535,0
	c0-4.31,0-8.621,0-12.931c1.121-0.086,2.241,0,3.362,0C1974.691,52.069,1974.691,52.845,1974.691,53.621L1974.691,53.621z"/>
<path fill="#333333" d="M1990.381,52.586c-1.638-1.379-3.879-1.982-6.034-1.465c-1.983,0.259-3.707,1.552-4.569,3.448
	c-0.948,2.155-0.862,4.569,0.086,6.724c0.776,1.638,2.242,2.759,4.052,3.19c1.983,0.517,4.052,0.172,5.776-0.862
	c1.379-0.948,2.327-2.414,2.672-4.052C1992.709,57.069,1992.191,54.311,1990.381,52.586z M1988.052,60.776
	c-1.034,1.293-2.844,1.465-4.138,0.517c-0.259-0.172-0.517-0.431-0.689-0.776c-0.689-1.465-0.862-3.104-0.345-4.655
	c0.259-1.034,1.034-1.81,1.982-2.069c0.862-0.259,1.811-0.086,2.587,0.431c0.775,0.776,1.293,1.81,1.293,2.845
	C1989.002,58.276,1988.743,59.656,1988.052,60.776z"/>
<path id="Shape-7" fill="#333333" d="M1997.105,53.017c0.775-1.034,1.896-1.81,3.189-1.983c1.465-0.258,2.931,0.086,4.138,1.035
	c0.862,0.948,1.293,2.155,1.293,3.362v8.793h-3.534c0-2.414,0-4.741,0-7.155c0.086-0.862-0.086-1.724-0.518-2.5
	c-0.345-0.517-0.948-0.776-1.552-0.776c-0.862-0.086-1.724,0.172-2.241,0.862c-0.518,0.862-0.689,1.81-0.689,2.758
	c0,2.242,0,4.569,0,6.811c-1.207,0-2.328,0-3.535,0c0-4.311,0-8.621,0-12.931h3.362C1997.105,51.897,1997.105,52.5,1997.105,53.017
	L1997.105,53.017L1997.105,53.017z"/>
<path id="Shape-8" fill="#333333" d="M1925.552,66.207c1.294,0,2.587,0,3.88,0c0.948,4.052,1.811,8.103,2.845,12.155
	c1.034-4.052,2.069-8.103,3.104-12.155c1.207,0,2.414,0,3.707,0c1.034,4.052,2.068,8.103,3.018,12.155
	c0.172-0.258,0.258-0.603,0.258-0.862c0.862-3.793,1.811-7.586,2.673-11.293c1.293,0,2.586,0,3.793,0
	c-1.552,5.948-3.189,11.896-4.741,17.845c-1.293,0.086-2.586,0-3.879,0c-0.949-3.621-1.811-7.242-2.673-10.776
	c-0.086-0.431-0.173-0.862-0.345-1.207c-1.035,4.052-1.982,8.017-2.932,12.069c-1.293,0-2.672,0-3.965,0
	C1928.656,78.104,1927.105,72.156,1925.552,66.207L1925.552,66.207z"/>
<path id="Shape-9" fill="#333333" d="M1949.346,66.207h3.534c0,0.948,0,1.982,0,2.931c-1.207,0-2.328,0-3.534,0
	C1949.346,68.104,1949.346,67.156,1949.346,66.207L1949.346,66.207L1949.346,66.207z"/>
<path id="Shape-10" fill="#333333" d="M1954.691,66.207h3.534c0,5.948,0,11.896,0,17.845h-3.534
	C1954.691,78.104,1954.691,72.156,1954.691,66.207L1954.691,66.207L1954.691,66.207z"/>
<path fill="#333333" d="M1969.002,66.207c0,2.155,0,4.224,0,6.293c-1.725-2.328-5.518-2.414-7.587-0.345
	c-1.465,1.552-2.155,3.707-1.896,5.776c0,1.982,0.776,3.793,2.241,5.172c1.293,1.121,3.104,1.552,4.742,1.121
	c1.12-0.259,2.068-0.862,2.672-1.811c0,0.518,0,1.121,0,1.638c1.121,0,2.241,0,3.362,0c0-5.948,0-11.896,0-17.845
	C1971.329,66.207,1970.122,66.207,1969.002,66.207z M1968.225,80.69c-0.948,1.121-2.586,1.379-3.793,0.518
	c-0.776-0.69-1.293-1.638-1.466-2.673c-0.172-1.293,0-2.5,0.518-3.707c0.431-0.69,1.121-1.207,1.896-1.379
	c0.948-0.172,1.896,0.086,2.586,0.776c0.689,0.862,1.035,1.983,1.035,3.017C1969.174,78.534,1968.915,79.656,1968.225,80.69z"/>
<path id="Shape-12" fill="#333333" d="M1974.26,66.207c1.121,0,2.328,0,3.535,0c0,0.948,0,1.982,0,2.931h-3.535
	C1974.26,68.104,1974.26,67.156,1974.26,66.207L1974.26,66.207z"/>
<path fill="#8CC63F" d="M1923.915,80.259c-0.172,0.517-0.517,0.948-0.862,1.379c-0.603,0.345-1.293,0.259-1.896,0
	c-0.948-0.604-1.896-1.293-2.672-2.069c0.689-0.862,1.466-1.81,2.241-2.672c0.345-0.431,0.776-0.776,1.293-0.948
	c0.087,0.431,0.345,0.776,0.689,0.948c0.776,0.345,1.639,0.086,2.155-0.604c0.432-0.862,0.173-1.896-0.604-2.328h-0.086
	c-1.034-0.431-2.241-0.258-3.189,0.345c-1.552,1.035-2.586,2.673-3.879,4.052c-1.121-1.207-2.328-2.328-3.449-3.534
	c1.466-0.518,2.673-1.552,3.449-2.845c0.603-1.293,0.345-2.845-0.69-3.879c-0.948-0.862-2.155-1.379-3.448-1.379
	c-1.638-0.172-3.275,0.345-4.482,1.552c-1.121,1.293-1.293,3.104-0.604,4.655c0.431,0.776,0.948,1.552,1.552,2.155
	c-1.293,0.518-2.414,1.379-3.189,2.586c-0.259,0.517-0.432,1.207-0.518,1.896v1.121c0.173,1.207,0.862,2.242,1.811,2.845
	c1.724,0.949,3.707,1.207,5.604,0.518c1.207-0.431,2.241-1.121,3.104-2.069c1.379,1.465,3.275,2.414,5.259,2.414
	c2.068-0.086,3.706-1.724,3.793-3.707c-0.087-0.431-0.518-0.776-1.035-0.689C1924.174,80.086,1924.002,80.173,1923.915,80.259z
	 M1911.674,68.534c0.604-0.258,1.207-0.172,1.725,0.173c1.12,1.034,1.207,2.758,0.172,3.879c-0.086,0.086-0.172,0.173-0.345,0.259
	c-0.259,0.259-0.518,0.431-0.862,0.517c-0.689-0.689-1.293-1.552-1.638-2.414C1910.552,70.086,1910.725,68.793,1911.674,68.534z
	 M1910.898,81.638c-0.69-0.172-1.121-0.776-1.293-1.465c-0.259-1.379,0.086-2.759,1.12-3.707c0.173-0.086,0.345,0.172,0.518,0.259
	c1.207,1.293,2.5,2.5,3.62,3.879c0,0.086,0,0.172,0,0.172C1913.656,81.638,1912.277,81.897,1910.898,81.638z"/>
<path id="Shape-13" fill="#333333" d="M1982.881,72.845c0.775-1.121,1.982-1.896,3.362-2.069c1.466-0.259,3.017,0.172,4.138,1.121
	c1.034,1.035,1.121,2.586,1.121,4.052c0,2.672,0,5.345,0,8.104h-3.535c0-2.586,0-5.172,0-7.759c0-0.948-0.258-2.069-1.207-2.5
	c-1.12-0.517-2.5-0.172-3.275,0.862c-0.432,0.948-0.604,1.982-0.518,3.017c0,2.155,0,4.224,0,6.379h-3.534c0-4.311,0-8.621,0-12.931
	c1.121,0,2.241,0,3.362,0C1982.881,71.638,1982.881,72.241,1982.881,72.845L1982.881,72.845L1982.881,72.845z"/>
<path fill="#333333" d="M2005.552,71.034h-3.361c0,0.518,0,1.121,0,1.638c-0.345-0.345-0.689-0.689-1.035-1.035
	c-0.775-0.604-1.638-0.862-2.586-0.862c-1.465-0.086-2.845,0.431-3.879,1.465c-1.293,1.379-1.982,3.276-1.896,5.086
	c-0.086,1.896,0.604,3.707,1.896,5.086c2.068,1.811,5.862,1.724,7.414-0.689c0,1.293,0.258,2.672-0.518,3.707
	c-0.948,1.121-2.5,1.379-3.793,0.689c-0.518-0.345-0.948-0.862-1.121-1.465h-3.448c0.086,1.293,0.776,2.414,1.811,3.104
	c1.896,1.034,4.052,1.293,6.12,0.775c1.553-0.258,2.846-1.121,3.621-2.5c0.518-1.207,0.775-2.5,0.689-3.793
	C2005.552,78.621,2005.639,74.828,2005.552,71.034z M2002.191,77.673c0,0.862-0.345,1.724-0.862,2.414
	c-0.948,1.035-2.5,1.207-3.62,0.431c-0.604-0.517-1.035-1.207-1.121-1.983c-0.345-1.207-0.173-2.586,0.431-3.707
	c0.345-0.69,1.034-1.121,1.811-1.293l0,0c1.034-0.172,2.069,0.173,2.759,0.949C2002.018,75.431,2002.277,76.552,2002.191,77.673z"/>
<path id="Shape-15" fill="#333333" d="M1949.346,71.034c1.206,0,2.327,0,3.534,0c0,4.311,0,8.621,0,12.931h-3.534
	C1949.346,79.656,1949.346,75.345,1949.346,71.034C1949.346,71.121,1949.346,71.121,1949.346,71.034z"/>
<path id="Shape-16" fill="#333333" d="M1974.26,71.121c1.207,0,2.328,0,3.535,0c0,4.311,0,8.621,0,12.931c-1.207,0-2.328,0-3.535,0
	C1974.26,79.741,1974.26,75.431,1974.26,71.121L1974.26,71.121z"/>
</svg>
