<?xml version="1.0" encoding="utf-8"?>
<!-- Generator: Adobe Illustrator 16.0.0, SVG Export Plug-In . SVG Version: 6.00 Build 0)  -->
<!DOCTYPE svg PUBLIC "-//W3C//DTD SVG 1.1//EN" "http://www.w3.org/Graphics/SVG/1.1/DTD/svg11.dtd">
<svg version="1.1" id="Logo" xmlns="http://www.w3.org/2000/svg" xmlns:xlink="http://www.w3.org/1999/xlink" x="0px" y="0px"
	 width="79.999px" height="117.008px" viewBox="427.795 0.019 79.999 117.008"
	 enable-background="new 427.795 0.019 79.999 117.008" xml:space="preserve">
<title>city-university-london-full</title>
<path fill="#B8081E" d="M463.917,18.249l-0.329,0.045c-0.435,0.642-0.77,1.35-0.993,2.098c0.095,0.067,0.201,0.123,0.313,0.167
	c0.273-0.798,0.614-1.574,1.016-2.316 M465.105,20.666c0.24-0.614,0.837-2.037,1.061-2.405c-0.201-0.039-0.407-0.061-0.614-0.056
	c-0.352,0.591-1.004,2.082-1.167,2.478C464.615,20.694,464.838,20.666,465.105,20.666 M463.772,20.694
	c0.324-0.865,0.708-1.708,1.167-2.511c0,0-0.374,0-0.519,0.022c-0.458,0.787-0.854,1.618-1.183,2.472c0,0,0.128,0.067,0.53,0.022
	 M482.393,59.705c0.949,0.424,1.58,2.489-0.502,3.426c1.06-2.684-3.063-5.156-7.349-2.573c0.139-0.173,0.29-0.346,0.424-0.524
	c4.47-2.852,11.808,0.352,14.631-3.817c0.167,1.083-0.854,2.595-3.058,3.013c2.321,0.285,3.493,1.412,5.067,1.725
	c-1.546,0.056-5.391-1.948-9.213-1.256 M467.756,64.443c-7.511-4.648-10.826-14.525-11.261-25.541
	c0.938-0.095,3.053-0.291,5.486-0.436c0.033,5.871,0.614,13.136,3.476,20.72c-0.284-4.235-0.686-12.779-0.591-20.848
	c0.965-0.028,1.919-0.039,2.835-0.028l0.056-0.039l0.05,0.039c4.258-0.056,9.57,0.43,11.21,0.592
	C478.582,49.917,475.261,59.794,467.756,64.443 M453.716,63.204c-2.082-0.943-1.451-3.002-0.502-3.432
	c-3.823-0.692-7.667,1.306-9.219,1.255c1.574-0.313,2.751-1.445,5.078-1.724c-2.21-0.418-3.231-1.931-3.063-3.019
	c2.807,4.146,10.072,1.01,14.547,3.767c0.14,0.179,0.291,0.352,0.43,0.53c-4.258-2.511-8.326-0.056-7.271,2.617 M456.573,32.055
	c1.356-0.212,3.393-0.435,5.547-0.597c-0.033,1.239-0.083,2.623-0.111,4.135c-2.132,0.145-4.057,0.334-5.569,0.491
	C456.445,34.75,456.49,33.406,456.573,32.055 M459.129,27.68c0.904-1.027,2.946-1.947,3.956-2.958
	c0.324,0.848,0.514,1.741,0.564,2.645c-0.374,0.48-1.658,0.804-2.087,1.512c-0.067,0.341-0.1,0.687-0.1,1.038l-0.781,0.062
	c0.502-0.843-0.14-1.557-0.988-1.792c0.106,0.854-0.301,1.295-0.586,1.351c-0.614-0.167-0.485-1.278,0.022-1.853 M462.293,22.58
	c-0.564-0.167-0.96-1.1-0.731-1.691c0.128-0.123,0.324-0.145,0.519-0.313c0.34-0.313,0.291-1.808,1.92-3.22
	c1.194-0.268,2.901-0.357,3.833-0.207c0.106,0.067,1.216,0.497,1.451,4.118c0.815-0.083,1.618-0.246,2.405-0.469
	C470.016,22.189,462.656,22.68,462.293,22.58 M463.537,15.259c0.558-0.134,1.138-0.14,1.696-0.022
	c0.313-0.106,1.172-0.201,1.68-0.028c0.776-0.19,1.747-0.112,2.132,0.034c0.474-0.218,1.378-0.112,1.769,0.022
	c1.384-0.334,2.104,0.34,2.104,0.781c0,0.313-0.095,0.396-0.257,0.485c-0.569,0.313-0.407-0.558-1.612-0.831
	c0.524,0.262,0.563,0.848,1.149,0.965c-1.959,0.318-1.568-1.228-2.985-1.228c0.603,0.178,0.697,0.92,1.283,1.2
	c-2.009,0.201-1.83-1.278-3.309-1.245c0.731,0.212,0.781,0.96,1.568,1.206c-2.137,0.295-1.786-1.312-3.371-1.194
	c0.748,0.329,0.887,0.971,1.596,1.144c-1.986,0.53-1.925-1.122-3.231-0.988c0.586,0.145,0.843,0.814,1.323,1.01
	c-1.122,0.419-1.083-0.519-2.042-0.508c0.374,0.151,0.519,0.447,0.865,0.62c-1.864,0.279-1.624-1.551-0.357-1.412 M471.093,19.365
	c0.24,0.011,0.435,0.212,0.424,0.458c-0.006,0.246-0.212,0.436-0.452,0.424c-0.24-0.006-0.43-0.201-0.43-0.441
	C470.641,19.561,470.842,19.365,471.093,19.365L471.093,19.365 M473.342,28.071c-0.675-0.039-0.753,0.095-1.127,0.184
	c-0.943-1.412-1.043-3.923-0.189-5.452C471.952,24.683,472.242,27.379,473.342,28.071 M476.383,27.691
	c0.508,0.581,0.642,1.691,0.022,1.858c-0.285-0.05-0.692-0.497-0.586-1.351c-0.273,0.073-0.524,0.207-0.742,0.385
	c-0.273-0.273-0.636-0.436-1.016-0.458c-0.787-0.843-1.094-1.909-1.172-2.98c1.077,0.854,2.712,1.668,3.493,2.55 M474.659,29.348
	c-0.011,0.224,0.044,0.447,0.162,0.636c-0.759-0.061-1.501-0.117-2.209-0.156c0.619-0.357,1.333-0.519,2.048-0.469 M471.065,27.775
	c-0.904-0.72-1.629-3.27-0.748-5.145c0.185-0.508,0.798-0.832,0.731-0.408c-0.502,1.602-0.447,4.124,0.017,5.547 M463.588,30.716
	c0.832-1.568,1.016-3.711-0.106-6.724c0.854,0.798,1.361,2.879,1.439,3.895c0.279-0.391,0.391-1.635,0.285-2.466
	c0.659,2.617,0.156,6.25-0.48,6.819c-0.418-0.217-0.748-0.697-1.016-1.099c0.167,0.569,0.452,1.099,0.837,1.557
	c4.163-1.412,7.187-4.799,9.57-3.906c-1.317,0.067-2.299,0.675-3.203,1.529c-1.412-0.212-2.478,2.455-6.869,3.783
	c-0.552-0.352-1.155-2.12-1.373-2.745c-0.218-0.62-0.424-0.765-0.72-0.771c-0.095-0.524-0.061-1.065,0.106-1.568
	c0,0,0.329-0.352,1.222-0.669c-0.022,0.803,0.084,1.602,0.301,2.377 M478.933,32.089c0.078,1.35,0.123,2.689,0.128,4.023
	c-2.79-0.285-7.003-0.698-11.317-0.714c-0.949,0-1.897,0.028-2.824,0.061c0.011-0.334,0.022-0.664,0.034-0.999
	c2.355-0.787,4.174-2.444,5.29-3.136c2.907,0.101,5.809,0.357,8.694,0.765 M453.828,30.816c0,1.188,0,2.31,0,3.393
	c-0.156-0.546-0.542-1.132-1.278-1.741c-0.714,3.438-4.498,3.449-6.272,1.311c0.675-2.689,4.012-4.19,7.327-5
	c0.083,0.898,0.401,1.518,0.848,1.942L453.828,30.816 M451.54,37.356c0.603-0.05,1.958-0.854,2.293-2.048
	c0.011,1.741,0.045,3.393,0.128,5.056C453.576,39.337,452.845,38.299,451.54,37.356 M481.902,28.796
	c3.309,0.809,6.646,2.305,7.327,5c-1.78,2.126-5.563,2.121-6.272-1.317c-0.737,0.608-1.122,1.194-1.278,1.741
	c0-1.088,0-2.209,0-3.404l-0.62-0.089C481.506,30.303,481.818,29.678,481.902,28.796 M481.545,40.375
	c0.084-1.663,0.112-3.315,0.128-5.05c0.335,1.188,1.691,1.992,2.293,2.048C482.661,38.31,481.924,39.348,481.545,40.375
	 M493.531,60.626c0.798-0.619,1.3-1.545,1.39-2.556c-2.455,2.137-5.959,1.149-5.959,1.149s4.09-1.361,0.725-5.959
	c0.218,4.219-4.252,4.754-7.634,4.754c-2.444,0-4.698,0.273-6.3,0.959c2.84-4.04,4.648-8.471,5.134-11.813
	c0.173-1.178,0.307-2.293,0.413-3.376l0.017,0.111c0.313,1.741,0.977,2.511,3.917,3.733c2.947,1.228,2.768,3.158,1.239,4.341
	c2.276,0.647,3.878-2.796,1.428-5.904c0.24-0.201,1.295-1.668-0.123-3.449c-0.726,1.333-2.35,1.791-3.398,1.568
	c2.171,1.033,3.242-0.407,3.415-0.642c0.586,1.39-0.156,2.511-0.854,2.528c1.21,0.926,2.042,2.02,1.763,3.755
	c-0.223-1.267-3.103-2.338-4.609-3.203c-1.172-0.675-1.869-2.534-0.201-3.477c1.663-0.943,3.303-1.686,4.581-2.98
	c0.212,0.887,1.1,2.918,4.431,3.895c-3.755-5.569,1.44-5.82-1.122-10.909c-0.43,4.843-7.154,5.982-7.154,5.982
	c5.603-2.243,7.388-5.547,6.356-8.812c-0.692-2.165-2.773-4.313-7.282-5.781c0.893-0.179,1.512-0.419,1.976-0.837
	c-2.667,0.625-3.426,0.53-4.576,0.374c5.519,1.529,8.371,3.421,8.94,5.977c0.279,1.255,0.072,2.338-0.413,3.175
	c-0.993-3.354-6.233-4.76-8.147-5.128c0,1.083-0.452,1.763-1.088,2.17l-3.381-0.541c0.396-0.485,0.536-1.133,0.379-1.741
	c-0.268-1.099-1.378-2.466-4.492-4.626c0.022-0.268,0.05-0.53,0.072-0.775c1.384,1.099,4.057,2.511,6.434,3.158
	c-1.892-0.809-4.883-2.333-6.367-3.839c0-0.056,0.011-0.117,0.017-0.167c0.017-0.185,0.028-0.369,0.039-0.553
	c2.729,2.059,5.078,2.528,5.938,2.528c-1.334-0.363-6.546-2.762-9.051-6.68c0.547,0.011,1.088,0.034,1.624,0.056
	c0.966,1.462,2.188,2.734,3.611,3.761c-1.133-1.065-2.026-2.354-2.634-3.789h-0.022c0.48-0.084,0.826-0.497,0.826-0.977
	c0-0.424-0.207-1.351-2.539-1.222h-0.111c-0.815-0.257-1.658-0.402-2.511-0.43c-0.106-0.67-0.636-0.988-0.904,0
	c-0.736,0.078-1.467,0.207-2.182,0.391c-0.524-0.045-1.172-0.045-1.607,0.101c-1.021,0.061-1.412,0.591-1.434,1.11
	c-0.022,0.563,0.413,1.032,0.971,1.055c-0.346,0.536-1.668,2.561-2.796,3.778c0.781-0.48,1.797-1.479,1.797-1.479l0.101-0.156
	c-0.117,0.396-0.218,0.742-0.318,0.971c-0.162,0.139-0.352,0.246-0.553,0.313c-0.044,0.022-0.329,0.145-0.352,0.357v0.084
	c-1.646,1.858-7.84,4.771-10.39,5.982c2.801-1.178,6.445-2.277,10.407-5.212c0.022,0.189,0.072,0.379,0.139,0.563
	c-1.423,1.429-3.538,2.589-4.833,3.521c1.998-0.803,3.867-2.176,5.123-3.024c0.072,0.084,0.156,0.156,0.251,0.212
	c0.15,0.039,0.313,0.062,0.469,0.073c0.123,0.117,0.234,0.246,0.329,0.385c-2.98,2.099-4.063,3.432-4.325,4.515
	c-0.162,0.62-0.011,1.278,0.402,1.769l-3.365,0.508c-0.653-0.407-1.116-1.094-1.122-2.193c-1.909,0.374-7.148,1.78-8.147,5.128
	c-0.48-0.837-0.686-1.914-0.413-3.169c0.563-2.562,3.415-4.453,8.945-5.982c-1.149,0.156-1.908,0.245-4.576-0.374
	c0.463,0.418,1.083,0.658,1.976,0.837c-4.509,1.468-6.59,3.616-7.277,5.781c-1.038,3.27,0.748,6.568,6.35,8.811
	c0,0-6.724-1.138-7.154-5.976c-2.561,5.089,2.634,5.329-1.122,10.909c3.326-0.982,4.219-3.013,4.431-3.9
	c1.272,1.3,2.918,2.042,4.582,2.979c1.663,0.943,0.971,2.807-0.201,3.477c-1.501,0.871-4.548,2.048-4.593,3.259
	c-0.313-1.747,0.536-2.879,1.741-3.811c-0.703-0.006-1.44-1.133-0.854-2.522c0.179,0.229,1.245,1.674,3.415,0.636
	c-1.049,0.223-2.662-0.234-3.398-1.568c-1.412,1.791-0.357,3.259-0.117,3.454c-0.413,0.547-2.014,2.768-0.77,4.978
	c0.279,0.491,1.083,1.278,2.188,0.92c-1.496-1.171-1.691-3.114,1.25-4.341c2.935-1.222,3.594-1.992,3.917-3.739l0.017-0.1
	c0.106,1.088,0.24,2.198,0.413,3.381c0.491,3.348,2.305,7.807,5.162,11.858c-1.596-0.669-3.822-0.938-6.228-0.932
	c-3.382,0-7.846-0.536-7.639-4.754c-3.359,4.592,0.731,5.959,0.731,5.959s-3.504,0.988-5.96-1.144
	c0.084,1.004,0.581,1.931,1.373,2.561c-0.318,0.039-3.795,0.491-5.647-2.427c1.172,7.226,12.137,3.415,13.845,2.55
	c-0.698,0.658-2.098,2.494-0.714,3.772c0.039-1.808,1.958-2.729,2.461-2.824c0.229,1.133,1.228,1.836,2.132,2.042
	c-0.212-1.211-0.056-3.192,3.967-2.974c1.937,0.106,3.839,1.395,5.441,2.645l0.134,0.106c1.239,1.188,2.601,2.243,4.063,3.147
	c1.451-0.893,2.795-1.942,4.029-3.12l0.262-0.207l5.435-2.645c4.029-0.217,4.18,1.764,3.968,2.975
	c0.91-0.218,1.909-0.916,2.137-2.042c0.497,0.101,2.422,1.027,2.456,2.824c1.389-1.278-0.017-3.114-0.709-3.761
	c1.702,0.859,12.667,4.67,13.839-2.556c-1.847,2.918-5.318,2.466-5.647,2.427 M478.894,22.273c-1.345-0.156-2.065-0.391-2.969-0.926
	c2.623,2.059,6.607,2.617,10.374,1.925c1.641-0.307,4.146-0.19,5.659,0.569c-0.48-0.943-3.008-2.656-4.303-2.835
	c1.568-2.511,0.413-4.302,2.98-5.904c-0.452-0.446-1.986-0.731-3.136,0.05c-0.53-0.614-1.54-1.507-3.013-1.663
	c-1.763-0.184-3.002,0.156-4.107,1.691c1.467-1.652,4.492-2.02,6.417-0.201c-3.063-1.495-5.217,1.457-5.401,4.66
	c-0.826-1.066-1.245-2.768-1.222-3.275c-1.094,0.106-2.087,1.049-2.171,2.6c-0.396-0.536-1.495-3.543,0.608-5.022
	c-0.608-0.709-0.82-1.496-0.63-2.02c1.361,0.826,3.409,0.597,5.647,1.133c-2.171-1.317-4.514-0.491-6.183-2.042
	c-0.368,0.988,0.028,2.042,0.536,2.857c-2.322,2.562-0.614,5.898,0.479,6.512c-0.134-1.172,0.302-2.572,1.289-3.097
	c0.224,1.668,1.697,3.237,1.937,3.661c0.028-0.826,0.318-4.141,1.496-4.045c0.731,0.061,1.3,1.439,1.032,2.438
	c-0.357,1.356-1.39,3.382-5.324,2.935 M466.584,20.51c0.156-0.335,0.458-1.317,0.714-2.082l-0.575-0.101
	c-0.335,0.798-0.876,2.076-0.943,2.283C466.049,20.588,466.316,20.554,466.584,20.51 M449.207,23.255
	c3.767,0.697,7.751,0.139,10.374-1.914c-0.904,0.53-1.624,0.77-2.969,0.92c-3.934,0.441-4.96-1.584-5.329-2.935
	c-0.262-0.999,0.307-2.383,1.033-2.438c1.188-0.095,1.467,3.22,1.495,4.045c0.24-0.424,1.713-1.986,1.942-3.655
	c0.987,0.519,1.423,1.919,1.289,3.097c1.1-0.614,2.801-3.951,0.48-6.518c0.508-0.814,0.904-1.864,0.536-2.852
	c-1.668,1.546-4.012,0.72-6.183,2.037c2.243-0.53,4.286-0.301,5.647-1.127c0.184,0.524-0.033,1.306-0.63,2.02
	c2.104,1.473,1.004,4.481,0.608,5.017c-0.084-1.545-1.077-2.489-2.171-2.595c0.022,0.502-0.396,2.204-1.222,3.27
	c-0.189-3.203-2.338-6.155-5.401-4.659c1.925-1.814,4.949-1.451,6.417,0.201c-1.099-1.523-2.355-1.88-4.107-1.685
	c-1.473,0.156-2.483,1.049-3.013,1.657c-1.144-0.781-2.679-0.491-3.136-0.05c2.561,1.602,1.412,3.393,2.98,5.904
	c-1.295,0.184-3.823,1.903-4.303,2.835c1.512-0.753,4.018-0.871,5.659-0.569 M468.922,21.324c-1.071,0.101-3.9,0.419-5.982,0.201
	c-0.324-0.151-0.603-0.391-0.803-0.692c0.028,0.418,0.178,0.814,0.43,1.149C463.543,22.122,468.214,21.698,468.922,21.324
	 M465.68,7.993c0.145,1.384,0.82,2.132,1.138,1.992c0.324-0.14-0.357-2.779,1.177-4.129c-0.708,1.457,0,2.612,0.251,3.984
	c0.167,0.915-0.112,2.282-0.569,2.528C467.215,12.619,465.183,11.157,465.68,7.993 M464.704,11.14
	c0.318,1.306,1.529,2.237,3.041,2.366c0.742,0.062,2.031-0.391,2.21-1.741c-1.284,0.463-0.642-0.714,0.246-1.178
	c0.893-0.463,1.685-1.797,0.775-3.398c-0.212,1.764-2.009,2.528-1.808,1.513c0.145-0.709,2.243-3.136,0.714-5.943
	c-0.218,0.854-0.156,1.658-0.854,1.496c-0.703-0.162-1.513-3.008-0.179-4.235c-1.451,0.156-2.466,1.88-2.277,3.058
	c0.184,1.183,0.77,2.645,0,3.097c-0.435,0.257-0.742,0.067-0.832-0.29c-0.162-0.675,0.039-2.014-1.306-2.483
	c0.904,1.813-0.391,5.089,0.262,7.74"/>
<path fill="#1D1D1B" d="M450.273,79.214h-0.368c-0.123-0.223-0.307-0.53-0.553-0.921c-0.301-0.452-0.692-0.842-1.138-1.144
	c-0.636-0.424-1.334-0.753-2.065-0.977c-0.859-0.285-1.953-0.424-3.275-0.424c-3.097,0-5.441,0.96-7.037,2.874
	c-1.596,1.914-2.394,4.626-2.394,8.142c0,0.318,0.017,0.759,0.039,1.328c0.034,0.636,0.112,1.267,0.234,1.892
	c0.151,0.759,0.374,1.496,0.664,2.209c0.329,0.815,0.77,1.574,1.306,2.266c0.329,0.458,0.709,0.876,1.122,1.256
	c0.447,0.407,0.938,0.764,1.457,1.066c0.575,0.334,1.188,0.591,1.825,0.759c0.742,0.195,1.507,0.285,2.266,0.279
	c1.016,0.011,2.026-0.117,3.002-0.385c1.54-0.441,2.946-1.245,4.107-2.344c0.491-0.463,0.959-0.955,1.4-1.473l0.402,0.262
	l-0.402,3.644c-2.801,1.546-5.904,2.322-9.319,2.322c-1.73,0.005-3.443-0.273-5.083-0.832c-1.541-0.519-2.958-1.345-4.174-2.427
	c-1.222-1.111-2.193-2.478-2.84-3.996c-0.697-1.596-1.049-3.426-1.049-5.491c-0.011-1.769,0.285-3.526,0.871-5.195
	c0.552-1.585,1.451-3.03,2.628-4.236c1.183-1.2,2.673-2.154,4.476-2.851c1.802-0.698,3.934-1.049,6.389-1.049
	c1.457-0.005,2.913,0.134,4.347,0.424c1.468,0.313,2.902,0.787,4.269,1.412L450.273,79.214z"/>
<path fill="#1D1D1B" d="M456.015,82.568c0-1.178-0.011-2.444-0.034-3.795c-0.022-1.35-0.134-2.918-0.329-4.704
	c0.34,0.045,0.792,0.095,1.361,0.145c0.564,0.05,0.982,0.073,1.256,0.073c0.43,0,0.859-0.022,1.289-0.073l1.322-0.145
	c-0.095,0.687-0.179,1.563-0.24,2.628c-0.062,1.071-0.101,2.204-0.128,3.41c-0.022,1.2-0.034,2.399-0.034,3.588v3.181
	c0,2.746,0.022,5.134,0.073,7.16c0.05,2.025,0.145,3.789,0.296,5.284c-0.419-0.022-0.849-0.067-1.289-0.128
	c-0.43-0.062-0.859-0.089-1.289-0.089c-0.447,0-0.887,0.028-1.328,0.089c-0.463,0.061-0.91,0.106-1.323,0.128
	c0.195-2.209,0.313-4.76,0.346-7.656C456.004,88.761,456.021,85.731,456.015,82.568z"/>
<path fill="#1D1D1B" d="M475.451,94.275c0,1.401,0.033,2.461,0.095,3.187c0.062,0.725,0.117,1.345,0.162,1.858l-1.579-0.145
	c-0.519-0.05-0.882-0.078-1.099-0.078c-0.335,0-0.664,0.022-0.994,0.056l-1.512,0.167c0.073-1.4,0.156-2.807,0.24-4.218
	c0.083-1.412,0.128-2.813,0.128-4.213l-0.034-10.273c0-0.687-0.011-1.362-0.022-2.026s-0.033-1.351-0.061-2.07h-1.842
	c-0.072,0-0.329,0.006-0.77,0.022c-0.446,0.011-0.954,0.022-1.529,0.033c-0.581,0.017-1.178,0.039-1.803,0.078
	c-0.625,0.034-1.172,0.078-1.641,0.128c0.246-0.893,0.246-1.836,0-2.729c0.731,0.05,1.523,0.089,2.372,0.111l2.578,0.073
	c0.871,0.028,1.725,0.039,2.562,0.039h2.321c1.546,0,3.131-0.011,4.749-0.039c1.618-0.022,3.314-0.083,5.083-0.184
	c-0.095,0.463-0.156,0.932-0.184,1.4c0,0.201,0.017,0.396,0.056,0.592c0.034,0.195,0.078,0.441,0.128,0.736
	c-1.105-0.123-2.282-0.201-3.538-0.223c-1.25-0.028-2.517-0.039-3.794-0.039c-0.022,0.664-0.039,1.339-0.05,2.026
	c-0.011,0.686-0.022,1.389-0.022,2.098v13.627V94.275z"/>
<path fill="#1D1D1B" d="M498.291,90.815c0,0.787,0.005,1.501,0.017,2.154c0.011,0.647,0.034,1.306,0.056,1.97
	c0.022,0.664,0.05,1.339,0.073,2.037c0.028,0.697,0.062,1.479,0.111,2.338l-1.278-0.145c-0.43-0.05-0.854-0.073-1.283-0.073
	c-0.418,0-0.837,0.028-1.255,0.073c-0.469,0.05-0.876,0.101-1.222,0.145c0.022-0.708,0.05-1.523,0.072-2.444
	c0.028-0.926,0.05-1.847,0.073-2.762c0.028-0.92,0.044-1.808,0.056-2.656c0.017-0.842,0.022-1.551,0.022-2.115l-2.176-3.755
	c-0.463-0.809-0.999-1.719-1.602-2.723c-0.597-1.01-1.211-2.026-1.842-3.058c-0.625-1.032-1.244-2.042-1.858-3.036
	c-0.608-0.999-1.149-1.897-1.618-2.707c0.686,0.073,1.255,0.128,1.713,0.162c0.452,0.039,0.887,0.056,1.306,0.056
	c0.441,0,0.921-0.011,1.434-0.034c0.53-0.028,1.061-0.089,1.585-0.184c0.463,1.004,0.921,1.964,1.362,2.874
	c0.44,0.904,0.909,1.836,1.4,2.795c0.491,0.96,1.032,1.981,1.629,3.075c0.592,1.093,1.289,2.327,2.082,3.699
	c0.787-1.35,1.445-2.483,1.958-3.404c0.514-0.92,0.988-1.802,1.412-2.65c0.43-0.848,0.871-1.764,1.328-2.746
	c0.452-0.982,1.01-2.193,1.674-3.644c0.296,0.05,0.62,0.101,0.977,0.151c0.385,0.05,0.77,0.072,1.161,0.072
	c0.301,0.006,0.603-0.017,0.904-0.056c0.217-0.033,0.435-0.089,0.642-0.167l-0.753,1.256c-0.357,0.591-0.737,1.211-1.144,1.858
	c-0.407,0.653-0.787,1.267-1.138,1.842c-0.357,0.58-0.608,0.977-0.759,1.2c-0.832,1.322-1.619,2.667-2.35,4.029
	c-0.731,1.367-1.496,2.707-2.282,4.035c-0.123,0.217-0.234,0.43-0.335,0.625c-0.089,0.173-0.139,0.363-0.145,0.552v1.362H498.291z"
	/>
<path fill="#1D1D1B" d="M431.685,103.834c0.005-0.234-0.005-0.474-0.034-0.714l0.146,0.028c0.044,0.006,0.089,0.011,0.134,0.011
	c0.067-0.005,0.134-0.017,0.201-0.033c-0.011,0.156-0.028,0.34-0.039,0.558c-0.017,0.218-0.028,0.452-0.033,0.703
	c-0.011,0.246-0.017,0.502-0.028,0.765c-0.006,0.262-0.017,0.519-0.022,0.765c0,0.273-0.045,0.547-0.134,0.809
	c-0.084,0.223-0.212,0.43-0.374,0.603c-0.167,0.173-0.374,0.301-0.597,0.379c-0.262,0.089-0.536,0.134-0.809,0.128
	c-0.675,0-1.167-0.156-1.468-0.458c-0.307-0.307-0.463-0.787-0.463-1.451c0-0.207,0.005-0.396,0.022-0.558
	c0.011-0.167,0.017-0.335,0.017-0.502c0-0.379-0.006-0.714-0.017-1.004c-0.011-0.29-0.017-0.541-0.028-0.742
	c0.056,0.011,0.117,0.017,0.179,0.022c0.056,0.011,0.117,0.011,0.173,0.011c0.05,0,0.101,0,0.145-0.011l0.146-0.022
	c-0.011,0.101-0.017,0.229-0.028,0.391c-0.005,0.156-0.017,0.34-0.022,0.542c-0.011,0.201-0.017,0.418-0.022,0.653
	s-0.005,0.474,0,0.725c0,0.156,0,0.313,0,0.469c0.005,0.162,0.022,0.318,0.044,0.475c0.028,0.15,0.073,0.301,0.134,0.441
	c0.061,0.139,0.145,0.268,0.256,0.374c0.123,0.112,0.268,0.195,0.424,0.246c0.207,0.067,0.418,0.101,0.63,0.095
	c0.212,0.006,0.424-0.033,0.625-0.111c0.156-0.062,0.296-0.156,0.413-0.279c0.112-0.117,0.195-0.257,0.257-0.408
	c0.061-0.15,0.1-0.307,0.128-0.469c0.028-0.167,0.044-0.334,0.05-0.497c0-0.167,0-0.324,0-0.463
	C431.691,104.671,431.691,104.18,431.685,103.834z"/>
<path fill="#1D1D1B" d="M435.564,105.999c-0.581-0.625-1.167-1.25-1.747-1.869c0,0.128-0.006,0.295-0.017,0.508
	c-0.005,0.212-0.005,0.497,0,0.859c0,0.095,0,0.212,0,0.352c0,0.139,0,0.284,0,0.435c0,0.156,0,0.318,0.011,0.474
	s0.011,0.302,0.011,0.436c0.006,0.134,0.011,0.251,0.017,0.352c0.006,0.1,0.011,0.173,0.011,0.207
	c-0.078-0.011-0.156-0.011-0.234-0.011c-0.083,0-0.167,0-0.246,0.011c0.006-0.045,0.017-0.128,0.028-0.246
	c0.011-0.123,0.022-0.268,0.028-0.436c0.011-0.167,0.022-0.352,0.033-0.552c0.011-0.195,0.017-0.396,0.022-0.591
	c0.011-0.195,0.017-0.391,0.022-0.581c0-0.184,0-0.357,0-0.502c0-0.435,0-0.803,0-1.11c0-0.313-0.006-0.547-0.011-0.703h0.106
	l0.882,0.955c0.313,0.334,0.619,0.669,0.926,1.004l0.876,0.938c0.273,0.295,0.519,0.547,0.726,0.753v-0.915
	c0-0.474-0.006-0.932-0.011-1.378c-0.006-0.446-0.022-0.865-0.045-1.255c0.073,0.022,0.151,0.034,0.229,0.034
	c0.073-0.006,0.145-0.017,0.212-0.034c-0.005,0.101-0.017,0.246-0.028,0.446c-0.011,0.195-0.022,0.408-0.033,0.625
	c-0.011,0.223-0.022,0.446-0.028,0.659c-0.011,0.217-0.017,0.391-0.017,0.524v0.402c0,0.156,0,0.313,0,0.474
	c0,0.156,0,0.324,0,0.502c0,0.167,0,0.324,0,0.469s0,0.273,0,0.379v0.223h-0.089C436.691,107.238,436.15,106.624,435.564,105.999z"
	/>
<path fill="#1D1D1B" d="M438.65,103.995c-0.011-0.29-0.028-0.58-0.039-0.876l0.167,0.028c0.106,0.011,0.218,0.011,0.324,0
	l0.167-0.028c-0.017,0.296-0.028,0.586-0.039,0.876c-0.011,0.285-0.017,0.575-0.017,0.871v1.155c0,0.296,0.005,0.591,0.017,0.876
	c0.011,0.29,0.022,0.575,0.039,0.848c-0.106-0.005-0.218-0.011-0.329-0.011c-0.117,0-0.223,0.006-0.329,0.011
	c0.011-0.273,0.028-0.558,0.039-0.848c0.011-0.285,0.017-0.58,0.017-0.876v-1.155C438.666,104.57,438.66,104.28,438.65,103.995z"/>
<path fill="#1D1D1B" d="M441.495,106.797c-0.15-0.374-0.307-0.764-0.474-1.177c-0.162-0.413-0.335-0.837-0.519-1.267
	c-0.179-0.43-0.346-0.843-0.508-1.228l0.184,0.022c0.112,0.017,0.223,0.017,0.335,0l0.184-0.022
	c0.095,0.295,0.207,0.608,0.324,0.932c0.123,0.329,0.246,0.659,0.379,0.993c0.128,0.34,0.268,0.681,0.407,1.027
	c0.14,0.346,0.279,0.692,0.424,1.032c0.078-0.184,0.167-0.391,0.262-0.619c0.095-0.223,0.189-0.463,0.285-0.709
	c0.095-0.24,0.189-0.491,0.284-0.748l0.273-0.731c0.089-0.229,0.167-0.446,0.24-0.653c0.067-0.201,0.128-0.374,0.179-0.524
	c0.162,0.044,0.334,0.044,0.502,0c-0.352,0.781-0.687,1.557-1.01,2.327c-0.324,0.765-0.636,1.535-0.932,2.299
	c-0.073-0.011-0.145-0.011-0.223-0.011c-0.073-0.006-0.145,0-0.223,0.011C441.769,107.483,441.64,107.165,441.495,106.797z"/>
<path fill="#1D1D1B" d="M445.011,103.985c-0.011-0.291-0.022-0.575-0.039-0.859l0.603,0.022c0.201,0.006,0.402,0.011,0.603,0.011
	c0.201,0,0.402-0.005,0.603-0.011l0.597-0.022c-0.028,0.134-0.028,0.268,0,0.401l-0.396-0.028l-0.374-0.022
	c-0.134-0.011-0.279-0.017-0.435-0.028c-0.156-0.005-0.346-0.005-0.563-0.005c0,0.145-0.006,0.279-0.022,0.407
	c-0.011,0.134-0.011,0.279-0.005,0.446c0,0.173,0,0.346,0,0.514c0,0.162,0,0.29,0,0.374c0.195,0,0.374,0,0.53,0
	s0.301-0.006,0.43-0.017l0.363-0.022c0.112-0.006,0.212-0.011,0.313-0.022c-0.011,0.067-0.017,0.14-0.017,0.207
	c0,0.072,0.005,0.139,0.017,0.207c-0.117-0.017-0.251-0.028-0.407-0.034c-0.156-0.011-0.313-0.017-0.469-0.017h-0.441h-0.324
	c0,0.039,0,0.083,0,0.128c0,0.05,0,0.106,0,0.178v0.67c0,0.256,0,0.463,0,0.625c0,0.162,0,0.29,0.011,0.379h0.469
	c0.167,0,0.335-0.006,0.502-0.011c0.162-0.006,0.318-0.017,0.469-0.028c0.128-0.006,0.256-0.022,0.379-0.05
	c-0.006,0.034-0.011,0.072-0.017,0.106c0,0.039,0,0.073,0,0.106c0,0.062,0.006,0.117,0.022,0.173
	c-0.201-0.005-0.402-0.011-0.603-0.011h-1.222c-0.201,0-0.407,0.005-0.614,0.011c0.017-0.284,0.028-0.569,0.039-0.854
	s0.017-0.586,0.017-0.898v-1.155C445.028,104.559,445.022,104.269,445.011,103.985z"/>
<path fill="#1D1D1B" d="M448.376,103.995c-0.011-0.29-0.022-0.58-0.033-0.876l0.379,0.028c0.128,0.006,0.257,0.006,0.385,0.011
	c0.134,0,0.262-0.005,0.385-0.022c0.128-0.011,0.257-0.017,0.385-0.017c0.179,0,0.363,0.017,0.536,0.056
	c0.162,0.034,0.313,0.089,0.452,0.179c0.123,0.084,0.229,0.195,0.301,0.324c0.156,0.34,0.146,0.736-0.033,1.06
	c-0.095,0.151-0.212,0.285-0.352,0.385s-0.29,0.179-0.446,0.24c-0.146,0.05-0.291,0.084-0.436,0.106l0.223,0.285
	c0.089,0.123,0.195,0.257,0.313,0.402l0.363,0.458l0.363,0.458c0.117,0.146,0.229,0.279,0.329,0.402
	c0.106,0.117,0.184,0.212,0.251,0.273c-0.067-0.011-0.134-0.011-0.201-0.011h-0.396c-0.067,0-0.134,0-0.195,0.011l-0.313-0.424
	c-0.14-0.19-0.291-0.391-0.458-0.603c-0.167-0.217-0.335-0.43-0.508-0.647c-0.173-0.207-0.33-0.385-0.469-0.542h-0.257v0.491
	c0,0.296,0.005,0.586,0.017,0.876s0.022,0.569,0.039,0.848c-0.106-0.011-0.217-0.011-0.329-0.011c-0.117,0-0.229,0-0.329,0.011
	c0.011-0.279,0.022-0.558,0.033-0.848s0.017-0.58,0.017-0.876v-1.155C448.393,104.57,448.387,104.28,448.376,103.995z
	 M449.152,105.279c0.072,0,0.156,0,0.246,0c0.145-0.006,0.295-0.017,0.435-0.05c0.145-0.028,0.29-0.083,0.413-0.162
	c0.128-0.084,0.234-0.19,0.318-0.318c0.084-0.15,0.128-0.324,0.123-0.502c0.005-0.151-0.028-0.296-0.101-0.43
	c-0.062-0.112-0.145-0.207-0.251-0.273c-0.101-0.067-0.218-0.117-0.335-0.14s-0.24-0.039-0.357-0.039
	c-0.156,0-0.29,0.005-0.391,0.011c-0.106,0.005-0.195,0.011-0.262,0.022l-0.028,0.736c-0.011,0.24-0.017,0.485-0.017,0.726v0.385
	C449.012,105.262,449.085,105.273,449.152,105.279z"/>
<path fill="#1D1D1B" d="M452.505,107.12c0.062,0.084,0.14,0.162,0.223,0.223c0.095,0.073,0.201,0.128,0.313,0.167
	c0.128,0.045,0.262,0.062,0.391,0.062c0.14,0.005,0.273-0.022,0.402-0.078c0.229-0.095,0.407-0.285,0.497-0.519
	c0.045-0.123,0.067-0.251,0.067-0.379c0.011-0.179-0.044-0.352-0.156-0.491c-0.111-0.123-0.245-0.229-0.396-0.301
	c-0.162-0.083-0.335-0.162-0.508-0.223c-0.179-0.067-0.346-0.151-0.508-0.251c-0.156-0.101-0.29-0.234-0.396-0.391
	c-0.112-0.19-0.167-0.408-0.156-0.625c0-0.179,0.033-0.352,0.1-0.514c0.067-0.156,0.167-0.29,0.296-0.401
	c0.134-0.117,0.29-0.207,0.463-0.263c0.195-0.067,0.396-0.095,0.603-0.095c0.189-0.005,0.379,0.022,0.558,0.078
	c0.162,0.05,0.307,0.134,0.441,0.24c-0.045,0.078-0.078,0.156-0.101,0.24c-0.028,0.089-0.056,0.195-0.084,0.324h-0.083
	c-0.022-0.073-0.056-0.14-0.089-0.207c-0.039-0.078-0.095-0.145-0.156-0.207c-0.067-0.062-0.145-0.117-0.234-0.156
	c-0.101-0.044-0.212-0.067-0.318-0.062c-0.123,0-0.24,0.017-0.352,0.062c-0.101,0.039-0.195,0.095-0.273,0.167
	c-0.078,0.078-0.14,0.167-0.184,0.268c-0.039,0.106-0.062,0.223-0.062,0.34c-0.011,0.178,0.044,0.357,0.156,0.497
	c0.111,0.128,0.246,0.234,0.391,0.313c0.167,0.089,0.335,0.162,0.513,0.223c0.173,0.056,0.34,0.134,0.502,0.223
	c0.15,0.089,0.285,0.218,0.391,0.363c0.111,0.179,0.167,0.385,0.156,0.591c0,0.201-0.034,0.402-0.112,0.586
	c-0.072,0.184-0.178,0.346-0.324,0.48c-0.145,0.145-0.323,0.251-0.519,0.318c-0.224,0.073-0.458,0.112-0.698,0.112
	c-0.229,0.005-0.458-0.034-0.675-0.112c-0.156-0.067-0.301-0.15-0.435-0.256c0.039-0.089,0.067-0.184,0.089-0.279
	c0.011-0.083,0.028-0.184,0.039-0.313h0.083C452.399,106.959,452.449,107.042,452.505,107.12z"/>
<path fill="#1D1D1B" d="M455.859,103.995c-0.011-0.29-0.022-0.58-0.039-0.876l0.167,0.028c0.106,0.011,0.217,0.011,0.323,0
	l0.167-0.028c-0.011,0.296-0.022,0.586-0.039,0.876c-0.011,0.285-0.017,0.575-0.017,0.871v1.155c0,0.296,0.005,0.591,0.017,0.876
	c0.017,0.29,0.028,0.575,0.039,0.848c-0.106-0.005-0.212-0.011-0.329-0.011c-0.112,0-0.223,0.006-0.329,0.011
	c0.017-0.273,0.028-0.558,0.039-0.848c0.011-0.285,0.017-0.58,0.017-0.876v-1.155C455.876,104.57,455.87,104.28,455.859,103.995z"/>
<path fill="#1D1D1B" d="M458.66,103.471h-0.369c-0.128,0-0.256,0.006-0.385,0.017l-0.368,0.022
	c-0.123,0.011-0.224,0.017-0.318,0.034c0.022-0.073,0.034-0.145,0.034-0.218c0-0.067-0.011-0.14-0.034-0.207l0.871,0.022
	c0.285,0.005,0.575,0.011,0.871,0.011s0.586,0,0.871-0.011l0.865-0.022c-0.017,0.067-0.028,0.14-0.034,0.212
	c0.006,0.073,0.017,0.146,0.034,0.212c-0.095-0.017-0.195-0.028-0.313-0.034l-0.368-0.022c-0.128-0.011-0.257-0.011-0.385-0.017
	h-0.368c-0.011,0.463-0.022,0.926-0.022,1.395v1.155c0,0.296,0.011,0.591,0.022,0.876c0.011,0.29,0.022,0.575,0.034,0.848
	c-0.101-0.005-0.212-0.011-0.33-0.011c-0.111,0-0.223,0.006-0.329,0.011c0.017-0.273,0.028-0.558,0.039-0.848
	c0.011-0.285,0.017-0.58,0.017-0.876v-1.155C458.688,104.397,458.677,103.934,458.66,103.471z"/>
<path fill="#1D1D1B" d="M462.421,105.525l-0.29-0.486l-0.335-0.558l-0.334-0.564l-0.285-0.469c-0.084-0.139-0.151-0.245-0.195-0.313
	l0.184,0.022c0.123,0.017,0.251,0.017,0.374,0l0.184-0.022c0.201,0.391,0.407,0.776,0.614,1.15c0.212,0.379,0.43,0.77,0.664,1.177
	c0.106-0.162,0.212-0.335,0.324-0.53c0.111-0.189,0.223-0.391,0.334-0.591c0.112-0.201,0.224-0.407,0.324-0.608
	c0.106-0.207,0.201-0.402,0.291-0.597c0.173,0.045,0.357,0.045,0.53,0c-0.217,0.33-0.413,0.625-0.58,0.888
	c-0.173,0.268-0.324,0.507-0.452,0.72c-0.134,0.217-0.246,0.413-0.346,0.586c-0.095,0.173-0.184,0.329-0.256,0.469
	c0,0.167,0,0.34,0,0.53c0,0.19,0.005,0.374,0.011,0.558c0,0.179,0.005,0.352,0.017,0.502c0.011,0.156,0.022,0.279,0.028,0.374
	c-0.106-0.011-0.218-0.011-0.335-0.011c-0.111,0-0.223,0-0.329,0.011c0.028-0.234,0.045-0.513,0.05-0.848
	c0.005-0.334,0.005-0.681,0-1.043L462.421,105.525z"/>
<path fill="#1D1D1B" d="M467.287,104.425c0.111-0.29,0.29-0.547,0.519-0.759c0.229-0.212,0.502-0.368,0.798-0.469
	c0.664-0.218,1.378-0.218,2.037,0c0.296,0.101,0.569,0.257,0.798,0.469c0.229,0.212,0.407,0.469,0.524,0.759
	c0.246,0.659,0.246,1.384,0,2.037c-0.234,0.586-0.72,1.032-1.317,1.222c-0.67,0.201-1.378,0.201-2.042,0
	c-0.603-0.184-1.083-0.636-1.317-1.216C467.042,105.809,467.042,105.084,467.287,104.425z M471.344,104.481
	c-0.083-0.251-0.217-0.48-0.396-0.675c-0.162-0.173-0.368-0.313-0.592-0.396c-0.474-0.167-0.993-0.167-1.467,0
	c-0.229,0.084-0.43,0.224-0.597,0.396c-0.173,0.195-0.307,0.424-0.391,0.675c-0.19,0.63-0.19,1.3,0,1.931
	c0.083,0.251,0.218,0.48,0.391,0.669c0.167,0.179,0.368,0.313,0.597,0.396c0.474,0.173,0.993,0.173,1.467,0
	c0.224-0.084,0.43-0.218,0.592-0.396c0.179-0.189,0.313-0.418,0.396-0.669C471.534,105.781,471.534,105.112,471.344,104.481
	L471.344,104.481z"/>
<path fill="#1D1D1B" d="M473.069,103.995c-0.011-0.29-0.022-0.58-0.034-0.876l0.603,0.028c0.201,0.006,0.402,0.006,0.603,0.011
	c0.201,0,0.401-0.005,0.614-0.011l0.669-0.028c-0.028,0.134-0.028,0.273,0,0.407c-0.123-0.017-0.268-0.028-0.435-0.039
	c-0.173-0.011-0.346-0.022-0.525-0.028l-0.513-0.017c-0.162,0-0.296,0-0.407,0c0,0.156,0,0.307-0.006,0.452
	c-0.005,0.145-0.005,0.29,0,0.435c0,0.156,0,0.301,0,0.43c0,0.134,0,0.273,0,0.418c0.296,0,0.586-0.005,0.876-0.017
	c0.29-0.011,0.575-0.028,0.859-0.05c-0.039,0.128-0.039,0.268,0,0.402c-0.112-0.011-0.24-0.022-0.38-0.028l-0.44-0.017
	c-0.156,0-0.313,0-0.469,0h-0.452v0.569c0,0.296,0.005,0.592,0.017,0.876c0.011,0.291,0.022,0.569,0.034,0.848
	c-0.101-0.011-0.212-0.011-0.329-0.011c-0.112,0-0.224,0-0.33,0.011c0.017-0.279,0.028-0.558,0.039-0.848
	c0.011-0.29,0.017-0.58,0.017-0.876v-1.172C473.085,104.57,473.085,104.28,473.069,103.995z"/>
<path fill="#1D1D1B" d="M478.308,103.995c-0.011-0.29-0.022-0.58-0.034-0.876l0.167,0.028c0.106,0.011,0.212,0.011,0.324,0
	l0.167-0.028c-0.017,0.296-0.028,0.586-0.039,0.876c-0.011,0.285-0.017,0.575-0.017,0.871c0,0.563,0,1.055,0,1.473
	c0,0.413,0.005,0.787,0.011,1.11c0.318,0,0.62,0,0.921-0.005c0.313-0.011,0.625-0.039,0.938-0.078
	c-0.017,0.067-0.028,0.134-0.033,0.201c0.005,0.062,0.017,0.123,0.033,0.185c-0.207-0.011-0.413-0.017-0.619-0.017h-1.233
	c-0.201,0-0.407,0.006-0.625,0.017c0.011-0.279,0.022-0.564,0.033-0.848c0.011-0.291,0.017-0.581,0.017-0.876v-1.161
	C478.325,104.57,478.32,104.28,478.308,103.995z"/>
<path fill="#1D1D1B" d="M481.5,104.425c0.117-0.29,0.296-0.547,0.519-0.759c0.234-0.212,0.502-0.368,0.798-0.469
	c0.664-0.218,1.378-0.218,2.042,0c0.295,0.101,0.569,0.257,0.798,0.469c0.223,0.212,0.402,0.469,0.519,0.759
	c0.246,0.659,0.246,1.384,0,2.037c-0.234,0.586-0.714,1.032-1.317,1.222c-0.664,0.201-1.373,0.201-2.037,0
	c-0.603-0.189-1.088-0.636-1.317-1.222C481.255,105.809,481.255,105.084,481.5,104.425z M485.557,104.481
	c-0.078-0.251-0.217-0.48-0.391-0.675c-0.167-0.173-0.368-0.313-0.597-0.396c-0.234-0.083-0.485-0.128-0.736-0.128
	s-0.497,0.044-0.731,0.128c-0.223,0.084-0.43,0.224-0.592,0.396c-0.178,0.195-0.313,0.424-0.396,0.675
	c-0.184,0.63-0.184,1.3,0,1.931c0.083,0.251,0.218,0.48,0.396,0.669c0.162,0.179,0.369,0.313,0.592,0.396
	c0.234,0.089,0.48,0.128,0.731,0.128s0.502-0.039,0.736-0.128c0.229-0.084,0.43-0.218,0.597-0.396
	c0.173-0.189,0.313-0.418,0.391-0.669C485.747,105.781,485.747,105.112,485.557,104.481L485.557,104.481z"/>
<path fill="#1D1D1B" d="M489.447,105.999c-0.586-0.625-1.167-1.25-1.752-1.869c0,0.128-0.005,0.295-0.017,0.508
	c-0.005,0.212-0.005,0.497,0,0.859c0,0.095,0,0.212,0,0.352c0,0.139,0,0.284,0,0.435c0,0.156,0,0.318,0.011,0.474
	s0.011,0.302,0.017,0.436c0.006,0.134,0.006,0.251,0.011,0.352c0.006,0.1,0.011,0.173,0.017,0.207
	c-0.078-0.011-0.156-0.011-0.234-0.011c-0.083,0-0.167,0-0.251,0.011c0.006-0.045,0.017-0.128,0.028-0.246
	c0.011-0.123,0.022-0.268,0.034-0.436c0.005-0.167,0.017-0.352,0.028-0.552c0.011-0.195,0.017-0.396,0.028-0.591
	c0.006-0.195,0.011-0.391,0.017-0.581c0.006-0.184,0-0.357,0-0.502c0-0.435,0-0.803,0-1.11c0-0.313-0.005-0.547-0.017-0.703h0.106
	l0.882,0.955c0.313,0.334,0.619,0.669,0.926,1.004l0.876,0.938c0.273,0.295,0.519,0.547,0.726,0.753v-0.915
	c0-0.474-0.005-0.932-0.011-1.378c-0.005-0.446-0.022-0.865-0.044-1.255c0.078,0.022,0.15,0.034,0.229,0.034
	c0.073-0.006,0.145-0.017,0.218-0.034c-0.011,0.101-0.022,0.246-0.034,0.446c-0.005,0.195-0.017,0.408-0.028,0.625
	c-0.017,0.223-0.022,0.446-0.033,0.659c-0.006,0.217-0.011,0.391-0.006,0.524v0.402c0,0.156,0,0.313,0,0.474
	c0,0.156,0,0.324,0,0.502c0,0.167,0,0.324,0,0.469s0,0.273,0,0.379v0.223h-0.095C490.573,107.238,490.027,106.624,489.447,105.999z"
	/>
<path fill="#1D1D1B" d="M492.527,103.995c-0.011-0.29-0.028-0.58-0.039-0.876l0.508,0.028c0.167,0.006,0.34,0.006,0.508,0.011
	c0.173,0,0.34-0.005,0.508-0.022c0.167-0.011,0.34-0.017,0.508-0.017c0.346-0.005,0.692,0.05,1.016,0.156
	c0.262,0.095,0.497,0.246,0.692,0.441c0.184,0.201,0.318,0.441,0.391,0.703c0.089,0.301,0.128,0.619,0.123,0.932
	c0.017,0.391-0.067,0.781-0.229,1.133c-0.14,0.291-0.346,0.547-0.591,0.748c-0.24,0.184-0.508,0.318-0.798,0.396
	c-0.268,0.078-0.552,0.117-0.831,0.117c-0.151,0-0.301,0-0.452,0s-0.301,0-0.452,0h-0.452c-0.146,0-0.296,0.006-0.452,0.017
	c0.017-0.279,0.028-0.563,0.039-0.848c0.011-0.29,0.017-0.58,0.017-0.876v-1.172C492.538,104.57,492.538,104.28,492.527,103.995z
	 M493.135,107.444c0.128,0.028,0.257,0.044,0.385,0.05c0.162,0.011,0.329,0.017,0.497,0.017c0.251,0,0.502-0.028,0.742-0.089
	c0.245-0.056,0.474-0.167,0.664-0.329c0.206-0.179,0.368-0.407,0.469-0.664c0.234-0.658,0.251-1.378,0.044-2.048
	c-0.083-0.229-0.218-0.435-0.396-0.597c-0.173-0.145-0.385-0.251-0.603-0.301c-0.251-0.056-0.513-0.089-0.77-0.083
	c-0.201,0-0.391,0.005-0.563,0.017c-0.179,0.017-0.335,0.033-0.474,0.05c-0.011,0.212-0.022,0.441-0.028,0.675
	c-0.005,0.234-0.011,0.474-0.011,0.714v1.161c0,0.491,0.017,0.971,0.044,1.434V107.444z"/>
<path fill="#1D1D1B" d="M497.588,104.425c0.117-0.29,0.296-0.547,0.519-0.759c0.234-0.212,0.502-0.368,0.798-0.469
	c0.664-0.218,1.378-0.218,2.042,0c0.295,0.101,0.569,0.257,0.798,0.469c0.223,0.212,0.402,0.469,0.519,0.759
	c0.246,0.659,0.246,1.384,0,2.037c-0.234,0.586-0.714,1.032-1.317,1.222c-0.664,0.201-1.373,0.201-2.037,0
	c-0.603-0.189-1.088-0.636-1.317-1.222C497.343,105.809,497.343,105.084,497.588,104.425z M501.639,104.481
	c-0.084-0.251-0.218-0.48-0.391-0.675c-0.167-0.173-0.368-0.313-0.597-0.396c-0.234-0.083-0.485-0.128-0.737-0.128
	c-0.251,0-0.497,0.044-0.731,0.128c-0.223,0.084-0.43,0.224-0.591,0.396c-0.179,0.195-0.313,0.424-0.396,0.675
	c-0.19,0.63-0.19,1.3,0,1.931c0.083,0.251,0.217,0.48,0.396,0.669c0.162,0.179,0.368,0.313,0.591,0.396
	c0.234,0.089,0.48,0.128,0.731,0.128c0.251,0,0.502-0.039,0.737-0.128c0.229-0.084,0.43-0.218,0.597-0.396
	c0.173-0.189,0.307-0.418,0.391-0.669C501.829,105.781,501.829,105.112,501.639,104.481z"/>
<path fill="#1D1D1B" d="M505.534,105.999c-0.586-0.625-1.172-1.25-1.752-1.869c0,0.128-0.005,0.295-0.017,0.508
	c-0.005,0.212-0.005,0.497,0,0.859c0,0.095,0,0.212,0,0.352c0,0.139,0,0.284,0,0.435c0,0.156,0,0.318,0.011,0.474
	s0.011,0.302,0.011,0.436c0.005,0.134,0.011,0.251,0.017,0.352c0.005,0.1,0.011,0.173,0.011,0.207
	c-0.078-0.011-0.156-0.011-0.234-0.011c-0.084,0-0.167,0-0.246,0.011c0.005-0.045,0.017-0.128,0.028-0.246
	c0.011-0.123,0.022-0.268,0.028-0.436c0.011-0.167,0.022-0.352,0.034-0.552c0.011-0.195,0.017-0.396,0.022-0.591
	c0.011-0.195,0.017-0.391,0.022-0.581c0-0.184,0-0.357,0-0.502c0-0.435,0-0.803,0-1.11c0-0.313-0.005-0.547-0.011-0.703h0.106
	l0.881,0.955c0.313,0.334,0.62,0.669,0.926,1.004l0.876,0.938c0.273,0.295,0.519,0.547,0.725,0.753v-0.915
	c0-0.474-0.005-0.932-0.011-1.378c-0.005-0.446-0.022-0.865-0.044-1.255c0.078,0.022,0.151,0.034,0.229,0.034
	c0.072-0.006,0.145-0.017,0.217-0.034c-0.011,0.101-0.022,0.246-0.033,0.446c-0.011,0.195-0.022,0.408-0.034,0.625
	c-0.011,0.223-0.017,0.446-0.028,0.659c-0.005,0.217-0.011,0.391-0.017,0.524v0.402c0,0.156,0,0.313,0,0.474
	c0,0.156,0,0.324,0,0.502c0,0.167,0,0.324,0,0.469s0,0.273,0,0.379v0.223h-0.089C506.656,107.238,506.115,106.624,505.534,105.999z"
	/>
<path fill="#B8081E" d="M480.641,114.274l0.748-1.055c0.24-0.34,0.463-0.658,0.664-0.954c0.207-0.296,0.369-0.541,0.502-0.748
	c0.089,0.022,0.184,0.033,0.273,0.039c0.089,0,0.179-0.017,0.262-0.039c-0.017,0.357-0.034,0.759-0.044,1.205
	c-0.011,0.447-0.011,0.904-0.011,1.373v0.893c0.156,0,0.301,0,0.446-0.022c0.14-0.017,0.257-0.028,0.346-0.044
	c-0.056,0.179-0.056,0.363,0,0.536c-0.117-0.017-0.229-0.028-0.346-0.033c-0.145,0-0.29-0.011-0.446-0.011v0.34
	c0,0.212,0,0.424,0.011,0.653c0.017,0.229,0.022,0.402,0.033,0.53c-0.106-0.011-0.229-0.011-0.357-0.011s-0.246,0-0.357,0.011
	c0.011-0.14,0.028-0.313,0.045-0.542c0.017-0.229,0.022-0.435,0.022-0.642v-0.34h-0.541l-0.737,0.011
	c-0.256,0-0.502,0.011-0.731,0.017l-0.524,0.022v-0.146c0.24-0.334,0.485-0.686,0.742-1.049 M482.415,112.26
	c-0.111,0.156-0.257,0.357-0.43,0.603l-0.536,0.765c-0.184,0.262-0.357,0.513-0.524,0.759c-0.162,0.246-0.29,0.446-0.385,0.597
	h1.892v-2.723H482.415L482.415,112.26z M476.155,116.696c0.139,0.062,0.284,0.089,0.43,0.089c0.273,0.011,0.536-0.078,0.753-0.24
	c0.218-0.173,0.391-0.391,0.508-0.636c0.134-0.279,0.234-0.575,0.285-0.882c0.067-0.324,0.095-0.647,0.095-0.977h-0.017
	c-0.117,0.223-0.29,0.413-0.502,0.553c-0.246,0.15-0.525,0.223-0.809,0.212c-0.424,0.022-0.843-0.128-1.155-0.418
	c-0.279-0.279-0.418-0.675-0.418-1.194c-0.006-0.24,0.039-0.474,0.128-0.692c0.078-0.207,0.201-0.391,0.357-0.547
	c0.162-0.162,0.357-0.285,0.569-0.363c0.234-0.095,0.491-0.14,0.748-0.14c0.234,0,0.469,0.045,0.692,0.128
	c0.223,0.089,0.418,0.229,0.575,0.408c0.179,0.212,0.313,0.458,0.396,0.725c0.111,0.346,0.162,0.714,0.156,1.077
	c0.005,0.43-0.045,0.854-0.156,1.267c-0.095,0.368-0.257,0.72-0.469,1.032c-0.195,0.279-0.452,0.514-0.753,0.681
	c-0.313,0.167-0.669,0.251-1.027,0.246c-0.128,0-0.257-0.011-0.379-0.039c-0.089-0.017-0.179-0.039-0.262-0.067
	c-0.017-0.061-0.039-0.134-0.067-0.217c-0.028-0.078-0.056-0.151-0.095-0.223l0.039-0.022c0.112,0.101,0.24,0.184,0.374,0.246
	 M477.89,112.076c-0.19-0.229-0.48-0.363-0.781-0.352c-0.313-0.006-0.608,0.145-0.787,0.396c-0.212,0.318-0.318,0.698-0.295,1.083
	c0,0.469,0.089,0.804,0.268,1.01c0.184,0.207,0.452,0.318,0.731,0.301c0.173,0.005,0.346-0.039,0.497-0.128
	c0.146-0.089,0.268-0.207,0.363-0.34c0.101-0.151,0.173-0.318,0.223-0.491c0.05-0.184,0.073-0.374,0.073-0.563
	c0.017-0.335-0.089-0.659-0.296-0.915 M470.937,114.553c0.223-0.307,0.542-0.524,0.91-0.625v-0.056
	c-0.112-0.028-0.218-0.073-0.318-0.128c-0.106-0.067-0.201-0.145-0.284-0.234c-0.089-0.101-0.162-0.218-0.212-0.34
	c-0.056-0.134-0.083-0.273-0.083-0.419c0-0.173,0.039-0.34,0.111-0.491c0.078-0.156,0.185-0.296,0.313-0.413
	c0.14-0.123,0.302-0.218,0.48-0.279c0.201-0.073,0.413-0.112,0.625-0.112c0.24,0,0.475,0.034,0.698,0.106
	c0.173,0.056,0.335,0.145,0.474,0.262c0.117,0.101,0.212,0.229,0.279,0.374c0.061,0.145,0.095,0.301,0.089,0.452
	c0.006,0.256-0.078,0.508-0.229,0.72c-0.167,0.223-0.402,0.391-0.675,0.469v0.056c0.117,0.022,0.229,0.056,0.34,0.101
	c0.14,0.056,0.273,0.14,0.385,0.24c0.128,0.112,0.234,0.251,0.313,0.408c0.095,0.195,0.139,0.413,0.134,0.63
	c0,0.246-0.044,0.497-0.145,0.726c-0.089,0.212-0.223,0.402-0.391,0.558c-0.162,0.15-0.357,0.273-0.575,0.346
	c-0.223,0.073-0.463,0.112-0.698,0.112c-0.246,0-0.485-0.028-0.714-0.095c-0.212-0.056-0.413-0.156-0.58-0.295
	c-0.162-0.134-0.29-0.301-0.379-0.491c-0.095-0.212-0.145-0.446-0.14-0.675c0-0.324,0.095-0.642,0.273-0.91 M473.308,112.349
	c-0.028-0.117-0.083-0.229-0.156-0.324c-0.072-0.095-0.167-0.173-0.273-0.229c-0.251-0.111-0.536-0.111-0.781,0
	c-0.111,0.05-0.201,0.128-0.273,0.229c-0.072,0.095-0.128,0.207-0.156,0.324c-0.033,0.134-0.05,0.268-0.05,0.401
	c0,0.128,0.017,0.263,0.05,0.391c0.028,0.123,0.084,0.234,0.156,0.335c0.073,0.095,0.167,0.173,0.273,0.229
	c0.246,0.111,0.536,0.111,0.781,0c0.106-0.056,0.201-0.134,0.273-0.229c0.073-0.101,0.128-0.212,0.156-0.335
	c0.034-0.128,0.05-0.262,0.05-0.391C473.359,112.617,473.342,112.483,473.308,112.349 M473.492,114.86
	c-0.05-0.156-0.123-0.301-0.223-0.43c-0.301-0.368-0.82-0.485-1.25-0.279c-0.134,0.067-0.257,0.162-0.346,0.279
	c-0.101,0.128-0.173,0.273-0.218,0.43c-0.106,0.357-0.106,0.742,0,1.1c0.044,0.156,0.117,0.301,0.218,0.43
	c0.301,0.374,0.82,0.491,1.255,0.285c0.134-0.073,0.251-0.167,0.346-0.285c0.095-0.128,0.173-0.273,0.217-0.43
	C473.593,115.602,473.593,115.218,473.492,114.86 M467.276,112.506c-0.056-0.101-0.145-0.19-0.246-0.257v-0.056
	c0.313-0.123,0.631-0.263,0.943-0.408c0.313-0.15,0.625-0.295,0.904-0.435l0.056,0.039c-0.022,0.357-0.039,0.708-0.05,1.06
	c-0.011,0.346-0.017,0.703-0.017,1.061v1.35c0,0.363,0.006,0.709,0.017,1.055c0.011,0.34,0.028,0.675,0.05,1.004
	c-0.061-0.005-0.128-0.011-0.189-0.011h-0.357c-0.067,0-0.128,0.005-0.195,0.011c0.028-0.334,0.045-0.669,0.056-1.01
	c0.005-0.34,0.011-0.692,0.011-1.049v-2.874L467.276,112.506z M461.724,111.769h-0.441c-0.156,0-0.313,0-0.463,0.017
	c-0.145,0.017-0.301,0.017-0.446,0.028c-0.145,0.011-0.273,0.028-0.385,0.045c0.022-0.084,0.039-0.173,0.039-0.262
	c-0.006-0.084-0.017-0.167-0.039-0.251l1.049,0.028c0.34,0.011,0.687,0.011,1.043,0.011c0.357,0,0.709,0,1.049-0.011l1.043-0.028
	c-0.022,0.083-0.034,0.173-0.039,0.262c0,0.083,0.017,0.167,0.039,0.251c-0.112-0.017-0.24-0.034-0.385-0.039
	c-0.139-0.011-0.29-0.022-0.446-0.034c-0.151-0.005-0.313-0.011-0.458-0.011h-0.446c-0.011,0.553-0.022,1.116-0.022,1.68v1.395
	c0,0.357,0.005,0.703,0.022,1.055c0.011,0.346,0.028,0.687,0.044,1.021c-0.128-0.011-0.257-0.017-0.396-0.017
	c-0.14,0-0.273,0-0.402,0.017c0.017-0.335,0.033-0.675,0.044-1.021c0.017-0.352,0.022-0.697,0.022-1.055v-1.395
	c0-0.563-0.005-1.127-0.022-1.68 M456.227,116.166c0.078,0.1,0.167,0.189,0.268,0.268c0.24,0.184,0.536,0.285,0.843,0.279
	c0.162,0,0.329-0.034,0.48-0.095c0.14-0.056,0.262-0.145,0.368-0.251c0.101-0.106,0.179-0.234,0.229-0.374
	c0.056-0.145,0.083-0.301,0.083-0.458c0.011-0.212-0.061-0.424-0.195-0.591c-0.128-0.151-0.29-0.273-0.469-0.363
	c-0.201-0.106-0.402-0.195-0.614-0.273s-0.413-0.179-0.603-0.296c-0.184-0.123-0.346-0.285-0.469-0.469
	c-0.14-0.229-0.207-0.497-0.19-0.764c-0.005-0.212,0.034-0.43,0.117-0.625c0.084-0.185,0.201-0.352,0.352-0.486
	c0.167-0.139,0.357-0.246,0.558-0.313c0.234-0.078,0.48-0.117,0.731-0.117c0.229,0,0.452,0.028,0.67,0.095
	c0.195,0.067,0.374,0.162,0.53,0.284c-0.05,0.095-0.089,0.195-0.123,0.296c-0.034,0.106-0.062,0.234-0.095,0.391h-0.106
	c-0.028-0.083-0.067-0.167-0.106-0.251c-0.05-0.089-0.111-0.173-0.189-0.246c-0.078-0.078-0.173-0.14-0.279-0.19
	c-0.123-0.056-0.256-0.083-0.391-0.078c-0.139,0-0.279,0.022-0.413,0.073c-0.123,0.044-0.234,0.117-0.335,0.207
	c-0.095,0.089-0.167,0.201-0.218,0.324c-0.05,0.128-0.078,0.262-0.078,0.402c-0.011,0.217,0.056,0.43,0.19,0.603
	c0.134,0.15,0.296,0.273,0.474,0.368c0.195,0.106,0.402,0.195,0.614,0.268c0.212,0.072,0.413,0.173,0.608,0.29
	c0.19,0.112,0.346,0.257,0.475,0.435c0.134,0.212,0.201,0.463,0.189,0.714c0,0.24-0.044,0.48-0.134,0.703s-0.223,0.418-0.391,0.581
	c-0.179,0.173-0.396,0.301-0.625,0.385c-0.273,0.089-0.558,0.14-0.843,0.134c-0.279,0.011-0.552-0.039-0.814-0.134
	c-0.19-0.078-0.363-0.178-0.525-0.307c0.045-0.106,0.078-0.218,0.106-0.335c0.017-0.101,0.033-0.229,0.05-0.385h0.095
	c0.05,0.106,0.106,0.207,0.178,0.296 M451.808,112.383c-0.011-0.346-0.028-0.692-0.045-1.032l0.731,0.028
	c0.24,0,0.48,0.011,0.726,0.011c0.24,0,0.48,0,0.72-0.011l0.726-0.028c-0.017,0.078-0.028,0.156-0.022,0.24
	c0,0.084,0.006,0.162,0.022,0.246l-0.474-0.033l-0.452-0.034c-0.156-0.011-0.335-0.022-0.524-0.028
	c-0.19-0.011-0.419-0.011-0.681-0.011c0,0.173-0.011,0.335-0.022,0.491c-0.006,0.156-0.011,0.334-0.011,0.536
	c0,0.201,0,0.418,0,0.619c0,0.195,0,0.352,0,0.452c0.24,0,0.452,0,0.642-0.011c0.19-0.005,0.363-0.005,0.519-0.017l0.435-0.022
	c0.128-0.011,0.257-0.017,0.374-0.028c-0.017,0.078-0.022,0.162-0.022,0.251c0,0.078,0.006,0.162,0.022,0.24
	c-0.14-0.017-0.301-0.028-0.491-0.039c-0.184-0.011-0.368-0.017-0.558-0.022h-0.524H452.5c0,0.05,0,0.101,0,0.156s0,0.128,0,0.218
	v0.803c0,0.307,0,0.558,0,0.759c0,0.201,0,0.352,0.011,0.458h0.569c0.207,0,0.408,0,0.603-0.017
	c0.201-0.011,0.385-0.017,0.563-0.028c0.15-0.011,0.301-0.033,0.452-0.061c-0.011,0.039-0.017,0.083-0.017,0.123
	c0,0.05,0,0.089,0,0.128c0,0.067,0.006,0.14,0.022,0.207c-0.24-0.011-0.485-0.011-0.726-0.011h-1.473c-0.24,0-0.491,0-0.736,0.011
	c0.017-0.34,0.028-0.687,0.044-1.032c0.011-0.341,0.022-0.692,0.022-1.049v-1.395c0-0.357-0.011-0.708-0.022-1.055"/>
<path fill="#B8081E" d="M448.186,114.732h-20.011c-0.167,0.039-0.335-0.072-0.374-0.24c-0.034-0.167,0.072-0.335,0.24-0.374
	c0.045-0.005,0.089-0.005,0.134,0h20.011c0.167,0.039,0.273,0.207,0.24,0.374C448.398,114.615,448.303,114.704,448.186,114.732z"/>
<path fill="#B8081E" d="M507.415,114.743h-20.011c-0.173,0-0.313-0.139-0.313-0.313c0-0.173,0.14-0.318,0.313-0.318h20.011
	c0.173,0,0.313,0.145,0.313,0.318C507.727,114.604,507.588,114.743,507.415,114.743z"/>
<path fill="#1D1D1B" d="M507.482,70.52h-79.362c-0.173,0-0.313-0.14-0.313-0.313c0-0.173,0.14-0.313,0.313-0.313h79.362
	c0.173,0,0.313,0.139,0.313,0.313C507.794,70.38,507.655,70.52,507.482,70.52z"/>
</svg>
