<?xml version="1.0" encoding="utf-8"?>
<!-- Generator: Adobe Illustrator 16.0.0, SVG Export Plug-In . SVG Version: 6.00 Build 0)  -->
<!DOCTYPE svg PUBLIC "-//W3C//DTD SVG 1.1//EN" "http://www.w3.org/Graphics/SVG/1.1/DTD/svg11.dtd">
<svg version="1.1" id="Шар_1" xmlns="http://www.w3.org/2000/svg" xmlns:xlink="http://www.w3.org/1999/xlink" x="0px" y="0px"
	 width="100px" height="100px" viewBox="1816.595 -670.344 100 100" enable-background="new 1816.595 -670.344 100 100"
	 xml:space="preserve">
<circle cx="1866.595" cy="-620.344" r="50"/>
<polygon fill="#FFFFFF" points="1844.594,-649.004 1844.594,-648.99 1844.606,-649.004 "/>
<polygon fill="#FFFFFF" points="1855.105,-636.685 1855.102,-636.682 1855.105,-636.682 "/>
<polygon fill="#FFFFFF" points="1855.099,-636.679 1855.102,-636.682 1855.096,-636.682 "/>
<polygon fill="#FFFFFF" points="1844.619,-649.018 1844.606,-649.004 1844.635,-649.004 "/>
<g>
	<rect x="1827.049" y="-628.002" fill="#FFFFFF" width="2.291" height="12.322"/>
	<polygon fill="#FFFFFF" points="1844.062,-620.761 1838.134,-626.01 1835.884,-628.002 1835.867,-628.016 1835.866,-628.015 
		1835.844,-628.033 1835.842,-628.002 1835.842,-628.002 1835.842,-627.987 1835.842,-624.978 1835.842,-615.679 1838.134,-615.679 
		1838.134,-622.949 1844.062,-617.7 1846.345,-615.679 1846.348,-615.677 1846.351,-615.679 1846.353,-615.679 1846.353,-615.682 
		1846.353,-618.733 1846.353,-628.002 1844.062,-628.002 	"/>
	<polygon fill="#FFFFFF" points="1868.895,-628.002 1868.84,-628.002 1868.84,-615.679 1868.895,-615.679 1871.131,-615.679 
		1871.187,-615.679 1871.187,-628.002 1871.131,-628.002 	"/>
	<polygon fill="#FFFFFF" points="1857.557,-620.351 1853.794,-628.002 1851.502,-628.002 1856.411,-618.021 1857.557,-615.692 
		1858.703,-618.021 1863.612,-628.002 1861.321,-628.002 	"/>
	<path fill="#FFFFFF" d="M1901.233-625.672l-1.146-2.33l-1.146,2.33l-4.909,9.98h2.292l0.925-1.88h5.677l0.926,1.88h2.291
		L1901.233-625.672z M1898.261-619.632l1.826-3.711l1.825,3.711H1898.261z"/>
	<path fill="#FFFFFF" d="M1890.092-621.638c0-3.626-2.95-6.576-6.576-6.576c-3.627,0-6.576,2.95-6.576,6.576
		c0,3.626,2.949,6.576,6.576,6.576c0.309,0,0.613-0.022,0.912-0.063l1.409,2.651h2.641l-2.04-3.274
		C1888.601-616.826,1890.092-619.061,1890.092-621.638z M1883.515-617.354c-2.363,0-4.285-1.922-4.285-4.284
		c0-2.363,1.922-4.285,4.285-4.285c2.362,0,4.284,1.922,4.284,4.285C1887.8-619.276,1885.878-617.354,1883.515-617.354z"/>
</g>
<g>
	<path fill="#FFFFFF" d="M1907.304-628.817h-0.496v1.344h-0.122v-1.344h-0.495v-0.104h1.113V-628.817z"/>
	<path fill="#FFFFFF" d="M1907.904-628.922l0.534,1.278l0.536-1.278h0.163v1.448h-0.122v-0.632l0.01-0.645l-0.539,1.277h-0.095
		l-0.536-1.272l0.01,0.639v0.633h-0.123v-1.448H1907.904L1907.904-628.922z"/>
</g>
</svg>
