<svg version="1.1" fill-opacity="0.12" xmlns="http://www.w3.org/2000/svg" xmlns:xlink="http://www.w3.org/1999/xlink" x="0px" y="0px"
	 width="84px" height="84px" viewBox="-12 -12.438 48 48" enable-background="new -12 -12.438 48 48" xml:space="preserve">
<g>
	<path d="M12,7.563c-2.76,0-5,2.239-5,5c0,2.76,2.24,5,5,5c2.76,0,5-2.24,5-5C17,9.802,14.76,7.563,12,7.563z M12,15.762
		c-1.767,0-3.2-1.433-3.2-3.199c0-1.768,1.433-3.2,3.2-3.2c1.768,0,3.2,1.433,3.2,3.2S13.768,15.762,12,15.762z"/>
	<path d="M12-12.438c-13.255,0-24,10.745-24,24c0,13.254,10.745,24,24,24s24-10.746,24-24C36-1.693,25.255-12.438,12-12.438z
		 M22,18.563c0,1.101-0.9,2-2,2H4c-1.1,0-2-0.899-2-2v-12c0-1.101,0.9-2,2-2h3.17l1.83-2h6l1.83,2H20c1.1,0,2,0.899,2,2V18.563z"/>
</g>
</svg>
