<svg version="1.1" xmlns="http://www.w3.org/2000/svg" xmlns:xlink="http://www.w3.org/1999/xlink" x="0px" y="0px"
	 width="24px" height="24px" viewBox="0 0 24 24" enable-background="new 0 0 24 24" xml:space="preserve">
<path d="M18,16.08c-0.76,0-1.439,0.3-1.96,0.77L8.91,12.7C8.96,12.47,9,12.24,9,12s-0.04-0.47-0.09-0.7l7.05-4.11
	C16.5,7.69,17.21,8,18,8c1.66,0,3-1.34,3-3s-1.34-3-3-3s-3,1.34-3,3c0,0.24,0.04,0.47,0.09,0.7L8.04,9.81C7.5,9.31,6.79,9,6,9
	c-1.66,0-3,1.34-3,3s1.34,3,3,3c0.79,0,1.5-0.311,2.04-0.811l7.12,4.16c-0.051,0.211-0.08,0.43-0.08,0.65
	c0,1.609,1.311,2.92,2.92,2.92s2.92-1.311,2.92-2.92S19.609,16.08,18,16.08z"/>
</svg>
