<?xml version="1.0" standalone="no"?>
<!DOCTYPE svg PUBLIC "-//W3C//DTD SVG 1.1//EN" "http://www.w3.org/Graphics/SVG/1.1/DTD/svg11.dtd" >
<svg xmlns="http://www.w3.org/2000/svg">
<metadata></metadata>
<defs>
<font id="smytheregular" horiz-adv-x="772" >
<font-face units-per-em="2048" ascent="1638" descent="-410" />
<missing-glyph horiz-adv-x="307" />
<glyph horiz-adv-x="0" />
<glyph unicode="&#xd;" horiz-adv-x="309" />
<glyph unicode=" "  horiz-adv-x="307" />
<glyph unicode="&#x09;" horiz-adv-x="307" />
<glyph unicode="&#xa0;" horiz-adv-x="307" />
<glyph unicode="!" horiz-adv-x="383" d="M71 1321v5h241v-5q-12 -25 -21.5 -72.5t-17 -110.5t-13 -137t-9.5 -151t-7.5 -154t-6.5 -145.5t-6 -125t-7 -92.5h-71q-2 39 -4.5 97t-6 128t-7 147t-8 154t-10.5 150.5t-12.5 135t-15 107.5t-18.5 69zM103 91q0 38 26 64t64 26t64.5 -26t26.5 -64t-26.5 -64.5 t-64.5 -26.5t-64 26.5t-26 64.5z" />
<glyph unicode="&#x22;" horiz-adv-x="542" d="M37 1327h203q-9 -36 -18.5 -81t-17.5 -102t-14 -129t-9 -163h-84q-2 91 -7 163.5t-12.5 130t-17.5 102t-23 79.5zM299 1327h203q-9 -36 -18.5 -81t-17.5 -102t-14 -129t-9 -163h-84q-2 91 -7 163.5t-12.5 130t-17.5 102t-23 79.5z" />
<glyph unicode="#" horiz-adv-x="847" d="M47 395v113q37 -3 100 -6l77 402h-82v113q19 -2 44 -3t59 -3l61 316h128l-62 -318h77h58h44.5h37.5l61 318h128l-61 -315q51 1 90 6v-123q-22 2 -49.5 3t-62.5 2l-76 -398q27 2 50 3.5t43 3.5v-123q-23 2 -51 3t-64 2l-75 -391h-128l76 394h-33t-43 0.5t-58.5 0.5h-81.5 l-76 -395h-128l76 395h-79zM274 500h77.5h57.5h44.5h36.5l78 403h-34t-42.5 0.5t-58.5 0.5h-81z" />
<glyph unicode="$" horiz-adv-x="661" d="M37 108l141 199l4 -3q-8 -18 -11 -35.5t-3 -34.5q0 -31 10.5 -58t27 -46.5t38 -30.5t43.5 -11q29 0 54 12.5t43 33.5t28 47t10 53q0 74 -26 140t-65 128.5t-84.5 124.5t-84.5 126.5t-65 134.5t-26 150q0 57 21.5 109t61.5 92t97.5 63.5t130.5 23.5q57 0 119 -32.5 t123 -93.5l-141 -229l-4 3q10 40 10 77q0 41 -11.5 72.5t-29 52.5t-38.5 32t-41 11q-32 0 -59 -11.5t-46.5 -31t-30.5 -46.5t-11 -57q0 -62 27 -127.5t67.5 -132.5t87.5 -136t87.5 -138t67.5 -137.5t27 -135.5q0 -58 -20.5 -109.5t-60 -90.5t-96.5 -61.5t-130 -22.5 q-57 0 -119 32.5t-123 93.5zM285 -128v1536h71v-1536h-71z" />
<glyph unicode="%" horiz-adv-x="1370" d="M40 951q0 96 22.5 170t62.5 124.5t93.5 76.5t115.5 26q59 0 111.5 -26t91.5 -76.5t61.5 -124.5t22.5 -170t-22.5 -170.5t-61.5 -125t-91.5 -77t-111.5 -26.5q-62 0 -115.5 26.5t-93.5 77t-62.5 125t-22.5 170.5zM191 951q0 -154 37 -233t106 -79q68 0 102 79t34 233 q0 153 -34 231.5t-102 78.5q-69 0 -106 -78.5t-37 -231.5zM254 223l784 928l131 1l-784 -928zM747 371q0 96 22.5 170t62.5 124.5t93.5 76.5t115.5 26q59 0 111.5 -26t91.5 -76.5t61.5 -124.5t22.5 -170t-22.5 -170.5t-61.5 -125t-91.5 -77t-111.5 -26.5q-62 0 -115.5 26.5 t-93.5 77t-62.5 125t-22.5 170.5zM898 371q0 -154 37 -233t106 -79q68 0 102 79t34 233q0 153 -34 231.5t-102 78.5q-69 0 -106 -78.5t-37 -231.5z" />
<glyph unicode="&#x26;" horiz-adv-x="1107" d="M29 0v5q57 19 81 63.5t28 104.5q10 155 13 288.5t3 259.5q0 112 -1.5 222.5t-13.5 230.5q-5 54 -32 92.5t-78 55.5v5h571q-5 -22 -13 -55q-7 -29 -16.5 -72.5t-23.5 -105.5q5 42 -7 75t-45 49q-42 20 -89.5 26.5t-104.5 8.5q-6 -101 -9 -195.5t-4 -193.5h32t57.5 0.5 t72.5 0.5t77 0.5t71.5 0.5h56.5q0 51 -1.5 94t-4.5 74.5t-7 49.5t-10 18v5l281 130q-26 -32 -48 -62t-37.5 -70.5t-24 -98t-8.5 -142.5h70q55 0 93.5 1.5t63.5 3.5q29 2 47 5l-40 -130q-1 1 -8 7.5t-25.5 14.5t-50.5 14.5t-81 6.5h-72q0 -18 -0.5 -19.5t-0.5 -0.5t0 -1v-21 q0 -87 0.5 -155.5t1 -129t1 -120t0.5 -129.5t23 -100t52 -30q16 0 32 10.5t29 30t21 46t8 58.5q0 26 -6 43l3 2l127 -215q-65 -45 -120.5 -64.5t-103.5 -19.5q-52 0 -94 28h-736zM288 787q0 -175 3 -348.5t9 -342.5q33 1 80.5 2.5t100 4t104 6.5t91.5 11q-12 32 -18 67 t-6 71q0 61 1 107.5t1.5 87.5t1.5 80.5t1 87.5v63.5v37t-0.5 27t-0.5 34.5q-22 0 -55.5 0.5t-72 1t-77.5 0.5t-72.5 0.5t-58 1t-32.5 0.5z" />
<glyph unicode="'" horiz-adv-x="280" d="M37 1327h203q-9 -36 -18.5 -81t-17.5 -102t-14 -129t-9 -163h-84q-2 91 -7 163.5t-12.5 130t-17.5 102t-23 79.5z" />
<glyph unicode="(" horiz-adv-x="474" d="M66 648q0 84 9 167t27 158.5t45.5 139.5t63.5 111t81 73.5t99 26.5q30 0 58 -7v-16v-27.5t-0.5 -26t-1.5 -11.5q-39 0 -71 -23.5t-58 -65.5t-45.5 -99t-33 -123.5t-20 -140t-6.5 -147.5q0 -110 14.5 -213t43.5 -183t73.5 -128.5t104.5 -48.5v-82q-28 -7 -57 -7 q-55 0 -100 26.5t-81.5 73t-63.5 110.5t-45 139t-27 157.5t-9 166.5z" />
<glyph unicode=")" horiz-adv-x="474" d="M25 -18v82q60 0 104.5 48.5t73.5 128.5t43.5 183t14.5 213q0 74 -6.5 147.5t-20 140t-33 123.5t-45.5 99t-58.5 65.5t-70.5 23.5q-2 0 -2 11.5v26v27.5v16q28 7 58 7q54 0 99 -26.5t81 -73.5t63.5 -111t45.5 -139.5t27 -158.5t9 -167t-9 -166.5t-27 -157.5t-45 -139 t-63.5 -110.5t-82 -73t-99.5 -26.5q-29 0 -57 7z" />
<glyph unicode="*" horiz-adv-x="939" d="M44 539v203q26 -6 59.5 -14.5t76 -17t94.5 -15.5t115 -10q-38 58 -72.5 103.5t-64.5 81t-55 62.5t-44 49l169 95q10 -28 22 -64.5t28.5 -80.5t39.5 -96.5t56 -112.5q33 60 56 112.5t40 96.5t28.5 80.5t22.5 64.5l169 -95q-20 -22 -46.5 -49t-58 -62.5t-67.5 -81 t-75 -104.5q66 3 119.5 10t97 16t78.5 17.5t62 14.5v-203q-28 6 -63 14.5t-78.5 17.5t-97.5 16t-120 10q40 -60 76 -105.5t67.5 -81t58 -62.5t47.5 -49l-169 -95q-10 27 -22 63t-29 80t-40 95.5t-56 111.5q-33 -60 -56 -111.5t-40 -95.5t-29 -80l-21 -63l-169 95 q20 22 45.5 49t55.5 62.5t64.5 81t73.5 105.5q-64 -3 -116.5 -10t-95 -16t-76 -17.5t-60.5 -14.5z" />
<glyph unicode="+" horiz-adv-x="582" d="M53 468v142q26 -6 70.5 -11t113.5 -7q0 64 -3 109.5t-15 75.5h142q-8 -28 -12.5 -72t-6.5 -113q65 0 110.5 3t75.5 15v-142q-28 7 -72 11.5t-114 6.5q2 -71 6.5 -115t12.5 -69h-142q5 27 10 71.5t7 112.5q-70 -1 -114 -5.5t-69 -12.5z" />
<glyph unicode="," horiz-adv-x="307" d="M42 -288q12 79 17 142t5.5 113t-2.5 89t-7 71h203q-17 -60 -37 -128q-17 -58 -41.5 -132.5t-53.5 -154.5h-84z" />
<glyph unicode="-" horiz-adv-x="574" d="M79 457v173q28 -11 79 -19.5t134 -8.5q74 0 122.5 3.5t79.5 25.5v-183q-28 13 -75.5 21t-128.5 8q-86 0 -135.5 -2.5t-75.5 -17.5z" />
<glyph unicode="." horiz-adv-x="294" d="M47 71q0 21 8 39.5t21.5 32.5t31.5 22t39 8t39.5 -8t32.5 -22t22 -32.5t8 -39.5t-8 -39t-22 -31.5t-32.5 -21.5t-39.5 -8q-42 0 -71 29t-29 71z" />
<glyph unicode="/" horiz-adv-x="483" d="M50 0l256 1327h128l-256 -1327h-128z" />
<glyph unicode="0" horiz-adv-x="865" d="M64 649q0 160 29 284.5t79 209.5t118.5 129.5t146.5 44.5q75 0 141.5 -44.5t116 -129.5t78.5 -209.5t29 -284.5q0 -156 -30 -279.5t-80.5 -209.5t-116.5 -132t-138 -46q-80 0 -148 45.5t-118 131t-78.5 209.5t-28.5 281zM220 638q0 -69 5.5 -135.5t17 -126.5t28.5 -110.5 t40 -87.5t51.5 -57.5t63.5 -20.5q54 0 94.5 46t68 122.5t41 175t13.5 202.5q0 105 -14 204.5t-41 177.5t-67.5 125t-94.5 47q-50 0 -88.5 -48t-64.5 -127t-39.5 -180t-13.5 -207zM302 571v131q17 -10 49.5 -18t85.5 -8q44 0 74 7.5t49 19.5v-131q-17 12 -46.5 19.5 t-77.5 7.5q-55 0 -86.5 -8.5t-47.5 -19.5z" />
<glyph unicode="1" horiz-adv-x="458" d="M-4 1197q0 5 18 15.5t49 24.5l261 110q-6 -83 -9 -177.5t-4 -195.5t-0.5 -207.5t0.5 -212.5q0 -103 2 -204t8 -201q3 -54 27.5 -90.5t75.5 -53.5v-5h-361v5q51 17 73 56t26 92q7 161 11.5 299t4.5 269q0 148 -0.5 244t-7 151.5t-21.5 77t-43 21.5q-9 0 -24.5 -3.5 t-31.5 -7t-29.5 -7t-18.5 -3.5q-6 0 -6 3z" />
<glyph unicode="2" horiz-adv-x="673" d="M16 126q28 65 74.5 140t99 157t106 167.5t97 170.5t70.5 168t27 159q0 33 -11 57t-29 40t-42 24t-49 8q-30 0 -59.5 -10.5t-53.5 -31.5t-38.5 -52t-14.5 -72q0 -37 10 -77l-4 -3l-141 229q59 63 139 94.5t160 31.5q54 0 104 -15t88 -45t60.5 -75.5t22.5 -106.5 q0 -65 -21 -139.5t-57 -155.5t-83.5 -167t-100 -173t-107 -173.5t-103.5 -169.5h235q39 0 68.5 12t50.5 31.5t34 45t18 51.5h5l-1 -246q-29 0 -78.5 -0.5t-106.5 -0.5h-218q-55 0 -106 1z" />
<glyph unicode="3" horiz-adv-x="690" d="M44 301l219 60l1 -5q-36 -21 -61 -55t-25 -64q0 -37 10 -66.5t27 -50.5t41 -32.5t53 -11.5q78 0 123.5 82t45.5 250q0 62 -12 111t-41 83.5t-77.5 53.5t-121.5 21v106q64 1 107 19t68.5 51t36 80.5t10.5 108.5q0 51 -12 89t-32.5 62.5t-47 37t-55.5 12.5q-33 0 -55.5 -8 t-37 -21.5t-21 -30.5t-6.5 -34q0 -32 20.5 -63t62.5 -52l-1 -5l-219 20q0 76 25.5 132.5t65 93.5t87.5 55t94 18q59 0 110.5 -20t89.5 -59.5t60 -97.5t22 -133q0 -112 -43.5 -190t-116.5 -123q87 -45 138.5 -123t51.5 -190q0 -106 -23.5 -188t-66 -138.5t-101.5 -85.5 t-130 -29q-46 0 -93 19.5t-84.5 60t-61.5 102.5t-24 148z" />
<glyph unicode="4" horiz-adv-x="808" d="M-4 446q26 30 58.5 82t68 116.5t72 136.5t71.5 143q81 165 167 356l168 67q-11 -143 -11.5 -310t-0.5 -353v-130t1 -128q39 0 70.5 12t54.5 31.5t37.5 45t19.5 51.5h5v-247h-186q2 -43 3.5 -85.5t3.5 -84.5q5 -54 29 -90.5t74 -53.5v-5h-361v5q51 17 73.5 56t25.5 92 q2 44 3.5 85t3.5 81h-283q-65 0 -122 1zM140 426h310q2 78 3.5 150.5t1.5 144.5v334q-32 -68 -68.5 -145t-77 -158t-83 -163.5t-86.5 -162.5z" />
<glyph unicode="5" horiz-adv-x="676" d="M44 321l229 40l1 -5q-42 -22 -62.5 -53t-20.5 -63q0 -29 6.5 -56.5t21 -49t37 -35t55.5 -13.5t63 17t53 52t37 88t14 125q0 89 -8 150t-26 100.5t-46 60t-68 27t-93.5 2.5t-120.5 -14l-33 632q126 1 242 0.5t234 -0.5v-246h-5q-5 26 -18 51.5t-34 45t-50.5 31.5t-68.5 12 h-165l21 -407q79 22 149.5 9.5t123.5 -65t84.5 -147.5t31.5 -238q0 -98 -24.5 -173t-68 -125.5t-102.5 -76.5t-127 -26q-44 0 -90.5 21t-84.5 64.5t-62.5 109t-24.5 155.5z" />
<glyph unicode="6" horiz-adv-x="785" d="M64 649q0 160 29.5 284.5t81.5 209.5t121.5 129.5t150.5 44.5q51 0 95.5 -23t78.5 -58t53.5 -78t19.5 -82q0 -51 -40 -84l-129 -86l-3 5q24 23 35 52t11 59q0 34 -10 67t-27.5 59.5t-42 42.5t-52.5 16q-35 0 -65 -22.5t-54 -62.5t-42 -94t-30.5 -117t-18.5 -133t-6 -140 q0 -55 3 -117t11 -122.5t22 -116.5t35 -98.5t51 -68t71 -25.5q43 0 77 31t56.5 80.5t34.5 111t12 122.5q0 57 -8 109.5t-24.5 93t-42 64.5t-59.5 24q-12 0 -27.5 -2.5t-29 -9.5t-23 -19t-9.5 -31q0 -21 8.5 -45.5t27.5 -55.5l-138 114q5 37 26 64.5t50.5 46.5t62 28.5 t59.5 9.5q70 0 121 -32.5t84.5 -86.5t49.5 -124t16 -146q0 -81 -21.5 -162t-63 -145.5t-102 -105t-137.5 -40.5q-67 0 -119 31t-91 82.5t-65.5 119.5t-43 142t-23.5 149t-7 141z" />
<glyph unicode="7" horiz-adv-x="756" d="M21 1073q3 35 7.5 79t9.5 83q5 46 12 92h750l-1 -5q-57 -17 -96.5 -55.5t-62.5 -92.5q-42 -120 -73 -230.5t-60 -222.5q-35 -126 -67.5 -259.5t-66.5 -288.5q-16 -60 -6 -104.5t60 -63.5l-2 -5h-381l2 5q60 18 101.5 60.5t64.5 103.5q19 60 38.5 125.5t38 131.5 t36.5 131.5t35 126.5q34 133 67 263t64 266q-52 -1 -106 -3.5t-104.5 -7.5t-95 -14t-78.5 -24t-54.5 -37t-22.5 -53z" />
<glyph unicode="8" horiz-adv-x="778" d="M62 332q0 142 52 239.5t138 153.5q-73 45 -116.5 123t-43.5 190q0 75 24 133t65 97t95 59t113 20t113 -20t95 -59t65 -97t24 -133q0 -112 -43.5 -190t-116.5 -123q86 -56 138 -153.5t52 -239.5q0 -88 -23.5 -155.5t-67 -113t-105 -69t-137.5 -23.5q-71 0 -130 23.5 t-101.5 69t-66 113t-23.5 155.5zM212 328q0 -126 45.5 -188.5t123.5 -62.5q48 0 83 24t58.5 63.5t34.5 91t11 106.5q0 49 -7.5 98t-22.5 92t-37 78t-50 56q-69 -6 -115 -33t-73.5 -72.5t-39 -109.5t-11.5 -143zM241 1016q0 -39 6 -77t18 -71.5t30 -60t42 -42.5q57 6 95.5 27 t61.5 56.5t32.5 84t9.5 109.5q0 51 -12 89t-32.5 62.5t-47 37t-55.5 12.5q-37 0 -65 -19t-46.5 -51t-27.5 -73t-9 -84z" />
<glyph unicode="9" horiz-adv-x="785" d="M48 864q0 81 21.5 162t63 145.5t102 105t137.5 40.5q67 0 119 -31t91 -82.5t65.5 -119.5t43 -142t23.5 -149t7 -141q0 -160 -29.5 -284.5t-81.5 -209.5t-121.5 -129.5t-150.5 -44.5q-51 0 -95.5 23t-78.5 58t-53.5 78t-19.5 82q0 51 40 84l129 86l3 -5q-24 -23 -35 -52 t-11 -59q0 -34 10 -67t27.5 -59.5t41.5 -42.5t53 -16q53 0 93.5 49t67.5 129.5t41 182.5t14 208q0 55 -3 117t-11 122.5t-22 116.5t-35 98.5t-51.5 68t-70.5 25.5q-44 0 -77.5 -31t-56 -80.5t-34.5 -111t-12 -122.5q0 -57 8 -109.5t24.5 -93t42 -64.5t59.5 -24 q12 0 27.5 2.5t29 9.5t23 19t9.5 31q0 21 -8.5 45.5t-27.5 55.5l138 -114q-5 -37 -26 -65t-50.5 -46.5t-62 -28t-59.5 -9.5q-70 0 -121 32.5t-84.5 86.5t-49.5 124t-16 146z" />
<glyph unicode=":" horiz-adv-x="372" d="M77 154q0 21 8 39.5t21.5 32.5t31.5 22t39 8t39.5 -8t32.5 -22t22 -32.5t8 -39.5t-8 -39t-22 -31.5t-32.5 -21.5t-39.5 -8q-42 0 -71 29t-29 71zM93 678q0 21 8 39.5t21.5 32.5t31.5 22t39 8t39.5 -8t32.5 -22t22 -32.5t8 -39.5t-8 -39t-22 -31.5t-32.5 -21.5t-39.5 -8 q-42 0 -71 29t-29 71z" />
<glyph unicode=";" horiz-adv-x="383" d="M82 -288q12 79 17 142t5.5 113t-2.5 89t-7 71h203q-17 -60 -37 -128q-17 -58 -41.5 -132.5t-53.5 -154.5h-84zM89 678q0 21 8 39.5t21.5 32.5t31.5 22t39 8t39.5 -8t32.5 -22t22 -32.5t8 -39.5t-8 -39t-22 -31.5t-32.5 -21.5t-39.5 -8q-42 0 -71 29t-29 71z" />
<glyph unicode="&#x3c;" horiz-adv-x="759" d="M35 430v100q110 57 208 107q42 21 84.5 42.5t81.5 41t71 35t52 24.5q22 10 41 20t35 21.5t28 26.5t20 36h7v-245h-9q-8 19 -23 26t-32 7t-34 -5.5t-29 -11.5t-34 -16t-49.5 -23.5t-59.5 -28.5t-63 -30q-74 -35 -159 -77q85 -42 159 -77q31 -15 63 -30t59.5 -28.5 t49.5 -24t34 -15.5q12 -6 29 -11.5t34 -5.5t32 7t23 26h9v-245h-7q-8 21 -20 36t-28 26.5t-35 21l-41 20.5q-20 9 -52 24.5t-71 34.5t-81.5 41t-84.5 43q-98 49 -208 107z" />
<glyph unicode="=" horiz-adv-x="725" d="M95 278v133q37 -7 102 -12.5t171 -5.5q96 0 159 2.5t103 16.5v-143q-37 8 -99 13.5t-165 5.5q-108 0 -172.5 -1.5t-98.5 -8.5zM95 557v133q37 -7 102 -12.5t171 -5.5q96 0 159 2.5t103 16.5v-143q-37 8 -99 13.5t-165 5.5q-108 0 -172.5 -1.5t-98.5 -8.5z" />
<glyph unicode="&#x3e;" horiz-adv-x="759" d="M96 76v245h9q8 -19 23 -26t32 -7t34 5.5t29 11.5q12 5 33.5 15.5t49.5 24t59.5 28.5t63.5 30q73 35 159 77q-86 42 -159 77q-32 15 -63.5 30t-59.5 28.5t-49.5 23.5t-33.5 16t-29 11.5t-34 5.5t-32 -7t-23 -26h-9v245h7q7 -21 19.5 -36t28.5 -26.5t35 -21.5t41 -20 q20 -9 52 -24.5t71 -35t81.5 -41t84.5 -42.5q98 -50 208 -107v-100q-110 -58 -208 -107q-42 -21 -84.5 -43t-81.5 -41t-71 -34.5t-52 -24.5l-41 -20.5t-35 -21t-28.5 -26.5t-19.5 -36h-7z" />
<glyph unicode="?" horiz-adv-x="739" d="M38 1011q0 60 25.5 117t69 101.5t101.5 72t123 27.5q75 0 138 -21.5t108 -63.5t70 -105t25 -147q0 -77 -16 -134.5t-41.5 -102.5t-58.5 -81t-67.5 -68.5t-67.5 -65t-58.5 -71.5t-41.5 -87t-16 -112h-93q0 86 23.5 152t58 120.5t75.5 102t75.5 98t58 108t23.5 132.5 q0 53 -16.5 92.5t-43.5 65t-60.5 38t-67.5 12.5q-42 0 -75 -17.5t-55 -45t-33.5 -61.5t-11.5 -67q0 -24 6.5 -46t19.5 -38.5t32.5 -26.5t46.5 -10q18 0 39 3l-146 -103q-80 45 -114.5 106t-34.5 126zM182 71q0 21 8 39.5t21.5 32.5t31.5 22t39 8t39.5 -8t32.5 -22t22 -32.5 t8 -39.5t-8 -39t-22 -31.5t-32.5 -21.5t-39.5 -8q-42 0 -71 29t-29 71z" />
<glyph unicode="@" horiz-adv-x="1224" d="M46 475q0 141 46 250t125.5 183t187.5 112.5t232 38.5q113 0 212.5 -36t174 -106.5t118 -174t43.5 -237.5q0 -74 -22.5 -132.5t-58 -99t-79.5 -62.5t-88 -22q-56 0 -102.5 38t-65.5 121q-12 -36 -28.5 -68t-39.5 -56t-55.5 -38t-75.5 -14q-58 0 -99.5 21.5t-68.5 58.5 t-40 85t-13 102q0 40 7.5 83t23 84.5t37.5 79t50.5 65.5t64 44.5t76.5 16.5q30 0 63 -9.5t68 -29.5q11 8 27 11.5t33 3.5q24 0 43.5 -7.5t19.5 -17.5q0 -2 -1 -24.5t-2.5 -55t-3.5 -71.5t-3.5 -73.5t-2.5 -60.5t-1 -33q0 -77 22 -116.5t57 -39.5q19 0 40 11t38.5 36.5t29 66 t11.5 99.5q0 81 -26 159.5t-78 139.5t-130 98.5t-182 37.5t-183 -41t-131.5 -108t-79 -151.5t-26.5 -172.5q0 -77 25 -149.5t76 -128.5t128 -90t181 -34q62 0 114 8.5t100 25.5l55 -109q-60 -21 -124 -33t-128 -12q-127 0 -235 36t-187 104t-124 167.5t-45 225.5zM481 444 q0 -37 5.5 -70t16.5 -57.5t27.5 -39t39.5 -14.5q38 0 64 28.5t42 70.5t23.5 90t9.5 86l8 191q-30 10 -58 10q-42 0 -75 -25.5t-56 -67t-35 -94.5t-12 -108z" />
<glyph unicode="A" d="M-80 -40l3 3q37 -17 68 -17q41 0 65.5 40t37.5 114q14 61 26 142t22 167t18 168t15 144q12 116 23.5 231.5t17.5 241.5v13q0 34 -12 61q-16 32 -52 48l-15 6l-1 5h495l-1 -5l-16 -6q-36 -16 -52 -48q-12 -25 -12 -57q0 -8 1 -17q6 -126 18 -241t26 -232q16 -131 32 -269 t43 -299q13 -53 41.5 -92t82.5 -56l1 -5h-360l-1 5q48 17 66 53q14 28 13 68q0 11 -1 23q-5 53 -9.5 105t-9.5 106q-22 2 -49 4t-63 6q-32 3 -57.5 5.5t-45.5 5.5q-3 -28 -6.5 -62t-7.5 -71.5t-9 -76.5t-12 -77q-5 -31 -10.5 -63t-14.5 -61.5t-24 -55t-40 -44.5 q-24 -18 -62 -29q-34 -10 -83 -10h-9zM286 447h96q30 0 55.5 0.5t46.5 1.5l-21 235q-2 19 -5.5 52t-7.5 74.5t-8.5 88.5t-8.5 94q-11 108 -22 235l-48 1q-12 -122 -23 -229q-5 -46 -9.5 -93t-9 -89t-8 -77t-5.5 -57q-7 -71 -11.5 -128t-10.5 -109z" />
<glyph unicode="B" horiz-adv-x="757" d="M55 0v5q46 17 66 56t23 92q8 84 12 160t4 148q0 28 0.5 65t1 75.5t1 75.5t0.5 66q0 21 -0.5 48.5t-1 56t-1 56t-0.5 49.5q0 42 -0.5 97.5t-9.5 108.5t-30.5 97.5t-64.5 64.5v5h282q55 0 105 -19t87.5 -56t60 -91.5t22.5 -124.5q0 -76 -35.5 -133.5t-95.5 -92.5 q52 -26 94.5 -64.5t73 -88.5t47 -112t16.5 -135q0 -97 -31 -173t-82.5 -128.5t-119.5 -80t-142 -27.5h-282zM298 1029q0 -48 0.5 -94.5t1.5 -86.5q44 0 75 17.5t50.5 45t28.5 61.5t9 66q0 30 -9 61.5t-28 57.5t-48.5 42.5t-69.5 16.5q-5 -43 -7.5 -91t-2.5 -96zM304 424 q0 -77 4.5 -153.5t4.5 -160.5q66 0 113.5 26.5t78 69t44.5 95.5t14 105q0 58 -16 117t-48.5 106t-81 77t-113.5 30v-312z" />
<glyph unicode="C" horiz-adv-x="841" d="M66 649q0 160 34.5 284.5t95.5 209.5t144 129.5t179 44.5q59 0 111 -23t91 -58t62 -78t23 -82q0 -51 -40 -84l-129 -86l-3 5q24 23 35 52t11 59q0 34 -13 67t-35.5 59.5t-54.5 42.5t-69 16q-47 0 -87 -22.5t-71.5 -62.5t-55.5 -94t-40 -117t-24 -133t-8 -140 q0 -104 14.5 -202t44 -175t73.5 -123.5t104 -46.5q49 0 90 23t73.5 62.5t55 93t36.5 115.5h3l92 -194q-60 -103 -149.5 -156t-189.5 -53q-87 0 -160.5 45.5t-127.5 131t-84.5 209.5t-30.5 281z" />
<glyph unicode="D" horiz-adv-x="827" d="M48 0v5q51 17 73.5 56t25.5 92q8 161 12 299t4 269q0 117 -2 232t-13 241q-5 47 -29.5 80.5t-70.5 47.5v5h375q69 0 130 -35.5t107 -105t72.5 -172t26.5 -235.5q0 -180 -36 -324.5t-95.5 -245.5t-137 -155t-160.5 -54h-282zM297 684q0 -136 4.5 -269t4.5 -266v-39 q53 0 96 27t77 74t58.5 110.5t40.5 137.5t24 155t8 162q0 79 -12.5 157.5t-38 141.5t-65.5 102t-94 39l-94 1q-3 -95 -5 -190q-1 -41 -1.5 -85t-1 -89t-1 -88t-0.5 -81z" />
<glyph unicode="E" horiz-adv-x="653" d="M41 0v5q51 17 78 55.5t32 92.5q10 156 12.5 298.5t2.5 269.5q0 112 -1.5 222.5t-13.5 230.5q-5 54 -32 92.5t-78 55.5v5h571q-4 -20 -11 -51q-6 -26 -15 -66.5t-22 -97.5h-3v9q1 31 -11 55q-14 28 -43 42q-42 20 -89.5 26.5t-104.5 8.5q-6 -124 -9 -245.5t-4 -242.5h63.5 t57.5 3q52 5 80 31t36 64h3v-274h-3q-8 38 -37 64t-81 31q-26 3 -55 3t-64 1v-4q0 -149 3.5 -306.5t9.5 -303.5q57 2 104.5 8.5t89.5 26.5q29 15 43 43q12 25 11 54v9h3q13 -57 22 -97.5t15 -66.5q7 -31 11 -51h-571z" />
<glyph unicode="F" horiz-adv-x="649" d="M42 0v5q57 19 80.5 63.5t28.5 104.5q7 155 11.5 288.5t4.5 259.5q0 112 -1.5 222.5t-13.5 230.5q-5 54 -32 92.5t-78 55.5v5h580q-8 -39 -18 -78q-8 -33 -18 -70t-18 -66h-4q1 10 1 19q-1 33 -17 54q-22 27 -58 41t-83 19t-93 7q-7 -145 -10 -286t-3 -283v-43 q42 0 78 3.5t72 9.5q51 9 79.5 33.5t36.5 62.5h3v-294h-3q-10 38 -42 62t-76 32q-33 5 -69 8t-79 6q1 -100 2 -198t7 -197q4 -61 31 -103.5t82 -60.5v-5h-381z" />
<glyph unicode="G" horiz-adv-x="930" d="M70 649q0 160 33 284.5t91.5 209.5t137.5 129.5t171 44.5q59 0 111 -23t91 -58t62 -78t23 -82q0 -51 -40 -84l-129 -86l-3 5q24 23 35 52t11 59q0 34 -13 67t-35.5 59.5t-54.5 42.5t-69 16q-44 0 -81 -22.5t-66.5 -62.5t-51.5 -94t-37 -117t-22.5 -133t-7.5 -140 q0 -104 14 -202t42 -175t70.5 -123.5t99.5 -46.5q66 0 115.5 23.5t83.5 62.5q5 117 5 209v18q-1 97 -9 167q-6 47 -30 80t-70 48v5h351v-5q-103 -32 -103 -145q0 -40 -1.5 -93t-2.5 -109q-1 -36 -1 -72v-36q1 -53 5 -95q5 -54 28.5 -90.5t74.5 -53.5v-5h-201q-29 14 -40 45 q-107 -63 -234 -63q-75 0 -140 45.5t-112 131t-74 209.5t-27 281z" />
<glyph unicode="H" horiz-adv-x="930" d="M-15 -44l3 4q22 -5 40 -8.5t32 -3.5q21 0 35 7.5t24 26.5t15.5 50.5t9.5 78.5q5 61 9 133t6.5 146.5t4 146.5t1.5 134q0 137 -5.5 270t-15.5 282q-10 35 -35.5 60.5t-71.5 38.5v5h381v-5q-51 -13 -77 -39.5t-34 -67.5q-5 -108 -7.5 -214t-3.5 -212q23 -2 65 -4t110 -2 q59 0 98.5 1.5t64.5 3.5q-2 106 -6 212.5t-12 221.5q-10 36 -35 61.5t-72 38.5v5h381v-5q-51 -13 -77 -40t-34 -68q-6 -134 -8.5 -266t-2.5 -264q0 -144 3 -285t8 -282q8 -41 34 -69.5t77 -42.5v-5h-381v5q51 14 74.5 42.5t31.5 69.5q8 166 13 308.5t6 273.5q-23 3 -62 5 t-102 2q-70 0 -111 -2.5t-63 -5.5v-14v-138.5t-0.5 -148.5t-1 -147t-1.5 -133q-1 -49 -4.5 -100t-24.5 -92.5t-67 -68t-132 -26.5z" />
<glyph unicode="I" horiz-adv-x="457" d="M48 0v5q51 17 73 56t26 92q7 161 11.5 299t4.5 269q0 117 -1.5 232t-13.5 241q-5 47 -29.5 80.5t-70.5 47.5v5h361v-5q-103 -33 -103 -145q-3 -88 -5 -176q-1 -38 -1.5 -79l-1 -82t-1 -81t-0.5 -75q0 -136 0.5 -269t8.5 -266q4 -54 28 -90.5t75 -53.5v-5h-361z" />
<glyph unicode="J" horiz-adv-x="654" d="M1 120q0 32 10.5 64.5t33.5 64.5l182 51l3 -5q-42 -26 -61 -58t-19 -67q0 -19 6 -38t17.5 -34t27 -24.5t33.5 -9.5q53 0 81.5 35t42 106t15.5 180t2 256q0 134 -1.5 269t-14.5 284q-4 47 -29.5 80.5t-70.5 47.5v5h366v-5q-103 -33 -103 -145q-3 -102 -5 -204 q-1 -44 -1.5 -91.5t-1 -95.5t-1 -94.5t-0.5 -87.5q0 -81 -1.5 -162.5t-10.5 -156t-26.5 -138.5t-50.5 -111.5t-82.5 -74.5t-121.5 -27q-53 0 -94 15t-69 40.5t-42 59t-14 71.5z" />
<glyph unicode="K" d="M48 0v5q51 17 73 56t26 92q7 161 11.5 299t4.5 269q0 117 -1.5 232t-13.5 241q-5 47 -29.5 80.5t-70.5 47.5v5h361v-5q-103 -33 -103 -145q-2 -63 -4 -130q-2 -57 -3 -127t-2 -138q26 53 47.5 94.5t44 83.5t48.5 91t62 117q25 48 51.5 89t58.5 70.5t72 46.5t92 19 l58 -236l-6 -3q-39 39 -77 39q-30 0 -58 -22t-52 -58q-47 -69 -97 -145t-95 -148q29 -89 65 -186.5t76 -196t81.5 -195.5t82.5 -185q12 -25 24.5 -49t27.5 -42.5t32.5 -30t40.5 -11.5q16 0 34.5 6.5t40.5 22.5l5 -3l-72 -170q-62 0 -106 19.5t-76 53t-55 77.5t-41 93 q-20 52 -43.5 116.5t-48.5 131.5t-49 133t-43 122l-54 166q-24 -41 -42 -71.5t-29 -50.5q0 -106 1 -211t8 -210q3 -54 27.5 -90.5t75.5 -53.5v-5h-361z" />
<glyph unicode="L" horiz-adv-x="754" d="M42 0v5q57 19 81 63.5t28 104.5q10 155 13 288.5t3 259.5q0 112 -3.5 222.5t-11.5 230.5q-8 54 -33.5 92.5t-76.5 55.5v5h381v-5q-57 -19 -83 -60.5t-30 -104.5q-3 -42 -4.5 -96t-2.5 -115.5t-1.5 -128t-0.5 -133.5q0 -154 3 -306.5t9 -302.5q16 1 40.5 3t52 4t56.5 5 t55 8q-3 34 -9.5 78.5t-13.5 92.5t-13.5 96.5t-10.5 89.5q-3 26 -3 50q-1 78 27 140q36 81 124 127l140 -196l-3 -4q-20 8 -38 9.5t-33 1.5q-42 -4 -64 -35q-22 -30 -21 -82q1 -50 9 -116q8 -58 16.5 -117.5t15.5 -117.5t7 -112h-605z" />
<glyph unicode="M" horiz-adv-x="1135" d="M-52 -44l3 4q22 -5 40 -8.5t32 -3.5q21 0 35 7.5t23.5 26.5t15 50.5t10.5 78.5q7 69 12 131.5t9.5 124t9.5 124.5t11 133q3 37 6.5 79.5t6.5 86l6 87t6 83.5q6 93 11 187q1 6 1 11.5v10.5q0 114 -112 153l1 5h201q11 0 21.5 -16.5t20 -42.5t17.5 -57.5t14.5 -62t11.5 -56 t8 -38.5q12 -44 27 -94.5t31 -103t32.5 -105.5t31.5 -102q36 -114 73 -231q56 190 104 349q20 68 40 135.5t36.5 126t29 102t17.5 63.5q6 24 9.5 47.5t12 42.5t26 31t52.5 12h143l1 -5q-92 -30 -92 -127v-9t1 -9q2 -26 5.5 -87t9 -145.5t12.5 -186t16 -207.5t20 -209.5 t24 -192.5q8 -54 36 -90.5t79 -53.5l1 -5h-361l-1 5q51 17 69 56t18 92q-3 81 -5.5 155t-6 144t-8.5 137t-12 132l-13 184q-20 -80 -49.5 -170t-60.5 -180t-59 -175t-46 -156q-7 -24 -13.5 -49.5t-13 -46.5t-14 -34t-16.5 -13t-17 13t-15 33.5t-13.5 46t-13.5 50.5 q-21 72 -46 154t-51 167.5t-52.5 172t-50.5 167.5q-9 -195 -21 -387.5t-19 -380.5q-1 -32 -2.5 -66t-8 -66t-19.5 -60t-38 -49.5t-64 -33.5t-96 -12z" />
<glyph unicode="N" horiz-adv-x="933" d="M-16 -44l3 4q22 -5 40 -8.5t32 -3.5q21 0 35 7.5t24 26.5t15.5 50.5t9.5 78.5q13 129 18.5 259t5.5 261q0 119 -2.5 235.5t-12.5 247.5q-8 77 -39 132.5t-91 75.5v5h196q-1 -4 5 -19q5 -13 17.5 -38.5t36.5 -70.5q31 -68 70.5 -154.5t81 -176.5t81 -176t71 -154 t50.5 -110.5t19 -44.5q3 86 4.5 173t1.5 165q0 117 -2 232t-13 241q-5 47 -29.5 80.5t-70.5 47.5v5h351v-5q-103 -33 -103 -145q0 -43 -2 -115t-5.5 -160.5t-6.5 -185.5t-6 -189q-3 -91 -3 -171v-23q0 -65 3 -110q2 -81 28 -139t72 -79v-5h-178q2 1 2.5 5t-3 15.5t-12 32 t-25.5 54.5q-25 59 -61.5 140t-76.5 169t-79.5 174.5t-71.5 156t-51.5 113.5t-19.5 47q-2 -64 -2 -122.5v-100.5q-1 -146 1 -287q1 -60 1 -120q0 -80 -1 -160q-1 -49 -4.5 -100t-24.5 -92.5t-67 -68t-132 -26.5zM687 0h4h-4z" />
<glyph unicode="O" horiz-adv-x="935" d="M69 649q0 160 31 284.5t85.5 209.5t128 129.5t158.5 44.5q81 0 153 -44.5t126 -129.5t85 -209.5t31 -284.5q0 -156 -32.5 -279.5t-87.5 -209.5t-126 -132t-149 -46q-87 0 -160.5 45.5t-127.5 131t-84.5 209.5t-30.5 281zM225 638q0 -69 6.5 -135.5t19.5 -126.5 t32.5 -110.5t45.5 -87.5t59 -57.5t73 -20.5q62 0 108.5 46t77 122.5t46 175t15.5 202.5q0 105 -15.5 204.5t-46.5 177.5t-77.5 125t-107.5 47q-58 0 -102 -48t-74 -127t-45 -180t-15 -207z" />
<glyph unicode="P" horiz-adv-x="740" d="M48 0v5q51 17 73 56t26 92q7 161 11.5 299t4.5 269q0 117 -1.5 232t-13.5 241q-5 47 -29.5 80.5t-70.5 47.5v5h395q48 0 90.5 -25t75 -73t51 -119t18.5 -163q0 -62 -7 -135t-23.5 -146t-45 -140.5t-70.5 -118t-100 -78.5q-47 -23 -107 -23q-13 0 -26 1q2 -40 3.5 -79.5 t3.5 -78.5q4 -54 28 -90.5t75 -53.5v-5h-361zM297 684q0 -66 0.5 -131t1.5 -131q120 0 169.5 131t49.5 394q0 132 -31.5 202.5t-94.5 70.5q-20 0 -43 -0.5t-43 -2.5v-40q-3 -88 -5 -176q-1 -38 -1.5 -79l-1 -82t-1 -81t-0.5 -75z" />
<glyph unicode="Q" horiz-adv-x="941" d="M69 649q0 160 31 284.5t85.5 209.5t128 129.5t158.5 44.5q81 0 153 -44.5t126 -129.5t85 -209.5t31 -284.5q0 -99 -13.5 -186t-38.5 -159t-59 -129.5t-75 -98.5q45 -7 76.5 -15t52.5 -16q24 -9 40 -17l45 -258l-4 -2q-8 23 -29.5 59.5t-68 71t-123 59t-194.5 24.5 q-29 0 -57 -4t-51.5 -8t-40.5 -5.5t-24.5 3t-4 17t21.5 37.5q-57 32 -103 89t-79 136.5t-51 180.5t-18 221zM225 638q0 -100 13.5 -195.5t41 -171.5t68.5 -124.5t97 -54.5q5 -1 17 -1q61 0 107.5 48t77 126t46 177.5t15.5 203.5q0 70 -7 139t-20.5 131t-34.5 115.5 t-48.5 92.5t-61.5 61t-75 22q-39 0 -71.5 -22.5t-58.5 -62.5t-46 -94t-33.5 -117t-20 -133t-6.5 -140z" />
<glyph unicode="R" horiz-adv-x="769" d="M48 0v5q51 17 73 56t26 92q7 161 11.5 299t4.5 269q0 117 -1.5 232t-13.5 241q-5 47 -29.5 80.5t-70.5 47.5v5h355q62 0 116 -19.5t93.5 -57.5t62.5 -94t23 -129q0 -148 -54 -248t-143 -147q38 -138 77 -277t94 -288q11 -28 23 -53.5t27 -45.5t34 -32t43 -12 q16 0 34.5 6.5t40.5 22.5l5 -3l-72 -170q-64 0 -110.5 20t-79.5 54t-54.5 80t-35.5 99l-151 555q-3 -2 -14 -3.5t-23.5 -3t-24 -3t-15.5 -1.5q1 -50 1.5 -104.5t1.5 -110t2 -109.5t2 -104q4 -54 28 -90.5t75 -53.5v-5h-361zM296 734v-13q0 -14 1 -29q125 0 180.5 84 t55.5 251q0 94 -36.5 143.5t-109.5 49.5q-18 0 -41 -0.5t-40 -2.5v-40q-3 -73 -5 -145q-2 -62 -3 -131.5t-1 -126.5q-1 -20 -1 -40z" />
<glyph unicode="S" horiz-adv-x="651" d="M33 108l141 199l4 -3q-8 -18 -11 -35.5t-3 -34.5q0 -31 10.5 -58t27 -46.5t38 -30.5t43.5 -11q29 0 54 12.5t43 33.5t28 47t10 53q0 74 -26 140t-65 128.5t-84.5 124.5t-84.5 126.5t-65 134.5t-26 150q0 57 21.5 109t61.5 92t97.5 63.5t130.5 23.5q57 0 119 -32.5 t123 -93.5l-141 -229l-4 3q10 40 10 77q0 41 -11.5 72.5t-29 52.5t-38.5 32t-41 11q-32 0 -59 -11.5t-46.5 -31t-30.5 -46.5t-11 -57q0 -62 27 -127.5t67.5 -132.5t87.5 -136t87.5 -138t67.5 -137.5t27 -135.5q0 -58 -20.5 -109.5t-60 -90.5t-96.5 -61.5t-130 -22.5 q-57 0 -119 32.5t-123 93.5z" />
<glyph unicode="T" horiz-adv-x="726" d="M31 1274v53q85 -5 167.5 -7.5t166.5 -2.5t165.5 2.5t164.5 7.5v-53q0 -52 -3 -160h-6q0 33 -23.5 53.5t-59.5 31.5t-79.5 15.5t-83.5 6.5q-1 -29 -2 -79.5t-1.5 -113t-1.5 -132t-1.5 -136t-1 -124t-0.5 -96.5q0 -99 1 -196.5t8 -194.5q3 -54 27.5 -90.5t75.5 -53.5v-5 h-361v5q51 17 73.5 56t25.5 92q5 81 8 155t5 144t2.5 137t0.5 132q0 123 -1 244.5t-11 255.5q-39 -2 -82.5 -6.5t-80 -15.5t-60.5 -31.5t-24 -53.5h-5q-2 54 -2.5 94t-0.5 66z" />
<glyph unicode="U" horiz-adv-x="928" d="M29 1322v5h361v-5q-46 -17 -72 -53t-26 -92q-3 -108 -5 -215q-1 -46 -1.5 -96t-1 -100.5t-1 -99.5t-0.5 -92q0 -151 9.5 -244t29.5 -144.5t51.5 -69t75.5 -17.5q39 0 86.5 14.5t92.5 47.5q3 158 4.5 294.5t1.5 265.5q0 117 -1.5 232t-13.5 241q-5 47 -29.5 80.5 t-70.5 47.5v5h368v-5q-103 -33 -103 -145q-3 -88 -5 -176q-1 -38 -1.5 -79l-1 -82t-1 -81t-0.5 -75q0 -75 0.5 -138t1 -124t0.5 -123.5v-135.5q3 -35 28.5 -59t81.5 -35v-5l-248 -94q-5 13 -7.5 33.5t-3.5 46.5q-54 -36 -115.5 -52t-118.5 -16q-47 0 -89.5 18t-76 54 t-55 90.5t-26.5 127.5q-6 106 -8 217t-3 226.5t-4.5 235.5t-12.5 243q-4 47 -26 80.5t-64 47.5z" />
<glyph unicode="V" horiz-adv-x="739" d="M-41 1327h360l1 -5q-48 -18 -66 -54q-14 -28 -13 -67q0 -11 1 -23q16 -133 39 -266t46 -269q9 -64 20 -140.5t23 -148.5q11 72 22.5 148.5t20.5 140.5q23 136 46 269t39 266q1 12 1 23q1 39 -13 67q-18 36 -66 54l1 5h360l-1 -5q-54 -17 -82.5 -56t-41.5 -92 q-36 -161 -64.5 -299.5t-51.5 -268.5q-20 -117 -38.5 -232t-29.5 -241q-1 -8 -1 -16q0 -32 13 -58q16 -32 51 -48l16 -6l1 -5h-364l1 5l15 6q36 16 52 48q13 27 12 61v13q-11 126 -29.5 241t-38.5 232q-23 130 -51.5 268.5t-64.5 299.5q-13 53 -41.5 92t-82.5 56z" />
<glyph unicode="W" horiz-adv-x="1197" d="M-42 1327h360l1 -5q-47 -18 -65 -54q-14 -28 -14 -67q0 -11 1 -23q16 -142 39 -286t46 -289q9 -71 20 -155.5t23 -163.5q11 79 22.5 163.5t20.5 155.5q23 145 46 289t39 286q1 12 1 23q0 37 -13 65q-17 36 -62 54l-5 2l-1 5h363l-1 -5l-6 -2q-45 -18 -61 -54 q-13 -28 -13 -65q0 -11 1 -23q16 -142 39 -286t46 -289q9 -71 20 -155.5t23 -163.5q11 79 22.5 163.5t20.5 155.5q23 145 46 289t39 286q1 12 1 23q1 39 -13 67q-18 36 -66 54l1 5h360l-1 -5q-54 -17 -82.5 -56t-41.5 -92q-36 -161 -64.5 -299.5t-51.5 -268.5 q-20 -117 -38.5 -232t-29.5 -241q-1 -8 -1 -16q0 -32 13 -58q16 -32 51 -48l16 -6l1 -5h-364l1 5l15 6q36 11 51.5 36t12.5 56q-10 119 -26 230.5t-34 221t-36 220t-32 227.5q-14 -117 -32 -227.5t-36 -220t-33.5 -221t-25.5 -230.5q-4 -31 12 -56t51 -36l16 -6l1 -5h-364 l1 5l15 6q35 16 51 48q13 27 13 61v13q-11 126 -29.5 241t-38.5 232q-23 130 -51.5 268.5t-64.5 299.5q-13 53 -41.5 92t-82.5 56z" />
<glyph unicode="X" horiz-adv-x="786" d="M-40 1327h360l2 -5q-41 -14 -53 -48q-6 -16 -6 -35q0 -21 7 -45q26 -91 55 -176t60 -170q28 85 53.5 170t47.5 176q5 21 5 39q1 23 -7 41q-14 34 -56 48l1 5h361l-1 -5q-113 -33 -151 -145q-32 -88 -63 -176q-14 -38 -28.5 -79t-28.5 -82t-27.5 -81t-25.5 -75l-4 -12 l-4 -12q45 -117 95.5 -240.5t111.5 -266.5q23 -53 60.5 -92t94.5 -56l1 -5h-360l-1 5q45 17 55 53q4 14 4 30q0 27 -11 61q-26 80 -54.5 160.5t-58.5 161.5q-26 -81 -51 -161.5t-47 -160.5q-8 -29 -8 -53q0 -22 6 -38q12 -36 57 -53l-1 -5h-360l1 5q57 17 92.5 56t56.5 92 q54 143 98.5 266.5t83.5 240.5l-8 24q-13 35 -28.5 75t-31.5 81t-32.5 82t-31.5 79q-35 88 -71 176q-44 112 -157 145z" />
<glyph unicode="Y" horiz-adv-x="730" d="M-46 1327h360l1 -5q-48 -17 -67 -54q-13 -26 -13 -62q0 -13 2 -28q11 -76 27.5 -146.5t34 -139.5t35 -139.5t31.5 -146.5q14 76 31.5 146.5t35.5 139.5t34 139.5t27 146.5q1 14 1 26q0 37 -13 64q-18 37 -66 54l1 5h360l-1 -5q-54 -17 -81.5 -56.5t-42.5 -91.5 q-23 -81 -45 -155t-41 -143q-16 -63 -33 -124.5t-33 -124t-30 -126.5t-24 -132l-2 -146q0 -38 1.5 -70.5t10.5 -59.5t28.5 -49.5t55.5 -38.5v-5h-358v5q48 11 75.5 67t29.5 145l3 114q-10 73 -24.5 142t-31 136.5t-34.5 133.5t-34 133q-19 69 -41 143t-45 155 q-15 52 -42.5 91.5t-81.5 56.5z" />
<glyph unicode="Z" horiz-adv-x="679" d="M-13 0l1 5q59 18 96.5 60.5t55.5 103.5q19 60 38.5 125.5t38 131.5t36 131.5t32.5 126.5q33 133 61.5 263t54.5 266q-60 -2 -122 -6.5t-113 -18.5t-83 -41t-31 -73l-9 -1q0 35 0.5 79t2.5 83l4 92h650v-5q-56 -17 -92 -55.5t-55 -92.5q-41 -119 -68.5 -230.5 t-55.5 -222.5q-32 -127 -63.5 -260t-64.5 -288q-6 -34 -5 -59q58 2 117.5 7t108 19t81 41t35.5 72l9 1q-3 -35 -8 -79t-10 -83q-5 -46 -11 -92h-631z" />
<glyph unicode="[" horiz-adv-x="510" d="M54 0v5q37 17 57 55.5t23 92.5q11 120 13 235.5t2 227.5q0 137 -1 273t-14 285q-3 54 -23 92.5t-57 55.5v5h430l-14 -124q-29 3 -61 5q-27 2 -61 3t-66 2v-1099q32 0 66 1.5t61 3.5q32 2 61 5l14 -124h-430z" />
<glyph unicode="\" horiz-adv-x="483" d="M49 1327h128l256 -1327h-128z" />
<glyph unicode="]" horiz-adv-x="509" d="M26 -1l14 124q29 -3 61 -5q27 -2 60.5 -3.5t66.5 -1.5v1100q-33 -1 -66.5 -2t-60.5 -3q-32 -2 -61 -5l-14 124h430v-5q-37 -17 -57 -55.5t-23 -92.5q-14 -149 -14.5 -285t-0.5 -273q0 -112 2 -228t13 -236q3 -54 23 -92.5t57 -55.5v-5h-430z" />
<glyph unicode="^" horiz-adv-x="621" d="M25 66q3 2 4 6.5t4 11.5q13 40 28.5 94t31 115t31.5 126t30 127q33 145 66 303h180q33 -158 66 -303q14 -62 29.5 -127t31.5 -126t31 -115t29 -94q3 -7 4 -11.5t4 -6.5q-7 6 -30.5 13.5t-76.5 7.5q-26 0 -60 -3q9 12 10.5 29.5t1.5 42.5q0 43 -11.5 106t-30 141.5 t-41.5 171.5t-47 197q-24 -104 -47 -197t-41.5 -171.5t-30 -141.5t-11.5 -106q0 -25 1.5 -42.5t10.5 -29.5q-35 3 -60 3q-53 0 -76.5 -7.5t-30.5 -13.5z" />
<glyph unicode="_" horiz-adv-x="753" d="M29 -66v133q49 -7 133.5 -12.5t219.5 -5.5q126 0 208 2.5t134 16.5v-143q-49 8 -130 13.5t-214 5.5q-138 0 -221.5 -1.5t-129.5 -8.5z" />
<glyph unicode="`" horiz-adv-x="282" d="M10 1438h203q4 -57 8 -121q4 -55 8 -126t9 -148l-83 -20q-17 68 -41.5 141.5t-47.5 134.5q-27 71 -56 139z" />
<glyph unicode="a" horiz-adv-x="682" d="M54 250q0 69 21.5 137.5t61 123t94.5 88.5t123 34q34 0 65 -7q0 80 -7 131t-21 80t-35.5 39.5t-49.5 10.5q-24 0 -40.5 -8t-27 -22t-15 -32.5t-4.5 -39.5q0 -28 8.5 -57t22.5 -53l-2 -3l-170 105q13 71 39.5 113.5t59 65t69 29.5t71.5 7q123 0 185 -89q61 -88 61 -257v-6 q0 -91 -0.5 -157.5t-0.5 -113.5t-0.5 -77.5t-0.5 -50v-31.5v-22q0 -25 3 -53t12.5 -53.5t28 -46t49.5 -30.5v-5h-155q-23 14 -35 38t-18 53q-6 -12 -19 -32.5t-34 -40t-50.5 -33.5t-68.5 -14q-57 0 -98.5 23t-68.5 62t-40 89.5t-13 104.5zM195 277q0 -40 6 -76t18 -63.5 t30 -44t42 -16.5q38 0 62.5 28.5t39 70.5t20.5 89.5t6 85.5v191q-29 10 -58 10q-40 0 -71 -23.5t-52 -61.5t-32 -88t-11 -102z" />
<glyph unicode="b" horiz-adv-x="838" d="M-7 1262v5l291 80q-3 -29 -5 -75.5t-3.5 -101.5t-2.5 -115t-1 -117q84 54 161 54q75 0 138 -32.5t108.5 -94.5t71 -151t25.5 -202q0 -114 -21 -210.5t-62 -167t-103.5 -110t-144.5 -39.5q-24 0 -56.5 2.5t-70 5t-78 5t-79.5 2.5h-143v5q57 19 80.5 63.5t28.5 104.5 q1 155 6 288.5t5 259.5q0 128 -0.5 217.5t-4.5 149.5t-12.5 95t-25 52.5t-41.5 22t-61 4.5zM271 624v-65q0 -99 2 -203q3 -139 9 -269q42 -5 78 -8t68 -3q44 0 80.5 28.5t62.5 83.5t40.5 136.5t14.5 187.5q0 192 -53.5 288t-165.5 96q-29 0 -62.5 -10t-72.5 -33v-13z" />
<glyph unicode="c" horiz-adv-x="735" d="M61 481q0 123 25.5 218t70 160t105 99t131.5 34q73 0 125.5 -22.5t89.5 -63t61.5 -96.5t42.5 -123l-195 -102l-3 5q20 25 29 49.5t9 48.5q0 31 -6 66.5t-22.5 64.5t-44.5 48.5t-72 19.5q-42 0 -78 -24.5t-62.5 -74.5t-41 -126.5t-14.5 -180.5q0 -201 56 -303t156 -102 q37 0 68.5 16t56.5 43.5t43 65t29 80.5l4 1l49 -136q-47 -87 -112.5 -131t-146.5 -44q-75 0 -139.5 33.5t-112 98.5t-74.5 160t-27 218z" />
<glyph unicode="d" horiz-adv-x="798" d="M64 512q0 113 23 202t64.5 151t99 94.5t126.5 32.5q18 0 39 -4.5t42 -15t39.5 -27t30.5 -39.5q0 93 -1 160t-13.5 110.5t-42 64.5t-86.5 21v5l291 80q-4 -36 -6 -97t-3.5 -132t-2 -144t-0.5 -134l-1 -216v-93q1 -69 1 -136q2 -111 8 -226q4 -61 31 -103.5t82 -60.5v-5 h-185q-32 14 -48.5 38t-24.5 53q-6 -11 -18.5 -29t-32 -34.5t-47 -29t-64.5 -13.5h-4q-73 1 -127 39q-56 40 -94 110t-57 167t-19 211zM214 512q0 -106 12 -187.5t34.5 -136.5t53 -83.5t68.5 -28.5q53 0 94 55t46 165q3 50 4.5 94.5t2 87t1 84.5t0.5 87q0 90 -15 140 t-35.5 73.5t-42 28.5t-34.5 5q-189 0 -189 -384z" />
<glyph unicode="e" horiz-adv-x="701" d="M63 482q0 123 24 218t66 160t99 99t123 34q55 0 101.5 -29.5t81.5 -87t56.5 -143t26.5 -196.5l-423 -148q13 -164 58 -238.5t114 -74.5q33 0 55.5 12.5t37 33t21 46t6.5 52.5q0 32 -20.5 63t-62.5 53l1 5l219 -20q0 -90 -25.5 -155.5t-65 -109t-87.5 -64.5t-94 -21 q-66 0 -123 34t-99 99t-66 160t-24 218zM213 478q29 11 72 28t108 47q37 17 64 34t48 29q-10 139 -42.5 205t-87.5 66q-77 0 -119.5 -102t-42.5 -303v-4z" />
<glyph unicode="f" horiz-adv-x="551" d="M28 0v5q51 17 73.5 56t25.5 92q5 84 8 149.5t5 118t2.5 95t0.5 81.5q0 43 -0.5 80.5t-1 74.5t-1.5 74.5t-1 80.5q-28 2 -46 3.5t-29 3.5q-13 2 -20 4v60h95q0 213 54.5 311.5t152.5 98.5q48 0 103.5 -19.5t120.5 -64.5l-127 -215l-3 2q6 16 6 43q0 32 -8 58.5t-21 46 t-29 30t-32 10.5q-15 0 -28.5 -10t-24 -41.5t-16.5 -91t-6 -158.5h71q55 0 93.5 1.5t63.5 3.5q29 2 47 5l-40 -130q-11 11 -32 21q-18 8 -50 15t-83 7h-71q-1 -91 -1.5 -206.5t-0.5 -267.5v-63.5t1 -61t2.5 -68.5t4.5 -85q3 -54 27.5 -90.5t75.5 -53.5v-5h-361z" />
<glyph unicode="g" horiz-adv-x="791" d="M62 463q0 114 23 210.5t69.5 167t116 110t162.5 39.5q29 0 72 -6.5t88 -8.5h177v-5q-57 -19 -83 -63.5t-26 -104.5q0 -53 -1 -121t-2 -143t-2.5 -152t-2.5 -148t-2 -132.5t-1 -104.5q0 -138 -22.5 -230t-62 -148t-93 -79.5t-114.5 -23.5q-36 0 -77.5 14.5t-77 47 t-59 84.5t-23.5 126q0 14 1.5 28t3.5 30l229 50l1 -5q-48 -29 -70.5 -67t-22.5 -79q0 -19 5 -39.5t16 -37.5t28 -28t42 -11q18 0 35.5 3t33.5 15t29 37.5t22.5 70t15 112.5t5.5 165q-72 -53 -140 -53q-64 0 -118 32.5t-93 94.5t-60.5 151t-21.5 202zM212 463 q0 -384 169 -384q23 0 52.5 9.5t62.5 32.5v14l1 216v58q0 103 -3 211q-3 138 -9 267q-12 5 -24.5 8.5t-20.5 3.5q-51 0 -93 -28.5t-72 -83.5t-46.5 -136.5t-16.5 -187.5z" />
<glyph unicode="h" horiz-adv-x="849" d="M-7 1262v5l291 80q-4 -40 -6 -93t-3 -114t-1 -128.5v-135.5q21 36 46.5 58.5t52 35t52 17.5t47.5 5q61 0 109.5 -26t82.5 -76.5t52.5 -125t18.5 -172.5v-120t1 -108t3 -107t5 -118q4 -50 26 -84.5t67 -49.5v-5h-322v5q41 16 59 52.5t20 85.5q6 169 6 266q0 106 -3 194 t-16.5 150.5t-41.5 97t-78 34.5q-38 0 -72.5 -19t-60.5 -53.5t-41.5 -82.5t-15.5 -106v-90q0 -100 2 -198t7 -197q3 -50 22.5 -84.5t60.5 -49.5v-5h-335v5q51 16 73 52.5t26 85.5q1 164 6 304.5t5 273.5q0 128 -0.5 217.5t-4.5 149.5t-12.5 95t-25 52.5t-41.5 22t-61 4.5z " />
<glyph unicode="i" horiz-adv-x="433" d="M17 908v5l291 80q-11 -109 -11.5 -240.5t-0.5 -272.5v-94v-72t2.5 -71.5t6.5 -93.5q4 -54 28 -90.5t75 -53.5v-5h-361v5q51 17 73 56t26 92q2 46 4.5 80.5t4 62.5t3 52t2.5 49t1.5 53.5t0.5 66.5q0 93 -0.5 158t-4.5 108.5t-12.5 68.5t-25 37.5t-41.5 15.5t-61 3z M123 1235q0 38 26 64.5t64 26.5t64.5 -26.5t26.5 -64.5t-26.5 -64t-64.5 -26t-64 26t-26 64z" />
<glyph unicode="j" horiz-adv-x="397" d="M7 908v5l291 80q-11 -128 -11.5 -278t-0.5 -315v-132t-4.5 -136t-15.5 -134t-34.5 -127t-60.5 -114.5t-93 -96.5l-61 80q43 44 70 100t42 118t20.5 127.5t6.5 128.5v25q0 49 -2 95q-2 57 -2 103q0 113 -0.5 192t-4.5 131t-12.5 82t-25 44.5t-41.5 18t-61 3.5zM113 1235 q0 38 26 64.5t64 26.5t64.5 -26.5t26.5 -64.5t-26.5 -64t-64.5 -26t-64 26t-26 64z" />
<glyph unicode="k" horiz-adv-x="819" d="M-5 1262v5l291 80q-11 -143 -11.5 -310.5t-0.5 -352.5v-153q24 46 51 99q23 45 52 102.5t60 118.5q25 49 51 89.5t58.5 70t72.5 46.5t92 19l58 -209l-6 -6q-23 24 -47.5 30t-40.5 6q-29 0 -52.5 -21.5t-46.5 -59.5q-25 -41 -52 -85t-50 -81q-27 -43 -53 -85l200 -338 q28 -48 51 -73t55 -25q28 0 72 24l6 -5l-91 -208q-51 9 -83.5 31t-56 53.5t-43 72t-46.5 87.5l-142 273l-67 -115q1 -44 2.5 -97t4.5 -96q4 -54 28 -90.5t75 -53.5v-5h-361v5q51 17 73 56t26 92q7 161 11.5 299t4.5 269q0 128 -0.5 217.5t-4.5 149.5t-12.5 95t-25 52.5 t-41.5 22t-61 4.5z" />
<glyph unicode="l" horiz-adv-x="410" d="M-5 1262v5l291 80q-11 -143 -11.5 -310t-0.5 -353q0 -136 0.5 -269t8.5 -266q4 -54 28 -90.5t75 -53.5v-5h-361v5q51 17 73 56t26 92q7 161 11.5 299t4.5 269q0 128 -0.5 217.5t-4.5 149.5t-12.5 95t-25 52.5t-41.5 22t-61 4.5z" />
<glyph unicode="m" horiz-adv-x="1245" d="M25 867v5l271 120q-8 -23 -9 -53.5t-1 -62.5q20 36 44 58.5t49 35t49.5 17.5t45.5 5q64 0 112.5 -37t77.5 -109q23 44 50.5 72.5t56 45t56 22.5t50.5 6q117 0 185 -102t68 -298v-123t1 -117t3 -116t5 -119q2 -26 9 -44t20 -30.5t31 -21.5t43 -16v-5h-332v5 q40 16 58.5 40.5t20.5 75.5q1 41 2.5 82.5t2 79.5t1 70.5t0.5 55.5q0 106 -2.5 194t-14.5 150.5t-36 97t-66 34.5q-33 0 -63.5 -18t-53.5 -51t-37.5 -78.5t-15.5 -100.5q4 -59 6 -124t3 -131.5t1 -133.5v-131q1 -26 7 -44t16 -30.5t25 -21.5t35 -16v-5h-302v5q35 16 51 40.5 t18 75.5q1 41 2.5 82.5t2 79.5t1 70.5t0.5 55.5q0 106 -2.5 194t-13 150.5t-32.5 97t-61 34.5q-36 0 -69 -19t-57.5 -53.5t-39 -82.5t-14.5 -106v-90q0 -48 0.5 -101.5t1.5 -107.5t2.5 -107t4.5 -101q2 -26 8.5 -44t17.5 -30.5t27.5 -21.5t39.5 -16v-5h-345v5 q51 16 73.5 40.5t25.5 75.5q2 48 4 99.5t3.5 102t2.5 98.5t1 90q0 103 -2 171.5t-13.5 109.5t-37 58t-72.5 17z" />
<glyph unicode="n" horiz-adv-x="807" d="M17 867v5l271 120q-8 -27 -9 -62.5t-1 -73.5q20 42 44 68.5t49 41.5t49.5 20.5t45.5 5.5q104 0 163.5 -101.5t59.5 -298.5v-128.5t1 -114.5t3 -114t5 -126q3 -38 25 -64.5t68 -39.5v-5h-312v5q35 11 50.5 40.5t18.5 67.5q3 94 4.5 168.5t1.5 127.5q0 106 -2 194 t-12 150.5t-29.5 97t-55.5 34.5q-33 0 -62 -19t-50.5 -53.5t-34.5 -82.5t-13 -106v-130q0 -97 2 -192.5t7 -192.5q3 -38 20.5 -64.5t52.5 -39.5v-5h-325v5q51 11 73.5 40.5t25.5 67.5q5 99 8 186.5t3 171.5q0 115 -2 191t-15.5 121.5t-43 64.5t-84.5 19z" />
<glyph unicode="o" horiz-adv-x="724" d="M63 482q0 123 23.5 218t64 160t95.5 98.5t119 33.5q61 0 115 -33.5t94 -98.5t63.5 -160t23.5 -218t-23.5 -218t-63.5 -160t-94 -99t-115 -34q-64 0 -119 34t-95.5 99t-64 160t-23.5 218zM213 482q0 -201 40 -303t112 -102q73 0 109.5 102t36.5 303t-36.5 302t-109.5 101 q-72 0 -112 -101t-40 -302z" />
<glyph unicode="p" horiz-adv-x="811" d="M16 971v5h185q32 -14 48.5 -38t24.5 -53q6 11 19 29t34 34.5t50.5 29t68.5 13.5h4q72 0 127 -39q56 -39 94 -109.5t57 -167.5t19 -211q0 -113 -23 -202t-64.5 -151t-99 -94.5t-126.5 -32.5q-19 0 -41.5 4.5t-45 15t-42 27t-32.5 39.5q0 -93 1 -160t13.5 -110.5t42 -64.5 t86.5 -21v-5l-291 -80q4 36 6 97t3.5 132t2 144t0.5 134l1 216v93v136q-2 111 -9 226q-4 61 -31 103.5t-82 60.5zM271 327q0 -90 16 -140t38 -73.5t45.5 -28.5t37.5 -5q189 0 189 384q0 106 -12 187.5t-34.5 136.5t-53.5 83.5t-68 28.5q-28 0 -54 -14t-46.5 -41.5t-34 -68.5 t-15.5 -96q-3 -50 -4.5 -94.5t-2 -87t-1 -84.5t-0.5 -87z" />
<glyph unicode="q" horiz-adv-x="808" d="M60 463q0 114 25 210.5t75 167t125 110t176 39.5q29 0 72 -6.5t88 -8.5h167v-5q-57 -19 -80.5 -63.5t-28.5 -104.5q-2 -155 -6.5 -288.5t-4.5 -259.5q0 -128 0.5 -217.5t4.5 -149.5t12.5 -95t25 -52.5t41 -22t61.5 -4.5v-5l-291 -80q3 29 5 75.5t3 101.5t2 114.5t1 116.5 q-42 -27 -82 -40t-78 -13q-69 0 -126.5 32.5t-99 94.5t-64.5 151t-23 202zM210 463q0 -384 189 -384q28 0 62 9.5t73 32.5v14l1 216v65q0 99 -2 203q-3 139 -10 268q-12 5 -24.5 8.5t-20.5 3.5q-60 0 -109.5 -28.5t-84.5 -83.5t-54.5 -136.5t-19.5 -187.5z" />
<glyph unicode="r" horiz-adv-x="609" d="M15 907v5l271 80q-8 -27 -9 -62.5t-1 -73.5q29 64 78 100t103 36q41 0 81 -22.5t74 -70.5l-107 -175l-3 2q6 16 6 43q0 19 -4 40t-12.5 38.5t-21.5 28.5t-32 11q-24 0 -49.5 -18.5t-46.5 -52.5t-35 -82.5t-14 -109.5q0 -131 0.5 -258.5t8.5 -256.5q5 -79 73 -104v-5h-325 v5q51 11 73.5 40.5t25.5 67.5q5 99 8 186.5t3 171.5q0 127 -2 211t-15.5 134t-43 70.5t-84.5 20.5z" />
<glyph unicode="s" horiz-adv-x="525" d="M41 97l107 129l3 -3q-9 -15 -9 -36q0 -19 7.5 -38.5t20 -35.5t30.5 -26t39 -10q18 0 33.5 9t27.5 24t18.5 33.5t6.5 37.5q0 37 -20 79.5t-49.5 88.5t-64.5 96t-64.5 103.5t-49.5 110t-20 115.5q0 47 20.5 87t54 69t77 45.5t89.5 16.5q51 0 100.5 -22t88.5 -72l-107 -159 l-3 2q6 16 6 35t-6 39t-17.5 36t-27 26t-34.5 10q-21 0 -40.5 -7.5t-34 -21t-23.5 -33t-9 -42.5q0 -37 20.5 -81.5t51.5 -94t66.5 -103t66.5 -108t51.5 -108t20.5 -103.5q0 -48 -18.5 -87.5t-49.5 -67.5t-71 -43.5t-83 -15.5q-57 0 -112 29.5t-93 96.5z" />
<glyph unicode="t" horiz-adv-x="539" d="M23 908v60h98q-2 58 -5 90.5t-9 49t-15.5 20.5t-23.5 4v5l231 110q-17 -65 -25.5 -134.5t-12.5 -144.5h70q55 0 93.5 1.5t63.5 3.5q29 2 47 5l-40 -130q-11 11 -32 21q-18 8 -50 15t-83 7h-72q-1 -35 -1 -71.5v-74.5q0 -87 0.5 -155.5t1 -129t1 -120t0.5 -129.5t23 -100 t52 -30q16 0 32 10.5t29 30t21 46t8 58.5q0 26 -6 43l3 2l127 -215q-65 -45 -120.5 -64.5t-103.5 -19.5q-49 0 -87.5 24.5t-65 64.5t-40.5 91.5t-14 105.5q0 61 1 107.5t1.5 87.5t1.5 80.5t1 87.5v155.5t-1 119.5q-29 2 -48 4t-30 4q-13 2 -21 4z" />
<glyph unicode="u" horiz-adv-x="846" d="M-15 861v5l321 120q-8 -13 -13.5 -28t-9.5 -37t-6.5 -52t-3.5 -74t-1.5 -103t-1.5 -138q0 -107 3 -194.5t13.5 -150t32.5 -97t61 -34.5q36 0 69 20t58 61.5t40 104t15 147.5q0 136 -1.5 223.5t-14.5 137.5t-41.5 69.5t-83.5 19.5v5l321 120q-8 -15 -14 -32t-10 -42.5 t-6.5 -61.5t-4 -88.5t-2 -123.5t-0.5 -166q0 -127 2 -207.5t15 -127t42 -64t84 -17.5v-5l-271 -80q8 27 9 62.5t1 73.5q-27 -42 -58.5 -68.5t-64.5 -41.5t-65.5 -20.5t-59.5 -5.5q-100 0 -156.5 111t-56.5 329q0 136 -1.5 223.5t-14.5 137.5t-41.5 69.5t-83.5 19.5z" />
<glyph unicode="v" horiz-adv-x="668" d="M-27 963h315l1 -4q-41 -14 -57 -46q-12 -24 -11 -56q0 -10 1 -21q14 -101 36 -200.5t42 -202.5q8 -45 17.5 -95.5t19.5 -106.5q10 55 19.5 106t17.5 96q20 103 36.5 202.5t30.5 200.5q1 11 1 21q0 32 -12 56q-16 32 -56 46l1 4h320v-4q-47 -15 -71 -48.5t-35 -78.5 q-28 -112 -50 -209.5t-39 -190.5q-18 -80 -34 -156.5t-25 -161.5q-1 -7 -1 -13q0 -29 11 -51q13 -28 44 -41l14 -5l1 -4h-351l1 4l12 5q31 13 44 41q11 24 11 55v9q-9 85 -25 161.5t-33 156.5q-18 93 -39.5 190.5t-49.5 209.5q-11 45 -35.5 79t-70.5 48z" />
<glyph unicode="w" horiz-adv-x="1072" d="M-26 963h315l1 -4q-40 -14 -56 -46q-12 -24 -12 -56q0 -10 1 -21q14 -115 36 -230.5t42 -232.5q8 -49 17.5 -104.5t19.5 -117.5q10 61 19.5 117t17.5 105q20 117 36.5 232.5t30.5 230.5q1 11 1 21q1 32 -11 56q-16 32 -57 46l1 4h320v-4q-20 -7 -37 -18q-22 -17 -30 -44 t-4 -61q14 -115 36 -230.5t42 -232.5q8 -49 17.5 -104.5t19.5 -117.5q10 61 19.5 117t17.5 105q20 117 36.5 232.5t30.5 230.5q1 11 1 21q1 32 -11 56q-16 32 -57 46l1 4h320v-4q-47 -15 -71 -48.5t-35 -78.5q-28 -112 -50 -209.5t-39 -190.5q-18 -80 -34 -156.5t-25 -161.5 q-1 -7 -1 -13q0 -29 11 -51q13 -28 44 -41l14 -5l1 -4h-351l1 4l12 5q31 13 44 41q11 24 11 55v9q-9 103 -25 193.5t-33 184.5q-8 56 -17 115t-19 118q-10 -59 -18.5 -118t-16.5 -115q-18 -94 -34 -184.5t-25 -193.5q-1 -7 -1 -13q0 -29 11 -51q13 -28 44 -41l14 -5l1 -4 h-351l1 4l12 5q31 13 44 41q11 24 11 55v9q-9 85 -25 161.5t-33 156.5q-18 93 -39.5 190.5t-49.5 209.5q-11 45 -35.5 79t-70.5 48z" />
<glyph unicode="x" horiz-adv-x="761" d="M-4 0v5q51 17 87.5 56.5t63.5 91.5q45 94 86 177t78 167q-23 51 -48 106t-47 102q-26 55 -50 108q-23 56 -61.5 92t-89.5 53l-3 5h331l3 -5q-39 -15 -48 -48q-3 -11 -3 -25q0 -25 11 -55q17 -50 36 -96t39 -92q20 46 39 92t36 96q11 31 11 55q0 13 -3 25q-9 33 -48 48 l3 5h321l-3 -5q-48 -17 -83.5 -53t-57.5 -92q-24 -53 -50 -108q-22 -47 -47.5 -102t-48.5 -106q39 -84 84 -166.5t91 -177.5q26 -51 59 -91t80 -57l2 -5h-330l-2 5q44 17 50 53q2 9 1 19q0 31 -16 72q-21 53 -42.5 101.5t-44.5 99.5q-21 -51 -40 -99.5t-39 -101.5 q-15 -42 -15 -73q0 -10 1 -18q6 -36 49 -53l-2 -5h-340z" />
<glyph unicode="y" horiz-adv-x="835" d="M16 958v5h342v-5q-46 -11 -66.5 -40.5t-22.5 -67.5q-2 -71 -3 -140t-1 -131v-115v-91q0 -145 42 -219.5t127 -74.5q23 0 52.5 9.5t62.5 32.5v14l2 294q0 106 -2 212.5t-7 212.5q-3 38 -22.5 64.5t-60.5 39.5v5h355v-5q-51 -11 -73.5 -40.5t-25.5 -67.5q-5 -111 -8 -208 t-3 -190v-136t-0.5 -104.5t-0.5 -97.5v-113q0 -138 -22 -230t-60 -148t-89.5 -79.5t-110.5 -23.5q-42 0 -90.5 14.5t-90 47t-69 84.5t-27.5 126q0 14 1.5 28t3.5 30l249 50l1 -5q-58 -29 -85.5 -67t-27.5 -79q0 -19 6.5 -39.5t21 -37.5t37.5 -28t56 -11q18 0 35.5 3t33.5 15 t29 37.5t22.5 70t15 112.5t5.5 165q-72 -53 -140 -53q-64 0 -118 23.5t-93 68t-60.5 109.5t-21.5 149v108.5t1 82.5v36.5v34.5q-1 33 -1.5 70t-2 82t-3.5 107q-3 38 -25 64.5t-68 39.5z" />
<glyph unicode="z" horiz-adv-x="641" d="M26 0v4q51 16 83.5 54t49.5 90q24 88 47 183.5t45 184.5q33 135 58 223t36 125q-48 -2 -98.5 -6t-92 -16t-67.5 -35.5t-25 -63.5l-8 -1q0 30 0.5 68.5t2.5 72.5q1 40 3 80h565v-6q-62 -20 -97.5 -61t-57 -95.5t-35 -119t-29.5 -133.5q-23 -94 -47 -189.5t-50 -207.5 q-2 -13 -3.5 -26t-0.5 -25q49 1 98.5 5.5t90.5 17t68 36t30 62.5l8 1q-3 -31 -7 -69t-8 -72q-4 -40 -10 -81h-549z" />
<glyph unicode="{" horiz-adv-x="455" d="M27 632v54q21 0 37 16t27 45t16.5 68t5.5 86q0 84 16.5 164t48.5 142.5t79.5 101t110.5 38.5q30 0 58 -7v-8v-43v-21.5t-2 -8.5q-40 0 -70.5 -32t-51.5 -84t-31.5 -118.5t-10.5 -134.5q0 -36 -6.5 -70.5t-19 -65t-31.5 -55.5t-43 -40q49 -32 74.5 -95.5t25.5 -135.5 q0 -68 10.5 -134.5t31.5 -118.5t51.5 -84t70.5 -32q2 0 2 -9v-21v-43v-8q-28 -7 -58 -7q-63 0 -110.5 38.5t-79.5 101t-48.5 142.5t-16.5 164q0 46 -5.5 85.5t-16.5 68.5t-27 45t-37 16z" />
<glyph unicode="|" horiz-adv-x="362" d="M117 -128v1536h128v-1536h-128z" />
<glyph unicode="}" horiz-adv-x="455" d="M28 -14v43v21t2 9q40 0 70.5 32t51.5 84t31.5 118.5t10.5 134.5q0 72 25.5 135.5t74.5 95.5q-24 15 -43 40t-31.5 55.5t-19 65t-6.5 70.5q0 68 -10.5 134.5t-31.5 118.5t-51.5 84t-70.5 32q-2 0 -2 8.5v21.5v43v8q28 7 58 7q63 0 110.5 -38.5t79.5 -101t48.5 -142.5 t16.5 -164q0 -47 5.5 -86t16.5 -68t27 -45t37 -16v-54q-21 0 -37 -16t-27 -45t-16.5 -68.5t-5.5 -85.5q0 -84 -16.5 -164t-48.5 -142.5t-79.5 -101t-110.5 -38.5q-30 0 -58 7v8z" />
<glyph unicode="~" horiz-adv-x="724" d="M45 825q2 44 18 75.5t42 52t61 30t75 9.5t84 -6.5t86.5 -14t83 -14t73.5 -6.5q37 0 60.5 10t31.5 33l40 -12q-2 -44 -18 -76t-42 -52t-61 -29.5t-75 -9.5q-41 0 -80 6.5t-79 14t-81.5 14t-86.5 6.5q-36 0 -60.5 -10.5t-31.5 -33.5z" />
<glyph unicode="&#xa1;" horiz-adv-x="383" d="M72 0v5q10 23 18.5 69t15 107.5t12.5 135t10.5 150.5t8 154t7 147t6 128t4.5 97h71q4 -36 7 -92.5t6 -125t6.5 -145.5t7.5 -154t9.5 -151t13 -137t17 -110.5t21.5 -72.5v-5h-241zM104 1235q0 38 26 64.5t64 26.5t64.5 -26.5t26.5 -64.5t-26.5 -64t-64.5 -26t-64 26 t-26 64z" />
<glyph unicode="&#xa2;" horiz-adv-x="737" d="M50 481q0 118 23.5 211t65.5 158t99.5 100.5t124.5 40.5v161h68v-163q60 -8 103.5 -33t75 -64.5t53 -91.5t38.5 -113l-195 -102l-2 4q20 25 28.5 50t8.5 49q0 28 -5 59t-17 58.5t-33.5 48.5t-54.5 29v-806q34 4 62.5 22.5t51 47t38.5 66t26 79.5l53 -146 q-86 -159 -231 -173v-165h-68v166q-68 9 -125 46t-99 101.5t-65.5 155t-23.5 204.5zM200 481q0 -175 42.5 -275t120.5 -123v800q-72 -17 -117.5 -116t-45.5 -286z" />
<glyph unicode="&#xa3;" horiz-adv-x="826" d="M51 607v143q21 -7 52 -12.5t74 -10.5q1 57 1.5 112t0.5 110q0 97 23 171t63 124.5t93.5 76.5t113.5 26q46 0 88 -22t75 -61.5t53 -95.5t21 -124l-169 -108l-3 5q24 23 35 52t11 59q0 34 -9 67t-25.5 59.5t-39 42.5t-48.5 16q-36 0 -64 -26t-46.5 -68.5t-28 -96 t-9.5 -108.5l1 -216q107 0 177.5 3.5t114.5 25.5v-153q-41 17 -110 28t-182 11q2 -139 4.5 -275.5t6.5 -264.5l204 20q-26 21 -38.5 42.5t-12.5 38.5q0 69 54.5 117t167.5 74l92 -167l-5 -3q-14 16 -33.5 23.5t-39.5 7.5q-21 0 -41 -7t-36 -20t-26 -31.5t-10 -41.5 q0 -18 9 -36.5t20 -37.5t20 -38t9 -38h-605v5q57 19 81 63.5t28 104.5q5 126 8 240t5 222q-45 -2 -75 -8t-50 -20z" />
<glyph unicode="&#xa4;" horiz-adv-x="871" d="M57 201q23 20 53 45.5t67 59.5q-21 76 -21 176q0 50 5.5 94.5t16.5 82.5q-37 33 -66.5 58.5t-54.5 44.5l101 101q26 -39 71 -90q38 59 92 89t117 30q61 0 114.5 -31t91.5 -91q23 26 41 49t32 44l101 -101q-26 -20 -56.5 -46t-68.5 -61q21 -75 21 -173q0 -49 -5.5 -92 t-15.5 -81q39 -35 69.5 -61.5t55.5 -46.5l-94 -94q-15 18 -34 40.5t-44 48.5q-38 -62 -91.5 -93.5t-116.5 -31.5q-65 0 -119.5 31t-92.5 91q-24 -26 -42.5 -47t-32.5 -39zM286 482q0 -149 40 -227t112 -78q73 0 109.5 78t36.5 227t-36.5 226t-109.5 77q-72 0 -112 -77 t-40 -226z" />
<glyph unicode="&#xa5;" horiz-adv-x="875" d="M27 1327h360l1 -5q-48 -17 -66.5 -53.5t-11.5 -90.5q11 -85 27.5 -162.5t34 -153.5t35 -153.5t31.5 -162.5q14 85 31.5 162.5t35.5 153.5t34 153.5t27 162.5q6 54 -12 90.5t-66 53.5l1 5h360l-1 -5q-54 -17 -81.5 -56.5t-42.5 -91.5q-23 -81 -45 -155t-41 -143 q-19 -75 -39 -147.5t-38 -147.5q54 2 93.5 7.5t68.5 20.5v-163q-30 10 -75 17t-112 10q-5 -25 -9.5 -49.5t-8.5 -50.5q72 1 121 6.5t84 22.5v-163q-32 10 -81.5 17.5t-125.5 10.5v-44q0 -36 1.5 -68.5t11.5 -59.5t31 -49.5t60 -38.5v-7h-374v7q53 15 83 70t33 140 q1 13 1 25.5v25.5q-81 -1 -132.5 -4.5t-82.5 -15.5v153q32 -8 82 -16t125 -11q-4 26 -8.5 51t-9.5 50q-70 -1 -115.5 -5t-73.5 -15v153q26 -8 66.5 -14t97.5 -10q-17 74 -36.5 146t-37.5 146q-19 69 -41 143t-45 155q-15 52 -42.5 91.5t-81.5 56.5z" />
<glyph unicode="&#xa6;" horiz-adv-x="370" d="M121 -128v640h128v-640h-128zM121 768v640h128v-640h-128z" />
<glyph unicode="&#xa7;" horiz-adv-x="579" d="M68 97l107 129l3 -3q-9 -15 -9 -36q0 -19 7.5 -38.5t20 -35.5t30.5 -26t39 -10q18 0 33.5 9t27.5 24t18.5 33.5t6.5 37.5q0 28 -20 60t-49.5 67.5t-64.5 74t-64.5 79.5t-49.5 84t-20 88q0 56 28.5 102t73.5 75q-21 25 -39.5 50.5t-32.5 52.5t-22 54.5t-8 56.5 q0 47 20.5 87t54 69t77 45.5t89.5 16.5q51 0 100.5 -22t88.5 -72l-107 -159l-3 2q6 16 6 35t-6 39t-17.5 36t-27 26t-34.5 10q-21 0 -40.5 -7.5t-34 -21t-23.5 -33t-9 -42.5q0 -29 20.5 -63t51.5 -71.5t66.5 -78t66.5 -82t51.5 -83t20.5 -80.5q0 -63 -30 -109.5t-77 -73.5 q21 -26 40.5 -52.5t34.5 -52.5t23.5 -52t8.5 -51q0 -48 -18.5 -87.5t-49.5 -67.5t-71 -43.5t-83 -15.5q-57 0 -112 29.5t-93 96.5zM218 643q0 -34 27 -74t65 -85q19 14 30.5 38t11.5 50q0 33 -27 71.5t-65 82.5q-19 -14 -30.5 -35.5t-11.5 -47.5z" />
<glyph unicode="&#xa8;" horiz-adv-x="644" d="M48 1198q0 21 8 39.5t21.5 32.5t31.5 22t39 8t39.5 -8t32.5 -22t22 -32.5t8 -39.5t-8 -39t-22 -31.5t-32.5 -21.5t-39.5 -8q-42 0 -71 29t-29 71zM394 1198q0 21 8 39.5t21.5 32.5t31.5 22t39 8t39.5 -8t32.5 -22t22 -32.5t8 -39.5t-8 -39t-22 -31.5t-32.5 -21.5 t-39.5 -8q-42 0 -71 29t-29 71z" />
<glyph unicode="&#xa9;" horiz-adv-x="926" d="M74 788q0 131 30.5 231.5t83.5 168.5t124.5 103t154.5 35q79 0 149.5 -35t122.5 -103t82.5 -168.5t30.5 -231.5q0 -126 -32 -226t-85 -169t-122.5 -105.5t-145.5 -36.5q-84 0 -156 36t-124.5 104.5t-82.5 168.5t-30 228zM180 777q0 -85 17 -164t51 -140t86 -97.5 t122 -36.5q75 0 131 37.5t92.5 100t55 142.5t18.5 166t-18.5 168t-55.5 145.5t-92.5 102t-130.5 38.5q-69 0 -120.5 -39.5t-86 -104.5t-52 -148t-17.5 -170zM247 787q0 81 17 143.5t47 105t70 64.5t86 22q51 0 87 -17t61.5 -47.5t42.5 -72.5t29 -93l-146 -76l-2 2 q16 19 21.5 38t5.5 37q0 24 -3.5 50t-13.5 48.5t-27 37t-44 14.5q-51 0 -84.5 -62t-33.5 -194q0 -125 34.5 -190t94.5 -65q25 0 46 13t37 35t27.5 51.5t18.5 63.5l40 -110q-65 -132 -175 -132q-50 0 -93 22t-75 64t-50 104.5t-18 143.5z" />
<glyph unicode="&#xaa;" horiz-adv-x="539" d="M54 819q0 49 16 98t45.5 88t71 63t91.5 24q21 0 46 -5q0 59 -5 97t-15 59.5t-25 29.5t-35 8q-34 0 -48 -24.5t-14 -56.5q0 -21 6 -42.5t17 -39.5l-133 76q10 51 29.5 81t44 46.5t52.5 21.5t54 5q93 0 139 -63.5t46 -187.5q0 -98 -0.5 -156.5t-1 -91.5t-0.5 -48.5v-25.5 q0 -18 2 -38t9 -38.5t20 -33t35 -21.5v-4h-120q-17 11 -25 28t-13 38q-5 -8 -14 -21t-24 -25t-35.5 -21t-48.5 -9q-44 0 -75.5 15.5t-51.5 41.5t-30 60t-10 72zM165 838q0 -28 4 -54t12.5 -45.5t21.5 -31.5t30 -12q27 0 44.5 20.5t28 50.5t14.5 64t4 61v136q-20 7 -41 7 q-28 0 -50 -16.5t-37 -44t-23 -63t-8 -72.5z" />
<glyph unicode="&#xab;" horiz-adv-x="796" d="M30 431v101q67 55 127 104q25 21 51.5 42.5t50 41.5t43 36t31.5 27q13 11 24.5 20.5t21.5 21t17.5 26.5t12.5 36h4v-246h-5q-5 19 -14 26t-19.5 7t-21 -5.5t-17.5 -11.5t-20.5 -16.5t-30.5 -24t-36.5 -28.5t-38.5 -30q-45 -35 -97 -77q52 -42 97 -77q19 -15 38.5 -30 t36.5 -28.5t30.5 -24t20.5 -15.5q7 -6 17.5 -11.5t21 -5.5t19.5 7t14 26h5v-246h-4q-5 21 -12.5 36t-17 26.5t-21.5 21t-25 20.5q-12 9 -32 24.5t-43.5 35t-49.5 41.5t-51 43q-60 50 -127 107zM330 431v101q67 55 127 104q25 21 51.5 42.5t50 41.5t43 36t31.5 27 q13 11 24.5 20.5t21.5 21t17.5 26.5t12.5 36h4v-246h-5q-5 19 -14 26t-19.5 7t-21 -5.5t-17.5 -11.5t-20.5 -16.5t-30.5 -24t-36.5 -28.5t-38.5 -30q-45 -35 -97 -77q52 -42 97 -77q19 -15 38.5 -30t36.5 -28.5t30.5 -24t20.5 -15.5q7 -6 17.5 -11.5t21 -5.5t19.5 7t14 26h5 v-246h-4q-5 21 -12.5 36t-17 26.5t-21.5 21t-25 20.5q-12 9 -32 24.5t-43.5 35t-49.5 41.5t-51 43q-60 50 -127 107z" />
<glyph unicode="&#xac;" horiz-adv-x="700" d="M69 487v133q37 -7 102 -12.5t171 -5.5h179q43 0 83 1v-347h-74v233q-35 4 -81.5 6t-108.5 2q-108 0 -172.5 -1.5t-98.5 -8.5z" />
<glyph unicode="&#xad;" horiz-adv-x="685" d="M75 487v133q37 -7 102 -12.5t171 -5.5q96 0 159 2.5t103 16.5v-143q-37 8 -99 13.5t-165 5.5q-108 0 -172.5 -1.5t-98.5 -8.5z" />
<glyph unicode="&#xae;" horiz-adv-x="926" d="M74 788q0 131 30.5 231.5t83.5 168.5t124.5 103t154.5 35q79 0 149.5 -35t122.5 -103t82.5 -168.5t30.5 -231.5q0 -126 -32 -226t-85 -169t-122.5 -105.5t-145.5 -36.5q-84 0 -156 36t-124.5 104.5t-82.5 168.5t-30 228zM180 777q0 -85 17 -164t51 -140t86 -97.5 t122 -36.5q45 0 83 14t70 40q-5 5 -8 11.5t-6 14.5l-136 362q-2 -1 -7 -2t-11 -1.5t-11 -1t-7 -0.5l3 -215q3 -56 48 -72v-3h-169v3q24 8 34 28t12 46q4 81 6 150t2 135q0 59 -1 116.5t-6 120.5q-2 23 -14 40t-33 25v2h167q29 0 54 -10t44 -29t29.5 -47t10.5 -64 q0 -75 -25 -125.5t-67 -73.5q16 -43 31.5 -84t32 -83.5t34 -87t38.5 -93.5l3 -11q48 64 72 153.5t24 187.5q0 86 -18.5 168t-55.5 145.5t-92.5 102t-130.5 38.5q-69 0 -120.5 -39.5t-86 -104.5t-52 -148t-17.5 -170zM421.5 854q-0.5 -10 0.5 -21q59 0 85 42t26 127 q0 47 -17 71.5t-52 24.5h-19t-19 -1v-20q-1 -37 -2 -73q-1 -31 -1.5 -66t-0.5 -63q0 -11 -0.5 -21z" />
<glyph unicode="&#xaf;" horiz-adv-x="522" d="M53 1162v173q28 -11 79 -19.5t134 -8.5q74 0 122.5 3.5t79.5 25.5v-183q-28 13 -75.5 21t-128.5 8q-86 0 -135.5 -2.5t-75.5 -17.5z" />
<glyph unicode="&#xb0;" horiz-adv-x="538" d="M43 1065q0 52 19.5 92.5t51 67.5t72 41t83.5 14t83.5 -14t72 -41t51 -67.5t19.5 -92.5q0 -53 -19.5 -93.5t-51.5 -67.5t-72.5 -41t-82.5 -14t-82.5 14t-72.5 41t-51.5 67.5t-19.5 93.5zM131 1065q0 -26 8.5 -50.5t25.5 -44t43 -32t61 -14.5q35 1 60.5 13t42.5 31.5 t25.5 44t8.5 50.5q0 27 -9 53t-26 46t-42.5 32.5t-59.5 12.5t-59.5 -12t-43 -32t-26.5 -45.5t-9 -52.5z" />
<glyph unicode="&#xb1;" horiz-adv-x="618" d="M71 468v142q26 -6 70.5 -11t113.5 -7q0 64 -3 109.5t-15 75.5h142q-8 -28 -12.5 -72t-6.5 -113q65 0 110.5 3t75.5 15v-142q-28 7 -72 11.5t-114 6.5q2 -71 6.5 -115t12.5 -69h-142q5 27 10 71.5t7 112.5q-70 -1 -114 -5.5t-69 -12.5zM99 54v173q28 -11 79 -19.5 t134 -8.5q74 0 122.5 3.5t79.5 25.5v-183q-28 13 -75.5 21t-128.5 8q-86 0 -135.5 -2.5t-75.5 -17.5z" />
<glyph unicode="&#xb2;" horiz-adv-x="538" d="M34 474q20 46 51.5 99.5t68 111.5t73 119t66.5 121.5t48.5 119t18.5 112.5q0 47 -25 69.5t-58 22.5q-21 0 -42 -7.5t-37.5 -22.5t-27 -37t-10.5 -51q0 -12 1.5 -26t5.5 -29l-3 -2l-100 163q42 45 98.5 67t113.5 22q40 0 77.5 -10.5t65.5 -32t45 -53.5t17 -75 q0 -46 -14.5 -99t-39.5 -111t-57.5 -118.5t-68.5 -122.5t-73.5 -123.5t-71.5 -120.5h147q30 0 52.5 8.5t38.5 22.5t26 32t14 37h4l-1 -175q-23 0 -60 -0.5t-81 -0.5q-41 0 -81.5 -0.5t-73.5 -0.5h-75z" />
<glyph unicode="&#xb3;" horiz-adv-x="552" d="M51 615l153 42v-4q-17 -14 -28.5 -38t-11.5 -45q0 -52 20.5 -82.5t51.5 -30.5q24 0 45 18.5t36.5 49.5t24.5 69.5t9 79.5q0 39 -9.5 75.5t-30 65t-53.5 46t-80 17.5v74q42 1 69.5 13.5t44.5 35.5t24 56.5t7 75.5q0 72 -28 106.5t-65 34.5q-35 0 -49.5 -20.5t-14.5 -45.5 q0 -22 9.5 -44t28.5 -36v-4l-153 14q0 54 17.5 93.5t45 65.5t61.5 38.5t66 12.5q46 0 85.5 -14t68.5 -42t46 -68.5t17 -92.5q0 -79 -36 -133t-96 -86q69 -35 111 -94t42 -146q0 -70 -18 -123.5t-50 -90t-77.5 -55.5t-99.5 -19q-32 0 -65 13.5t-59 42t-42.5 72t-16.5 103.5z " />
<glyph unicode="&#xb4;" horiz-adv-x="282" d="M44 1043q5 77 9 148t8 126q4 64 8 121h203q-29 -68 -56 -139q-12 -30 -24 -64.5t-24 -70t-22.5 -71.5t-18.5 -70z" />
<glyph unicode="&#xb5;" horiz-adv-x="869" d="M12 861v5l321 120q-8 -13 -13.5 -28t-9.5 -37t-6.5 -52t-3.5 -74t-1.5 -103t-0.5 -138q0 -107 2.5 -194.5t13 -150t32.5 -97t61 -34.5q36 0 69 20t58 61.5t40 104t15 147.5q0 136 -1.5 223.5t-14.5 137.5t-41.5 69.5t-83.5 19.5v5l321 120q-8 -15 -14 -32t-10 -42.5 t-6.5 -61.5t-4 -88.5t-2 -123.5t-0.5 -166q0 -127 2 -207.5t15 -127t42 -64t84 -17.5v-5l-271 -80q8 27 9 62.5t1 73.5q-27 -42 -58.5 -68.5t-64.5 -41.5t-65.5 -20.5t-59.5 -5.5q-22 0 -41 5.5t-37 15.5q2 -33 3.5 -72t4.5 -90q3 -54 27.5 -90.5t75.5 -53.5v-5h-361v5 q17 6 31 17t25 37.5t20 74t16 126t12.5 193.5t10.5 277q3 102 3 176q0 81 -6 134t-21.5 84t-43.5 43.5t-73 12.5z" />
<glyph unicode="&#xb6;" horiz-adv-x="988" d="M38 947q0 92 30 163t81.5 119t119.5 73t144 25h519v-5q-46 -14 -70.5 -47.5t-29.5 -80.5q-11 -126 -13 -241t-2 -232q0 -65 1 -132t3 -137t5 -144t7 -155q4 -53 26 -92t73 -56v-5h-291v5q16 17 23.5 53.5t9.5 90.5q1 70 2 147.5t2 156t1.5 156t1.5 148.5l-7 444 q-48 -2 -74 -2t-32 -5q-12 -126 -13.5 -241t-1.5 -232q0 -65 1 -132t3 -137t5 -144t7 -155q1 -53 5.5 -92t13.5 -56v-5h-281v5q51 17 75 53.5t28 90.5q1 55 2 116t2 122.5t1.5 122.5t1.5 117q-76 -4 -133.5 10t-99.5 39.5t-70.5 60t-45 71t-23.5 73t-7 66.5z" />
<glyph unicode="&#xb7;" horiz-adv-x="308" d="M53 671q0 21 8 39.5t21.5 32.5t31.5 22t39 8t39.5 -8t32.5 -22t22 -32.5t8 -39.5t-8 -39t-22 -31.5t-32.5 -21.5t-39.5 -8q-42 0 -71 29t-29 71z" />
<glyph unicode="&#xb8;" horiz-adv-x="458" d="M99 -249l123 62l1 -2q-8 -26 -8 -43q0 -21 13.5 -34t48.5 -13q14 0 28 5t25.5 16t18.5 29t7 44q0 37 -27.5 56t-76.5 19q-4 0 -10 -0.5t-11 -1.5q-6 -1 -13 -2l-8 60l-7 57h84l4 -52q42 -3 78 -13t61.5 -27.5t40 -41.5t14.5 -54q0 -45 -18 -80t-47 -59t-65.5 -36 t-74.5 -12q-30 0 -58.5 7.5t-52.5 23t-42.5 38.5t-27.5 54z" />
<glyph unicode="&#xb9;" horiz-adv-x="406" d="M25 1240q0 3 12.5 10.5t35.5 17.5l206 79q-3 -59 -5 -126.5t-3 -140t-1 -148.5v-152q0 -73 1 -145t6 -144q2 -38 20 -65t54 -38v-4h-278v4q36 11 52 39t18 66q6 116 9 214t3 192q0 106 -0.5 174.5t-5 108.5t-15 55.5t-31.5 15.5q-6 0 -17 -2.5t-22.5 -5t-21 -5 t-13.5 -2.5t-4 2z" />
<glyph unicode="&#xba;" horiz-adv-x="683" d="M51 951q0 96 22.5 170t62.5 124.5t93.5 76.5t115.5 26q59 0 111.5 -26t91.5 -76.5t61.5 -124.5t22.5 -170t-22.5 -170.5t-61.5 -125t-91.5 -77t-111.5 -26.5q-62 0 -115.5 26.5t-93.5 77t-62.5 125t-22.5 170.5zM202 951q0 -154 37 -233t106 -79q68 0 102 79t34 233 q0 153 -34 231.5t-102 78.5q-69 0 -106 -78.5t-37 -231.5z" />
<glyph unicode="&#xbb;" horiz-adv-x="796" d="M84 76v246h5q5 -19 14 -26t19.5 -7t20.5 5.5t18 11.5q7 5 20.5 15.5t30.5 24t36.5 28.5t38.5 30q45 35 97 77q-52 42 -97 77q-19 15 -38.5 30t-36.5 28.5t-30.5 24t-20.5 16.5q-8 6 -18 11.5t-20.5 5.5t-19.5 -7t-14 -26h-5v246h4q4 -21 12 -36t18 -26.5t21.5 -21 t24.5 -20.5q12 -11 31.5 -27t43 -36t49.5 -41.5t52 -42.5q60 -49 127 -104v-101q-68 -57 -127 -107q-26 -21 -52 -43t-49.5 -41.5t-43 -35t-31.5 -24.5q-13 -11 -25 -20.5t-21.5 -21t-17.5 -26.5t-12 -36h-4zM384 76v246h5q5 -19 14 -26t19.5 -7t20.5 5.5t18 11.5 q7 5 20.5 15.5t30.5 24t36.5 28.5t38.5 30q45 35 97 77q-52 42 -97 77q-19 15 -38.5 30t-36.5 28.5t-30.5 24t-20.5 16.5q-8 6 -18 11.5t-20.5 5.5t-19.5 -7t-14 -26h-5v246h4q4 -21 12 -36t18 -26.5t21.5 -21t24.5 -20.5q12 -11 31.5 -27t43 -36t49.5 -41.5t52 -42.5 q60 -49 127 -104v-101q-68 -57 -127 -107q-26 -21 -52 -43t-49.5 -41.5t-43 -35t-31.5 -24.5q-13 -11 -25 -20.5t-21.5 -21t-17.5 -26.5t-12 -36h-4z" />
<glyph unicode="&#xbc;" horiz-adv-x="1370" d="M34 1240q0 3 12.5 10.5t35.5 17.5l206 79q-3 -59 -5 -126.5t-3 -140t-1 -148.5v-152q0 -73 1 -145t6 -144q2 -38 20 -65t54 -38v-4h-278v4q36 11 52 39t18 66q6 116 9 214t3 192q0 106 -0.5 174.5t-5 108.5t-15 55.5t-31.5 15.5q-6 0 -17 -2.5t-22.5 -5t-21 -5 t-13.5 -2.5t-4 2zM300 223l633 928l131 1l-633 -928zM765 316q18 22 41.5 59.5t49 84t52 98t51.5 102.5q58 119 120 255l121 49q-8 -103 -9 -222.5t-1 -253.5v-93.5t1 -92.5q28 0 51 8.5t39.5 23t26.5 32.5t14 37h4v-177h-133q1 -32 1.5 -59.5t2.5 -58.5q4 -38 21.5 -64.5 t52.5 -38.5v-4h-259v4q36 12 52.5 40.5t18.5 66.5q2 31 3 58t2 56h-291zM868 302h223q3 112 3 212v240q-23 -49 -49 -104.5t-54.5 -113.5t-59.5 -117.5t-63 -116.5z" />
<glyph unicode="&#xbd;" horiz-adv-x="1406" d="M34 1240q0 3 12.5 10.5t35.5 17.5l206 79q-3 -59 -5 -126.5t-3 -140t-1 -148.5v-152q0 -73 1 -145t6 -144q2 -38 20 -65t54 -38v-4h-278v4q36 11 52 39t18 66q6 116 9 214t3 192q0 106 -0.5 174.5t-5 108.5t-15 55.5t-31.5 15.5q-6 0 -17 -2.5t-22.5 -5t-21 -5 t-13.5 -2.5t-4 2zM302 223l633 928l131 1l-633 -928zM907 92q20 46 51.5 99.5t68 111.5t73 119t66.5 121.5t48.5 119t18.5 112.5q0 47 -25 69.5t-58 22.5q-21 0 -42 -7.5t-37.5 -22.5t-27 -37t-10.5 -51q0 -12 1.5 -26t5.5 -29l-3 -2l-100 163q42 45 98.5 67t113.5 22 q40 0 77.5 -10.5t65.5 -32t45 -53.5t17 -75q0 -46 -14.5 -99t-39.5 -111t-57.5 -118.5t-68.5 -122.5t-73.5 -123.5t-71.5 -120.5h147q30 0 52.5 8.5t38.5 22.5t26 32t14 37h4l-1 -175q-23 0 -60 -0.5t-81 -0.5q-41 0 -81.5 -0.5t-73.5 -0.5h-75z" />
<glyph unicode="&#xbe;" horiz-adv-x="1408" d="M50 615l153 42v-4q-17 -14 -28.5 -38t-11.5 -45q0 -52 20.5 -82.5t51.5 -30.5q24 0 45 18.5t36.5 49.5t24.5 69.5t9 79.5q0 39 -9.5 75.5t-30 65t-53.5 46t-80 17.5v74q42 1 69.5 13.5t44.5 35.5t24 56.5t7 75.5q0 72 -28 106.5t-65 34.5q-35 0 -49.5 -20.5t-14.5 -45.5 q0 -22 9.5 -44t28.5 -36v-4l-153 14q0 54 17.5 93.5t45 65.5t61.5 38.5t66 12.5q46 0 85.5 -14t68.5 -42t46 -68.5t17 -92.5q0 -79 -36 -133t-96 -86q69 -35 111 -94t42 -146q0 -70 -18 -123.5t-50 -90t-77.5 -55.5t-99.5 -19q-32 0 -65 13.5t-59 42t-42.5 72t-16.5 103.5z M371 223l633 928l131 1l-633 -928zM808 317q18 22 41.5 59.5t49 84t52 98t51.5 102.5q58 119 120 255l121 49q-8 -103 -9 -222.5t-1 -253.5v-93.5t1 -92.5q28 0 51 8.5t39.5 23t26.5 32.5t14 37h4v-177h-133q1 -32 1.5 -59.5t2.5 -58.5q4 -38 21.5 -64.5t52.5 -38.5v-4h-259 v4q36 12 52.5 40.5t18.5 66.5q2 31 3 58t2 56h-291zM911 303h223q3 112 3 212v240q-23 -49 -49 -104.5t-54.5 -113.5t-59.5 -117.5t-63 -116.5z" />
<glyph unicode="&#xbf;" horiz-adv-x="739" d="M41 308q0 77 16 134.5t41.5 102.5t58.5 81t67.5 68.5t67.5 65t58.5 71.5t41.5 87t16 112h93q0 -86 -23.5 -152t-58 -120.5t-75.5 -102t-75.5 -98t-58 -108t-23.5 -132.5q0 -53 16.5 -92.5t43.5 -65t60.5 -38t67.5 -12.5q42 0 75 17.5t55 45t33.5 61.5t11.5 67 q0 24 -6.5 46t-19.5 38.5t-32.5 26.5t-46.5 10q-18 0 -39 -3l146 103q80 -45 114.5 -106t34.5 -126q0 -60 -25.5 -117t-69 -101.5t-101.5 -72t-123 -27.5q-75 0 -138 21.5t-108 63.5t-70 105t-25 147zM355 1229q0 21 8 39t22 31.5t32.5 21.5t39.5 8q42 0 71 -29t29 -71 q0 -21 -8 -39.5t-21.5 -32.5t-31.5 -22t-39 -8t-39.5 8t-32.5 22t-22 32.5t-8 39.5z" />
<glyph unicode="&#xc0;" d="M-80 -40l3 3q37 -17 68 -17q41 0 65.5 40t37.5 114q14 61 26 142t22 167t18 168t15 144q12 116 23.5 231.5t17.5 241.5q3 42 -12.5 74t-51.5 48l-15 6l-1 5h495l-1 -5l-16 -6q-36 -16 -51.5 -48t-11.5 -74q6 -126 18 -241t26 -232q16 -131 32 -269t43 -299 q13 -53 41.5 -92t82.5 -56l1 -5h-360l-1 5q48 17 65.5 53.5t12.5 90.5q-5 53 -9.5 105t-9.5 106q-22 2 -49 4t-63 6q-32 3 -57.5 5.5t-45.5 5.5q-3 -28 -6.5 -62t-7.5 -71.5t-9 -76.5t-12 -77q-5 -31 -10.5 -63t-14.5 -61.5t-24 -55t-40 -44t-62.5 -29.5t-91.5 -10z M241 1802h203q4 -57 8 -121q4 -55 8 -126t9 -148l-83 -20q-17 68 -41.5 141.5t-47.5 134.5q-27 71 -56 139zM286 447h96q30 0 55.5 0.5t46.5 1.5l-21 235q-2 19 -5.5 52t-7.5 74.5t-8.5 88.5t-8.5 94q-11 108 -22 235l-48 1q-12 -122 -23 -229q-5 -46 -9.5 -93t-9 -89 t-8 -77t-5.5 -57q-7 -71 -11.5 -128t-10.5 -109z" />
<glyph unicode="&#xc1;" d="M-80 -40l3 3q37 -17 68 -17q41 0 65.5 40t37.5 114q14 61 26 142t22 167t18 168t15 144q12 116 23.5 231.5t17.5 241.5q3 42 -12.5 74t-51.5 48l-15 6l-1 5h495l-1 -5l-16 -6q-36 -16 -51.5 -48t-11.5 -74q6 -126 18 -241t26 -232q16 -131 32 -269t43 -299 q13 -53 41.5 -92t82.5 -56l1 -5h-360l-1 5q48 17 65.5 53.5t12.5 90.5q-5 53 -9.5 105t-9.5 106q-22 2 -49 4t-63 6q-32 3 -57.5 5.5t-45.5 5.5q-3 -28 -6.5 -62t-7.5 -71.5t-9 -76.5t-12 -77q-5 -31 -10.5 -63t-14.5 -61.5t-24 -55t-40 -44t-62.5 -29.5t-91.5 -10z M241 1407q5 77 9 148t8 126q4 64 8 121h203q-29 -68 -56 -139q-12 -30 -24 -64.5t-24 -70t-22.5 -71.5t-18.5 -70zM286 447h96q30 0 55.5 0.5t46.5 1.5l-21 235q-2 19 -5.5 52t-7.5 74.5t-8.5 88.5t-8.5 94q-11 108 -22 235l-48 1q-12 -122 -23 -229q-5 -46 -9.5 -93t-9 -89 t-8 -77t-5.5 -57q-7 -71 -11.5 -128t-10.5 -109z" />
<glyph unicode="&#xc2;" d="M-80 -40l3 3q37 -17 68 -17q41 0 65.5 40t37.5 114q14 61 26 142t22 167t18 168t15 144q12 116 23.5 231.5t17.5 241.5q3 42 -12.5 74t-51.5 48l-15 6l-1 5h495l-1 -5l-16 -6q-36 -16 -51.5 -48t-11.5 -74q6 -126 18 -241t26 -232q16 -131 32 -269t43 -299 q13 -53 41.5 -92t82.5 -56l1 -5h-360l-1 5q48 17 65.5 53.5t12.5 90.5q-5 53 -9.5 105t-9.5 106q-22 2 -49 4t-63 6q-32 3 -57.5 5.5t-45.5 5.5q-3 -28 -6.5 -62t-7.5 -71.5t-9 -76.5t-12 -77q-5 -31 -10.5 -63t-14.5 -61.5t-24 -55t-40 -44t-62.5 -29.5t-91.5 -10z M139 1452l150 314h132l150 -314h-150l-66 248l-66 -248h-150zM286 447h96q30 0 55.5 0.5t46.5 1.5l-21 235q-2 19 -5.5 52t-7.5 74.5t-8.5 88.5t-8.5 94q-11 108 -22 235l-48 1q-12 -122 -23 -229q-5 -46 -9.5 -93t-9 -89t-8 -77t-5.5 -57q-7 -71 -11.5 -128t-10.5 -109z " />
<glyph unicode="&#xc3;" d="M-80 -40l3 3q37 -17 68 -17q41 0 65.5 40t37.5 114q14 61 26 142t22 167t18 168t15 144q12 116 23.5 231.5t17.5 241.5q3 42 -12.5 74t-51.5 48l-15 6l-1 5h495l-1 -5l-16 -6q-36 -16 -51.5 -48t-11.5 -74q6 -126 18 -241t26 -232q16 -131 32 -269t43 -299 q13 -53 41.5 -92t82.5 -56l1 -5h-360l-1 5q48 17 65.5 53.5t12.5 90.5q-5 53 -9.5 105t-9.5 106q-22 2 -49 4t-63 6q-32 3 -57.5 5.5t-45.5 5.5q-3 -28 -6.5 -62t-7.5 -71.5t-9 -76.5t-12 -77q-5 -31 -10.5 -63t-14.5 -61.5t-24 -55t-40 -44t-62.5 -29.5t-91.5 -10zM82 1484 q2 44 18 75.5t42 52t61 30t75 9.5q28 0 57.5 -6.5t58 -14t54.5 -14t47 -6.5q37 0 60.5 10t31.5 33l40 -12q-2 -44 -18 -76t-42 -52t-61 -29.5t-75 -9.5q-28 0 -55 6.5t-53.5 14t-53.5 14t-55 6.5q-36 0 -60.5 -10.5t-31.5 -33.5zM286 447h96q30 0 55.5 0.5t46.5 1.5l-21 235 q-2 19 -5.5 52t-7.5 74.5t-8.5 88.5t-8.5 94q-11 108 -22 235l-48 1q-12 -122 -23 -229q-5 -46 -9.5 -93t-9 -89t-8 -77t-5.5 -57q-7 -71 -11.5 -128t-10.5 -109z" />
<glyph unicode="&#xc4;" d="M-80 -40l3 3q37 -17 68 -17q41 0 65.5 40t37.5 114q14 61 26 142t22 167t18 168t15 144q12 116 23.5 231.5t17.5 241.5q3 42 -12.5 74t-51.5 48l-15 6l-1 5h495l-1 -5l-16 -6q-36 -16 -51.5 -48t-11.5 -74q6 -126 18 -241t26 -232q16 -131 32 -269t43 -299 q13 -53 41.5 -92t82.5 -56l1 -5h-360l-1 5q48 17 65.5 53.5t12.5 90.5q-5 53 -9.5 105t-9.5 106q-22 2 -49 4t-63 6q-32 3 -57.5 5.5t-45.5 5.5q-3 -28 -6.5 -62t-7.5 -71.5t-9 -76.5t-12 -77q-5 -31 -10.5 -63t-14.5 -61.5t-24 -55t-40 -44t-62.5 -29.5t-91.5 -10zM81 1562 q0 21 8 39.5t21.5 32.5t31.5 22t39 8t39.5 -8t32.5 -22t22 -32.5t8 -39.5t-8 -39t-22 -31.5t-32.5 -21.5t-39.5 -8q-42 0 -71 29t-29 71zM286 447h96q30 0 55.5 0.5t46.5 1.5l-21 235q-2 19 -5.5 52t-7.5 74.5t-8.5 88.5t-8.5 94q-11 108 -22 235l-48 1q-12 -122 -23 -229 q-5 -46 -9.5 -93t-9 -89t-8 -77t-5.5 -57q-7 -71 -11.5 -128t-10.5 -109zM427 1562q0 21 8 39.5t21.5 32.5t31.5 22t39 8t39.5 -8t32.5 -22t22 -32.5t8 -39.5t-8 -39t-22 -31.5t-32.5 -21.5t-39.5 -8q-42 0 -71 29t-29 71z" />
<glyph unicode="&#xc5;" d="M-80 -40l3 3q37 -17 68 -17q41 0 65.5 40t37.5 114q14 61 26 142t22 167t18 168t15 144q12 116 23.5 231.5t17.5 241.5q3 42 -12.5 74t-51.5 48l-15 6l-1 5h495l-1 -5l-16 -6q-36 -16 -51.5 -48t-11.5 -74q6 -126 18 -241t26 -232q16 -131 32 -269t43 -299 q13 -53 41.5 -92t82.5 -56l1 -5h-360l-1 5q48 17 65.5 53.5t12.5 90.5q-5 53 -9.5 105t-9.5 106q-22 2 -49 4t-63 6q-32 3 -57.5 5.5t-45.5 5.5q-3 -28 -6.5 -62t-7.5 -71.5t-9 -76.5t-12 -77q-5 -31 -10.5 -63t-14.5 -61.5t-24 -55t-40 -44t-62.5 -29.5t-91.5 -10z M129 1668q0 52 19.5 92.5t51 67.5t72 41t83.5 14t83.5 -14t72 -41t51 -67.5t19.5 -92.5q0 -53 -19.5 -93.5t-51.5 -67.5t-72.5 -41t-82.5 -14t-82.5 14t-72.5 41t-51.5 67.5t-19.5 93.5zM217 1668q0 -26 8.5 -50.5t25.5 -44t43 -32t61 -14.5q35 1 60.5 13t42.5 31.5t25.5 44 t8.5 50.5q0 27 -9 53t-26 46t-42.5 32.5t-59.5 12.5t-59.5 -12t-43 -32t-26.5 -45.5t-9 -52.5zM286 447h96q30 0 55.5 0.5t46.5 1.5l-21 235q-2 19 -5.5 52t-7.5 74.5t-8.5 88.5t-8.5 94q-11 108 -22 235l-48 1q-12 -122 -23 -229q-5 -46 -9.5 -93t-9 -89t-8 -77t-5.5 -57 q-7 -71 -11.5 -128t-10.5 -109z" />
<glyph unicode="&#xc6;" horiz-adv-x="1043" d="M-29 37l7 5q37 -17 68 -17q41 0 65.5 29t37.5 85q14 61 26 136t22 153.5t18 154.5t15 138q12 116 23.5 231.5t17.5 241.5q3 42 -12.5 74t-51.5 48l-15 6l-1 5h712q-2 -20 -6 -51q-3 -26 -7.5 -66t-10.5 -97h-4q-3 35 -18.5 63t-46.5 42q-45 20 -93 26.5t-105 8.5 q8 -124 18.5 -245.5t23.5 -242.5h63.5t57.5 3q51 5 76 31t29 64l3 1l31 -276h-5q-13 38 -44 64.5t-83 31.5q-26 3 -55 3t-64 1q17 -152 36.5 -299t41.5 -293q17 3 42.5 5.5t53 6.5t55 10.5t49 18t33.5 28.5t10 43l4 1q14 -48 24.5 -87t18.5 -66q9 -32 15 -56h-556l-1 5 q48 17 65.5 53.5t12.5 90.5q-5 53 -9.5 105t-9.5 106q-22 2 -49 4t-63 6q-32 3 -57.5 5.5t-45.5 5.5q-7 -56 -15.5 -114t-19.5 -134q-8 -54 -22.5 -101.5t-38.5 -86t-59.5 -67.5t-84.5 -48zM341 447h96q30 0 55.5 0.5t46.5 1.5l-21 235q-2 19 -5 52t-7 74.5t-8.5 88.5 t-8.5 94q-11 108 -23 235l-48 1q-12 -122 -23 -229q-5 -46 -9.5 -93t-9 -89t-8 -77t-5.5 -57q-7 -71 -11.5 -128t-10.5 -109z" />
<glyph unicode="&#xc7;" horiz-adv-x="845" d="M68 649q0 160 34.5 284.5t95.5 209.5t144 129.5t179 44.5q59 0 111 -23t91 -58t62 -78t23 -82q0 -51 -40 -84l-129 -86l-3 5q24 23 35 52t11 59q0 34 -13 67t-35.5 59.5t-54.5 42.5t-69 16q-47 0 -87 -22.5t-71.5 -62.5t-55.5 -94t-40 -117t-24 -133t-8 -140 q0 -104 14.5 -202t44 -175t73.5 -123.5t104 -46.5q49 0 90 23t73.5 62.5t55 93t36.5 115.5h3l92 -194q-60 -103 -149.5 -156t-189.5 -53q-87 0 -160.5 45.5t-127.5 131t-84.5 209.5t-30.5 281zM311 -249l123 62l1 -2q-8 -26 -8 -43q0 -21 13.5 -34t48.5 -13q14 0 28 5 t25.5 16t18.5 29t7 44q0 37 -27.5 56t-76.5 19q-4 0 -10 -0.5t-11 -1.5q-6 -1 -13 -2l-8 60l-7 57h84l4 -52q42 -3 78 -13t61.5 -27.5t40 -41.5t14.5 -54q0 -45 -18 -80t-47 -59t-65.5 -36t-74.5 -12q-30 0 -58.5 7.5t-52.5 23t-42.5 38.5t-27.5 54z" />
<glyph unicode="&#xc8;" horiz-adv-x="653" d="M41 0v5q51 17 78 55.5t32 92.5q10 156 12.5 298.5t2.5 269.5q0 112 -1.5 222.5t-13.5 230.5q-5 54 -32 92.5t-78 55.5v5h571q-4 -20 -11 -51q-6 -26 -15 -66.5t-22 -97.5h-3q2 35 -11.5 63.5t-42.5 42.5q-42 20 -89.5 26.5t-104.5 8.5q-6 -124 -9 -245.5t-4 -242.5h63.5 t57.5 3q52 5 80 31t36 64h3v-274h-3q-8 38 -37 64t-81 31q-26 3 -55 3t-64 1v-4q0 -149 3.5 -306.5t9.5 -303.5q57 2 104.5 8.5t89.5 26.5q29 14 42.5 42.5t11.5 63.5h3q13 -57 22 -97.5t15 -66.5q7 -31 11 -51h-571zM221 1802h203q4 -57 8 -121q4 -55 8 -126t9 -148 l-83 -20q-17 68 -41.5 141.5t-47.5 134.5q-27 71 -56 139z" />
<glyph unicode="&#xc9;" horiz-adv-x="653" d="M41 0v5q51 17 78 55.5t32 92.5q10 156 12.5 298.5t2.5 269.5q0 112 -1.5 222.5t-13.5 230.5q-5 54 -32 92.5t-78 55.5v5h571q-4 -20 -11 -51q-6 -26 -15 -66.5t-22 -97.5h-3q2 35 -11.5 63.5t-42.5 42.5q-42 20 -89.5 26.5t-104.5 8.5q-6 -124 -9 -245.5t-4 -242.5h63.5 t57.5 3q52 5 80 31t36 64h3v-274h-3q-8 38 -37 64t-81 31q-26 3 -55 3t-64 1v-4q0 -149 3.5 -306.5t9.5 -303.5q57 2 104.5 8.5t89.5 26.5q29 14 42.5 42.5t11.5 63.5h3q13 -57 22 -97.5t15 -66.5q7 -31 11 -51h-571zM221 1407q5 77 9 148t8 126q4 64 8 121h203 q-29 -68 -56 -139q-12 -30 -24 -64.5t-24 -70t-22.5 -71.5t-18.5 -70z" />
<glyph unicode="&#xca;" horiz-adv-x="653" d="M41 0v5q51 17 78 55.5t32 92.5q10 156 12.5 298.5t2.5 269.5q0 112 -1.5 222.5t-13.5 230.5q-5 54 -32 92.5t-78 55.5v5h571q-4 -20 -11 -51q-6 -26 -15 -66.5t-22 -97.5h-3q2 35 -11.5 63.5t-42.5 42.5q-42 20 -89.5 26.5t-104.5 8.5q-6 -124 -9 -245.5t-4 -242.5h63.5 t57.5 3q52 5 80 31t36 64h3v-274h-3q-8 38 -37 64t-81 31q-26 3 -55 3t-64 1v-4q0 -149 3.5 -306.5t9.5 -303.5q57 2 104.5 8.5t89.5 26.5q29 14 42.5 42.5t11.5 63.5h3q13 -57 22 -97.5t15 -66.5q7 -31 11 -51h-571zM119 1452l150 314h132l150 -314h-150l-66 248l-66 -248 h-150z" />
<glyph unicode="&#xcb;" horiz-adv-x="653" d="M41 0v5q51 17 78 55.5t32 92.5q10 156 12.5 298.5t2.5 269.5q0 112 -1.5 222.5t-13.5 230.5q-5 54 -32 92.5t-78 55.5v5h571q-4 -20 -11 -51q-6 -26 -15 -66.5t-22 -97.5h-3q2 35 -11.5 63.5t-42.5 42.5q-42 20 -89.5 26.5t-104.5 8.5q-6 -124 -9 -245.5t-4 -242.5h63.5 t57.5 3q52 5 80 31t36 64h3v-274h-3q-8 38 -37 64t-81 31q-26 3 -55 3t-64 1v-4q0 -149 3.5 -306.5t9.5 -303.5q57 2 104.5 8.5t89.5 26.5q29 14 42.5 42.5t11.5 63.5h3q13 -57 22 -97.5t15 -66.5q7 -31 11 -51h-571zM61 1562q0 21 8 39.5t21.5 32.5t31.5 22t39 8t39.5 -8 t32.5 -22t22 -32.5t8 -39.5t-8 -39t-22 -31.5t-32.5 -21.5t-39.5 -8q-42 0 -71 29t-29 71zM407 1562q0 21 8 39.5t21.5 32.5t31.5 22t39 8t39.5 -8t32.5 -22t22 -32.5t8 -39.5t-8 -39t-22 -31.5t-32.5 -21.5t-39.5 -8q-42 0 -71 29t-29 71z" />
<glyph unicode="&#xcc;" horiz-adv-x="457" d="M48 0v5q51 17 73 56t26 92q7 161 11.5 299t4.5 269q0 117 -1.5 232t-13.5 241q-5 47 -29.5 80.5t-70.5 47.5v5h361v-5q-103 -33 -103 -145q-3 -88 -5 -176q-1 -38 -1.5 -79l-1 -82t-1 -81t-0.5 -75q0 -136 0.5 -269t8.5 -266q4 -54 28 -90.5t75 -53.5v-5h-361zM114 1802 h203q4 -57 8 -121q4 -55 8 -126t9 -148l-83 -20q-17 68 -41.5 141.5t-47.5 134.5q-27 71 -56 139z" />
<glyph unicode="&#xcd;" horiz-adv-x="457" d="M48 0v5q51 17 73 56t26 92q7 161 11.5 299t4.5 269q0 117 -1.5 232t-13.5 241q-5 47 -29.5 80.5t-70.5 47.5v5h361v-5q-103 -33 -103 -145q-3 -88 -5 -176q-1 -38 -1.5 -79l-1 -82t-1 -81t-0.5 -75q0 -136 0.5 -269t8.5 -266q4 -54 28 -90.5t75 -53.5v-5h-361zM114 1407 q5 77 9 148t8 126q4 64 8 121h203q-29 -68 -56 -139q-12 -30 -24 -64.5t-24 -70t-22.5 -71.5t-18.5 -70z" />
<glyph unicode="&#xce;" horiz-adv-x="458" d="M14 1452l150 314h132l150 -314h-150l-66 248l-66 -248h-150zM49 0v5q51 17 73 56t26 92q7 161 11.5 299t4.5 269q0 117 -1.5 232t-13.5 241q-5 47 -29.5 80.5t-70.5 47.5v5h361v-5q-103 -33 -103 -145q-3 -88 -5 -176q-1 -38 -1.5 -79l-1 -82t-1 -81t-0.5 -75 q0 -136 0.5 -269t8.5 -266q4 -54 28 -90.5t75 -53.5v-5h-361z" />
<glyph unicode="&#xcf;" horiz-adv-x="457" d="M-45 1562q0 21 8 39.5t21.5 32.5t31.5 22t39 8t39.5 -8t32.5 -22t22 -32.5t8 -39.5t-8 -39t-22 -31.5t-32.5 -21.5t-39.5 -8q-42 0 -71 29t-29 71zM48 0v5q51 17 73 56t26 92q7 161 11.5 299t4.5 269q0 117 -1.5 232t-13.5 241q-5 47 -29.5 80.5t-70.5 47.5v5h361v-5 q-103 -33 -103 -145q-3 -88 -5 -176q-1 -38 -1.5 -79l-1 -82t-1 -81t-0.5 -75q0 -136 0.5 -269t8.5 -266q4 -54 28 -90.5t75 -53.5v-5h-361zM301 1562q0 21 8 39.5t21.5 32.5t31.5 22t39 8t39.5 -8t32.5 -22t22 -32.5t8 -39.5t-8 -39t-22 -31.5t-32.5 -21.5t-39.5 -8 q-42 0 -71 29t-29 71z" />
<glyph unicode="&#xd0;" horiz-adv-x="816" d="M32 620v173q20 -8 52.5 -14.5t80.5 -10.5q0 105 -2.5 209t-12.5 217q-5 47 -29.5 80.5t-70.5 47.5v5h361q69 0 130.5 -35.5t107 -105t72 -172t26.5 -235.5q0 -180 -34.5 -324.5t-92 -245.5t-132.5 -155t-156 -54h-282v5q51 17 73.5 56t25.5 92q7 137 10.5 256t5.5 231 q-50 -1 -82 -5t-51 -15zM299 639q1 -125 5 -247t4 -243v-39q51 0 92.5 27t74 74t55.5 110.5t38.5 137.5t22.5 155t7 162q0 79 -12.5 157.5t-38 141.5t-65.5 102t-94 39l-80 1q-2 -74 -4 -151q-1 -33 -2 -70t-1.5 -76t-1 -78.5t-0.5 -76.5q51 1 87 6t61 23v-183 q-23 11 -58 18t-90 10z" />
<glyph unicode="&#xd1;" horiz-adv-x="932" d="M-16 -44l3 4q22 -5 40 -8.5t32 -3.5q21 0 35 7.5t24 26.5t15.5 50.5t9.5 78.5q13 129 18.5 259t5.5 261q0 119 -2.5 235.5t-12.5 247.5q-8 77 -39 132.5t-91 75.5v5h196q-1 -4 5 -19q5 -13 17.5 -38.5t36.5 -70.5q31 -68 70.5 -154.5t81 -176.5t81 -176t71 -154 t50.5 -110.5t19 -44.5q3 86 4.5 173t1.5 165q0 117 -2 232t-13 241q-5 47 -29.5 80.5t-70.5 47.5v5h351v-5q-103 -33 -103 -145q0 -43 -2 -115t-5.5 -160.5t-6.5 -185.5t-5.5 -189t-3 -171.5t2.5 -132.5q2 -81 28 -139t72 -79v-5h-178q2 1 2.5 5t-3 15.5t-12 32t-25.5 54.5 q-25 59 -61.5 140t-76.5 169t-79.5 174.5t-71.5 156t-51.5 113.5t-19.5 47q-2 -64 -2 -122.5v-100.5q0 -146 1.5 -287t-0.5 -280q-1 -49 -4.5 -100t-24.5 -92.5t-67 -68t-132 -26.5zM158 1484q2 44 18 75.5t42 52t61 30t75 9.5q28 0 57.5 -6.5t58 -14t54.5 -14t47 -6.5 q37 0 60.5 10t31.5 33l40 -12q-2 -44 -18 -76t-42 -52t-61 -29.5t-75 -9.5q-28 0 -55 6.5t-53.5 14t-53.5 14t-55 6.5q-36 0 -60.5 -10.5t-31.5 -33.5zM687 0h4h-4z" />
<glyph unicode="&#xd2;" horiz-adv-x="935" d="M69 649q0 160 31 284.5t85.5 209.5t128 129.5t158.5 44.5q81 0 153 -44.5t126 -129.5t85 -209.5t31 -284.5q0 -156 -32.5 -279.5t-87.5 -209.5t-126 -132t-149 -46q-87 0 -160.5 45.5t-127.5 131t-84.5 209.5t-30.5 281zM225 638q0 -69 6.5 -135.5t19.5 -126.5 t32.5 -110.5t45.5 -87.5t59 -57.5t73 -20.5q62 0 108.5 46t77 122.5t46 175t15.5 202.5q0 105 -15.5 204.5t-46.5 177.5t-77.5 125t-107.5 47q-58 0 -102 -48t-74 -127t-45 -180t-15 -207zM354 1802h203q4 -57 8 -121q4 -55 8 -126t9 -148l-83 -20q-17 68 -41.5 141.5 t-47.5 134.5q-27 71 -56 139z" />
<glyph unicode="&#xd3;" horiz-adv-x="935" d="M69 649q0 160 31 284.5t85.5 209.5t128 129.5t158.5 44.5q81 0 153 -44.5t126 -129.5t85 -209.5t31 -284.5q0 -156 -32.5 -279.5t-87.5 -209.5t-126 -132t-149 -46q-87 0 -160.5 45.5t-127.5 131t-84.5 209.5t-30.5 281zM225 638q0 -69 6.5 -135.5t19.5 -126.5 t32.5 -110.5t45.5 -87.5t59 -57.5t73 -20.5q62 0 108.5 46t77 122.5t46 175t15.5 202.5q0 105 -15.5 204.5t-46.5 177.5t-77.5 125t-107.5 47q-58 0 -102 -48t-74 -127t-45 -180t-15 -207zM354 1407q5 77 9 148t8 126q4 64 8 121h203q-29 -68 -56 -139q-12 -30 -24 -64.5 t-24 -70t-22.5 -71.5t-18.5 -70z" />
<glyph unicode="&#xd4;" horiz-adv-x="935" d="M69 649q0 160 31 284.5t85.5 209.5t128 129.5t158.5 44.5q81 0 153 -44.5t126 -129.5t85 -209.5t31 -284.5q0 -156 -32.5 -279.5t-87.5 -209.5t-126 -132t-149 -46q-87 0 -160.5 45.5t-127.5 131t-84.5 209.5t-30.5 281zM225 638q0 -69 6.5 -135.5t19.5 -126.5 t32.5 -110.5t45.5 -87.5t59 -57.5t73 -20.5q62 0 108.5 46t77 122.5t46 175t15.5 202.5q0 105 -15.5 204.5t-46.5 177.5t-77.5 125t-107.5 47q-58 0 -102 -48t-74 -127t-45 -180t-15 -207zM252 1452l150 314h132l150 -314h-150l-66 248l-66 -248h-150z" />
<glyph unicode="&#xd5;" horiz-adv-x="935" d="M69 649q0 160 31 284.5t85.5 209.5t128 129.5t158.5 44.5q81 0 153 -44.5t126 -129.5t85 -209.5t31 -284.5q0 -156 -32.5 -279.5t-87.5 -209.5t-126 -132t-149 -46q-87 0 -160.5 45.5t-127.5 131t-84.5 209.5t-30.5 281zM195 1484q2 44 18 75.5t42 52t61 30t75 9.5 q28 0 57.5 -6.5t58 -14t54.5 -14t47 -6.5q37 0 60.5 10t31.5 33l40 -12q-2 -44 -18 -76t-42 -52t-61 -29.5t-75 -9.5q-28 0 -55 6.5t-53.5 14t-53.5 14t-55 6.5q-36 0 -60.5 -10.5t-31.5 -33.5zM225 638q0 -69 6.5 -135.5t19.5 -126.5t32.5 -110.5t45.5 -87.5t59 -57.5 t73 -20.5q62 0 108.5 46t77 122.5t46 175t15.5 202.5q0 105 -15.5 204.5t-46.5 177.5t-77.5 125t-107.5 47q-58 0 -102 -48t-74 -127t-45 -180t-15 -207z" />
<glyph unicode="&#xd6;" horiz-adv-x="935" d="M69 649q0 160 31 284.5t85.5 209.5t128 129.5t158.5 44.5q81 0 153 -44.5t126 -129.5t85 -209.5t31 -284.5q0 -156 -32.5 -279.5t-87.5 -209.5t-126 -132t-149 -46q-87 0 -160.5 45.5t-127.5 131t-84.5 209.5t-30.5 281zM194 1562q0 21 8 39.5t21.5 32.5t31.5 22t39 8 t39.5 -8t32.5 -22t22 -32.5t8 -39.5t-8 -39t-22 -31.5t-32.5 -21.5t-39.5 -8q-42 0 -71 29t-29 71zM225 638q0 -69 6.5 -135.5t19.5 -126.5t32.5 -110.5t45.5 -87.5t59 -57.5t73 -20.5q62 0 108.5 46t77 122.5t46 175t15.5 202.5q0 105 -15.5 204.5t-46.5 177.5t-77.5 125 t-107.5 47q-58 0 -102 -48t-74 -127t-45 -180t-15 -207zM540 1562q0 21 8 39.5t21.5 32.5t31.5 22t39 8t39.5 -8t32.5 -22t22 -32.5t8 -39.5t-8 -39t-22 -31.5t-32.5 -21.5t-39.5 -8q-42 0 -71 29t-29 71z" />
<glyph unicode="&#xd7;" horiz-adv-x="657" d="M68 700l100 100q21 -32 58.5 -76.5t101.5 -110.5q62 62 102 106.5t60 80.5l100 -100q-31 -22 -75.5 -59.5t-111.5 -102.5q67 -65 112 -103t74 -56l-100 -100q-22 29 -60 74t-101 110q-65 -66 -103 -110.5t-56 -73.5l-100 100q29 21 74 59t111 101q-61 61 -105.5 101 t-80.5 60z" />
<glyph unicode="&#xd8;" horiz-adv-x="960" d="M32 109l112 146q-32 79 -49 177.5t-17 216.5q0 160 31 284.5t85.5 209.5t128 129.5t158.5 44.5q92 0 171 -56t134 -165l95 125l53 -39l-118 -155q29 -76 44.5 -170.5t15.5 -207.5q0 -156 -32.5 -279.5t-87.5 -209.5t-126 -132t-149 -46q-94 0 -172.5 53t-133.5 153 l-90 -118zM234 638q0 -127 21 -238l424 556q-15 53 -35.5 98t-46.5 77.5t-58 50.5t-69 18q-58 0 -102 -48t-74 -127t-45 -180t-15 -207zM274 318q14 -48 33.5 -88.5t44 -69t54 -44.5t64.5 -16q62 0 108.5 46t77 122.5t46 175t15.5 202.5q0 117 -20 226z" />
<glyph unicode="&#xd9;" horiz-adv-x="928" d="M29 1322v5h361v-5q-46 -17 -72 -53t-26 -92q-3 -108 -5 -215q-1 -46 -1.5 -96t-1 -100.5t-1 -99.5t-0.5 -92q0 -151 9.5 -244t29.5 -144.5t51.5 -69t75.5 -17.5q39 0 86.5 14.5t92.5 47.5q3 158 4.5 294.5t1.5 265.5q0 117 -1.5 232t-13.5 241q-5 47 -29.5 80.5 t-70.5 47.5v5h368v-5q-103 -33 -103 -145q-3 -88 -5 -176q-1 -38 -1.5 -79l-1 -82t-1 -81t-0.5 -75q0 -75 0.5 -138t1 -124t0.5 -123.5v-135.5q3 -35 28.5 -59t81.5 -35v-5l-248 -94q-5 13 -7.5 33.5t-3.5 46.5q-54 -36 -115.5 -52t-118.5 -16q-47 0 -89.5 18t-76 54 t-55 90.5t-26.5 127.5q-6 106 -8 217t-3 226.5t-4.5 235.5t-12.5 243q-4 47 -26 80.5t-64 47.5zM346 1802h203q4 -57 8 -121q4 -55 8 -126t9 -148l-83 -20q-17 68 -41.5 141.5t-47.5 134.5q-27 71 -56 139z" />
<glyph unicode="&#xda;" horiz-adv-x="928" d="M29 1322v5h361v-5q-46 -17 -72 -53t-26 -92q-3 -108 -5 -215q-1 -46 -1.5 -96t-1 -100.5t-1 -99.5t-0.5 -92q0 -151 9.5 -244t29.5 -144.5t51.5 -69t75.5 -17.5q39 0 86.5 14.5t92.5 47.5q3 158 4.5 294.5t1.5 265.5q0 117 -1.5 232t-13.5 241q-5 47 -29.5 80.5 t-70.5 47.5v5h368v-5q-103 -33 -103 -145q-3 -88 -5 -176q-1 -38 -1.5 -79l-1 -82t-1 -81t-0.5 -75q0 -75 0.5 -138t1 -124t0.5 -123.5v-135.5q3 -35 28.5 -59t81.5 -35v-5l-248 -94q-5 13 -7.5 33.5t-3.5 46.5q-54 -36 -115.5 -52t-118.5 -16q-47 0 -89.5 18t-76 54 t-55 90.5t-26.5 127.5q-6 106 -8 217t-3 226.5t-4.5 235.5t-12.5 243q-4 47 -26 80.5t-64 47.5zM346 1407q5 77 9 148t8 126q4 64 8 121h203q-29 -68 -56 -139q-12 -30 -24 -64.5t-24 -70t-22.5 -71.5t-18.5 -70z" />
<glyph unicode="&#xdb;" horiz-adv-x="928" d="M29 1322v5h361v-5q-46 -17 -72 -53t-26 -92q-3 -108 -5 -215q-1 -46 -1.5 -96t-1 -100.5t-1 -99.5t-0.5 -92q0 -151 9.5 -244t29.5 -144.5t51.5 -69t75.5 -17.5q39 0 86.5 14.5t92.5 47.5q3 158 4.5 294.5t1.5 265.5q0 117 -1.5 232t-13.5 241q-5 47 -29.5 80.5 t-70.5 47.5v5h368v-5q-103 -33 -103 -145q-3 -88 -5 -176q-1 -38 -1.5 -79l-1 -82t-1 -81t-0.5 -75q0 -75 0.5 -138t1 -124t0.5 -123.5v-135.5q3 -35 28.5 -59t81.5 -35v-5l-248 -94q-5 13 -7.5 33.5t-3.5 46.5q-54 -36 -115.5 -52t-118.5 -16q-47 0 -89.5 18t-76 54 t-55 90.5t-26.5 127.5q-6 106 -8 217t-3 226.5t-4.5 235.5t-12.5 243q-4 47 -26 80.5t-64 47.5zM244 1452l150 314h132l150 -314h-150l-66 248l-66 -248h-150z" />
<glyph unicode="&#xdc;" horiz-adv-x="928" d="M29 1322v5h361v-5q-46 -17 -72 -53t-26 -92q-3 -108 -5 -215q-1 -46 -1.5 -96t-1 -100.5t-1 -99.5t-0.5 -92q0 -151 9.5 -244t29.5 -144.5t51.5 -69t75.5 -17.5q39 0 86.5 14.5t92.5 47.5q3 158 4.5 294.5t1.5 265.5q0 117 -1.5 232t-13.5 241q-5 47 -29.5 80.5 t-70.5 47.5v5h368v-5q-103 -33 -103 -145q-3 -88 -5 -176q-1 -38 -1.5 -79l-1 -82t-1 -81t-0.5 -75q0 -75 0.5 -138t1 -124t0.5 -123.5v-135.5q3 -35 28.5 -59t81.5 -35v-5l-248 -94q-5 13 -7.5 33.5t-3.5 46.5q-54 -36 -115.5 -52t-118.5 -16q-47 0 -89.5 18t-76 54 t-55 90.5t-26.5 127.5q-6 106 -8 217t-3 226.5t-4.5 235.5t-12.5 243q-4 47 -26 80.5t-64 47.5zM186 1562q0 21 8 39.5t21.5 32.5t31.5 22t39 8t39.5 -8t32.5 -22t22 -32.5t8 -39.5t-8 -39t-22 -31.5t-32.5 -21.5t-39.5 -8q-42 0 -71 29t-29 71zM532 1562q0 21 8 39.5 t21.5 32.5t31.5 22t39 8t39.5 -8t32.5 -22t22 -32.5t8 -39.5t-8 -39t-22 -31.5t-32.5 -21.5t-39.5 -8q-42 0 -71 29t-29 71z" />
<glyph unicode="&#xdd;" horiz-adv-x="730" d="M-46 1327h360l1 -5q-48 -17 -66.5 -53.5t-11.5 -90.5q11 -76 27.5 -146.5t34 -139.5t35 -139.5t31.5 -146.5q14 76 31.5 146.5t35.5 139.5t34 139.5t27 146.5q6 54 -12 90.5t-66 53.5l1 5h360l-1 -5q-54 -17 -81.5 -56.5t-42.5 -91.5q-23 -81 -45 -155t-41 -143 q-16 -63 -33 -124.5t-33 -124t-30 -126.5t-24 -132l-2 -146q0 -38 1.5 -70.5t10.5 -59.5t28.5 -49.5t55.5 -38.5v-5h-358v5q48 11 75.5 67t29.5 145l3 114q-10 73 -24.5 142t-31 136.5t-34.5 133.5t-34 133q-19 69 -41 143t-45 155q-15 52 -42.5 91.5t-81.5 56.5zM251 1407 q5 77 9 148t8 126q4 64 8 121h203q-29 -68 -56 -139q-12 -30 -24 -64.5t-24 -70t-22.5 -71.5t-18.5 -70z" />
<glyph unicode="&#xde;" horiz-adv-x="718" d="M43 0v5q51 17 73 56t26 92q7 161 11.5 299t4.5 269q0 111 0.5 221.5t-7.5 231.5q-4 53 -26 92t-73 56v5h361v-5q-57 -19 -81 -63.5t-24 -108.5h130q48 0 90.5 -24t75 -70.5t51 -114t18.5 -154.5q0 -44 -6.5 -97t-22 -106.5t-42 -103.5t-65.5 -88.5t-92 -62t-123 -23.5 h-14t-14 1q2 -49 2.5 -96.5t9.5 -88.5t31 -71.5t67 -45.5v-5h-361zM292 684q0 -66 0.5 -131t1.5 -131q60 0 101.5 23.5t68 69.5t38 114.5t11.5 157.5q0 122 -31.5 189t-94.5 67q-20 0 -43 -0.5t-43 -2.5v-40q-3 -58 -5 -115q-2 -49 -3 -103.5t-1 -97.5z" />
<glyph unicode="&#xdf;" horiz-adv-x="750" d="M33 0v5q46 17 65.5 56t23.5 92q11 143 15 287.5t4 302.5q0 21 -0.5 61t-1.5 84t-1.5 84.5t-0.5 62.5q0 70 16 124.5t43.5 91.5t65.5 56t83 19q49 0 93.5 -19t78.5 -56t53.5 -91.5t19.5 -124.5q0 -63 -43.5 -110t-117.5 -76q58 -33 106.5 -80t82.5 -108t53 -136.5 t19 -165.5q0 -124 -31 -222t-82.5 -166.5t-119.5 -104.5t-142 -36h-6v110q61 4 105 42t72.5 97t41.5 131.5t13 145.5t-13 146.5t-38.5 133t-63.5 98t-88 42.5v113q28 3 47.5 17.5t32 35.5t18 46.5t5.5 49.5q0 30 -5 61.5t-15.5 57.5t-26.5 42.5t-38 16.5q-19 0 -33 -23 t-23.5 -79t-14 -149t-4.5 -234l1 -307v-124.5t3 -108.5t11 -97t25 -89v-5h-288z" />
<glyph unicode="&#xe0;" horiz-adv-x="682" d="M54 250q0 69 21.5 137.5t61 123t94.5 88.5t123 34q34 0 65 -7q0 80 -7 131t-21 80t-35.5 39.5t-49.5 10.5q-24 0 -40.5 -8t-27 -22t-15 -32.5t-4.5 -39.5q0 -28 8.5 -57t22.5 -53l-2 -3l-170 105q13 71 39.5 113.5t59 65t69 29.5t71.5 7q124 0 185.5 -89t60.5 -263 q0 -91 -0.5 -157.5t-0.5 -113.5t-0.5 -77.5t-0.5 -50v-31.5v-22q0 -25 3 -53t12.5 -53.5t28 -46t49.5 -30.5v-5h-155q-23 14 -35 38t-18 53q-6 -12 -19 -32.5t-34 -40t-50.5 -33.5t-68.5 -14q-57 0 -98.5 23t-68.5 62t-40 89.5t-13 104.5zM195 277q0 -40 6 -76t18 -63.5 t30 -44t42 -16.5q38 0 62.5 28.5t39 70.5t20.5 89.5t6 85.5v191q-29 10 -58 10q-40 0 -71 -23.5t-52 -61.5t-32 -88t-11 -102zM234 1438h203q4 -57 8 -121q4 -55 8 -126t9 -148l-83 -20q-17 68 -41.5 141.5t-47.5 134.5q-27 71 -56 139z" />
<glyph unicode="&#xe1;" horiz-adv-x="682" d="M54 250q0 69 21.5 137.5t61 123t94.5 88.5t123 34q34 0 65 -7q0 80 -7 131t-21 80t-35.5 39.5t-49.5 10.5q-24 0 -40.5 -8t-27 -22t-15 -32.5t-4.5 -39.5q0 -28 8.5 -57t22.5 -53l-2 -3l-170 105q13 71 39.5 113.5t59 65t69 29.5t71.5 7q124 0 185.5 -89t60.5 -263 q0 -91 -0.5 -157.5t-0.5 -113.5t-0.5 -77.5t-0.5 -50v-31.5v-22q0 -25 3 -53t12.5 -53.5t28 -46t49.5 -30.5v-5h-155q-23 14 -35 38t-18 53q-6 -12 -19 -32.5t-34 -40t-50.5 -33.5t-68.5 -14q-57 0 -98.5 23t-68.5 62t-40 89.5t-13 104.5zM195 277q0 -40 6 -76t18 -63.5 t30 -44t42 -16.5q38 0 62.5 28.5t39 70.5t20.5 89.5t6 85.5v191q-29 10 -58 10q-40 0 -71 -23.5t-52 -61.5t-32 -88t-11 -102zM234 1043q5 77 9 148t8 126q4 64 8 121h203q-29 -68 -56 -139q-12 -30 -24 -64.5t-24 -70t-22.5 -71.5t-18.5 -70z" />
<glyph unicode="&#xe2;" horiz-adv-x="682" d="M54 250q0 69 21.5 137.5t61 123t94.5 88.5t123 34q34 0 65 -7q0 80 -7 131t-21 80t-35.5 39.5t-49.5 10.5q-24 0 -40.5 -8t-27 -22t-15 -32.5t-4.5 -39.5q0 -28 8.5 -57t22.5 -53l-2 -3l-170 105q13 71 39.5 113.5t59 65t69 29.5t71.5 7q124 0 185.5 -89t60.5 -263 q0 -91 -0.5 -157.5t-0.5 -113.5t-0.5 -77.5t-0.5 -50v-31.5v-22q0 -25 3 -53t12.5 -53.5t28 -46t49.5 -30.5v-5h-155q-23 14 -35 38t-18 53q-6 -12 -19 -32.5t-34 -40t-50.5 -33.5t-68.5 -14q-57 0 -98.5 23t-68.5 62t-40 89.5t-13 104.5zM132 1088l150 314h132l150 -314 h-150l-66 248l-66 -248h-150zM195 277q0 -40 6 -76t18 -63.5t30 -44t42 -16.5q38 0 62.5 28.5t39 70.5t20.5 89.5t6 85.5v191q-29 10 -58 10q-40 0 -71 -23.5t-52 -61.5t-32 -88t-11 -102z" />
<glyph unicode="&#xe3;" horiz-adv-x="682" d="M54 250q0 69 21.5 137.5t61 123t94.5 88.5t123 34q34 0 65 -7q0 80 -7 131t-21 80t-35.5 39.5t-49.5 10.5q-24 0 -40.5 -8t-27 -22t-15 -32.5t-4.5 -39.5q0 -28 8.5 -57t22.5 -53l-2 -3l-170 105q13 71 39.5 113.5t59 65t69 29.5t71.5 7q124 0 185.5 -89t60.5 -263 q0 -91 -0.5 -157.5t-0.5 -113.5t-0.5 -77.5t-0.5 -50v-31.5v-22q0 -25 3 -53t12.5 -53.5t28 -46t49.5 -30.5v-5h-155q-23 14 -35 38t-18 53q-6 -12 -19 -32.5t-34 -40t-50.5 -33.5t-68.5 -14q-57 0 -98.5 23t-68.5 62t-40 89.5t-13 104.5zM76 1120q2 44 18 75.5t42 52t61 30 t75 9.5q28 0 57.5 -6.5t58 -14t54.5 -14t47 -6.5q37 0 60.5 10t31.5 33l40 -12q-2 -44 -18 -76t-42 -52t-61 -29.5t-75 -9.5q-28 0 -55 6.5t-53.5 14t-53.5 14t-55 6.5q-36 0 -60.5 -10.5t-31.5 -33.5zM195 277q0 -40 6 -76t18 -63.5t30 -44t42 -16.5q38 0 62.5 28.5 t39 70.5t20.5 89.5t6 85.5v191q-29 10 -58 10q-40 0 -71 -23.5t-52 -61.5t-32 -88t-11 -102z" />
<glyph unicode="&#xe4;" horiz-adv-x="682" d="M54 250q0 69 21.5 137.5t61 123t94.5 88.5t123 34q34 0 65 -7q0 80 -7 131t-21 80t-35.5 39.5t-49.5 10.5q-24 0 -40.5 -8t-27 -22t-15 -32.5t-4.5 -39.5q0 -28 8.5 -57t22.5 -53l-2 -3l-170 105q13 71 39.5 113.5t59 65t69 29.5t71.5 7q124 0 185.5 -89t60.5 -263 q0 -91 -0.5 -157.5t-0.5 -113.5t-0.5 -77.5t-0.5 -50v-31.5v-22q0 -25 3 -53t12.5 -53.5t28 -46t49.5 -30.5v-5h-155q-23 14 -35 38t-18 53q-6 -12 -19 -32.5t-34 -40t-50.5 -33.5t-68.5 -14q-57 0 -98.5 23t-68.5 62t-40 89.5t-13 104.5zM74 1198q0 21 8 39.5t21.5 32.5 t31.5 22t39 8t39.5 -8t32.5 -22t22 -32.5t8 -39.5t-8 -39t-22 -31.5t-32.5 -21.5t-39.5 -8q-42 0 -71 29t-29 71zM195 277q0 -40 6 -76t18 -63.5t30 -44t42 -16.5q38 0 62.5 28.5t39 70.5t20.5 89.5t6 85.5v191q-29 10 -58 10q-40 0 -71 -23.5t-52 -61.5t-32 -88t-11 -102z M420 1198q0 21 8 39.5t21.5 32.5t31.5 22t39 8t39.5 -8t32.5 -22t22 -32.5t8 -39.5t-8 -39t-22 -31.5t-32.5 -21.5t-39.5 -8q-42 0 -71 29t-29 71z" />
<glyph unicode="&#xe5;" horiz-adv-x="682" d="M54 250q0 69 21.5 137.5t61 123t94.5 88.5t123 34q34 0 65 -7q0 80 -7 131t-21 80t-35.5 39.5t-49.5 10.5q-24 0 -40.5 -8t-27 -22t-15 -32.5t-4.5 -39.5q0 -28 8.5 -57t22.5 -53l-2 -3l-170 105q13 71 39.5 113.5t59 65t69 29.5t71.5 7q124 0 185.5 -89t60.5 -263 q0 -91 -0.5 -157.5t-0.5 -113.5t-0.5 -77.5t-0.5 -50v-31.5v-22q0 -25 3 -53t12.5 -53.5t28 -46t49.5 -30.5v-5h-155q-23 14 -35 38t-18 53q-6 -12 -19 -32.5t-34 -40t-50.5 -33.5t-68.5 -14q-57 0 -98.5 23t-68.5 62t-40 89.5t-13 104.5zM122 1304q0 52 19.5 92.5t51 67.5 t72 41t83.5 14t83.5 -14t72 -41t51 -67.5t19.5 -92.5q0 -53 -19.5 -93.5t-51.5 -67.5t-72.5 -41t-82.5 -14t-82.5 14t-72.5 41t-51.5 67.5t-19.5 93.5zM195 277q0 -40 6 -76t18 -63.5t30 -44t42 -16.5q38 0 62.5 28.5t39 70.5t20.5 89.5t6 85.5v191q-29 10 -58 10 q-40 0 -71 -23.5t-52 -61.5t-32 -88t-11 -102zM210 1304q0 -26 8.5 -50.5t25.5 -44t43 -32t61 -14.5q35 1 60.5 13t42.5 31.5t25.5 44t8.5 50.5q0 27 -9 53t-26 46t-42.5 32.5t-59.5 12.5t-59.5 -12t-43 -32t-26.5 -45.5t-9 -52.5z" />
<glyph unicode="&#xe6;" horiz-adv-x="1057" d="M54 250q0 69 21.5 137.5t61 123t94.5 88.5t123 34q34 0 65 -7q0 80 -7 131t-21 79.5t-35.5 39t-49.5 10.5q-24 0 -40.5 -8t-27 -22t-15 -32t-4.5 -39q0 -29 9 -59.5t24 -55.5l-174 107q13 71 39.5 113.5t59 65.5t69 30t71.5 7q67 0 116.5 -35t78.5 -104q88 139 220 139 q55 0 101.5 -29.5t81.5 -87t56.5 -143t26.5 -196.5l-423 -148q13 -164 58 -238.5t114 -74.5q33 0 55.5 12.5t37 33t21 46t6.5 52.5q0 32 -20.5 63t-62.5 53l1 5l219 -20q0 -90 -25.5 -155.5t-65 -109t-87.5 -64.5t-94 -21q-70 0 -129.5 42t-101.5 126q-20 -34 -43.5 -64.5 t-51.5 -53.5t-60.5 -36.5t-71.5 -13.5q-57 0 -98.5 23t-68.5 62t-40 89.5t-13 104.5zM195 277q0 -38 6 -74t18 -64.5t30 -45.5t42 -17q38 0 62.5 29t39 71.5t20.5 90t6 84.5v191q-29 10 -58 10q-40 0 -71 -23.5t-52 -61.5t-32 -88t-11 -102zM570 478q29 11 72 28t108 47 q37 17 64 34t48 29q-10 139 -42.5 205t-87.5 66q-77 0 -119.5 -102t-42.5 -303v-4z" />
<glyph unicode="&#xe7;" horiz-adv-x="739" d="M63 481q0 123 25.5 218t70 160t105 99t131.5 34q73 0 125.5 -22.5t89.5 -63t61.5 -96.5t42.5 -123l-195 -102l-3 5q20 25 29 49.5t9 48.5q0 31 -6 66.5t-22.5 64.5t-44.5 48.5t-72 19.5q-42 0 -78 -24.5t-62.5 -74.5t-41 -126.5t-14.5 -180.5q0 -201 56 -303t156 -102 q37 0 68.5 16t56.5 43.5t43 65t29 80.5l4 1l49 -136q-47 -87 -112.5 -131t-146.5 -44q-75 0 -139.5 33.5t-112 98.5t-74.5 160t-27 218zM245 -249l123 62l1 -2q-8 -26 -8 -43q0 -21 13.5 -34t48.5 -13q14 0 28 5t25.5 16t18.5 29t7 44q0 37 -27.5 56t-76.5 19q-4 0 -10 -0.5 t-11 -1.5q-6 -1 -13 -2l-8 60l-7 57h84l4 -52q42 -3 78 -13t61.5 -27.5t40 -41.5t14.5 -54q0 -45 -18 -80t-47 -59t-65.5 -36t-74.5 -12q-30 0 -58.5 7.5t-52.5 23t-42.5 38.5t-27.5 54z" />
<glyph unicode="&#xe8;" horiz-adv-x="701" d="M63 482q0 123 24 218t66 160t99 99t123 34q55 0 101.5 -29.5t81.5 -87t56.5 -143t26.5 -196.5l-423 -148q13 -164 58 -238.5t114 -74.5q33 0 55.5 12.5t37 33t21 46t6.5 52.5q0 32 -20.5 63t-62.5 53l1 5l219 -20q0 -90 -25.5 -155.5t-65 -109t-87.5 -64.5t-94 -21 q-66 0 -123 34t-99 99t-66 160t-24 218zM213 478q29 11 72 28t108 47q37 17 64 34t48 29q-10 139 -42.5 205t-87.5 66q-77 0 -119.5 -102t-42.5 -303v-4zM239 1438h203q4 -57 8 -121q4 -55 8 -126t9 -148l-83 -20q-17 68 -41.5 141.5t-47.5 134.5q-27 71 -56 139z" />
<glyph unicode="&#xe9;" horiz-adv-x="701" d="M63 482q0 123 24 218t66 160t99 99t123 34q55 0 101.5 -29.5t81.5 -87t56.5 -143t26.5 -196.5l-423 -148q13 -164 58 -238.5t114 -74.5q33 0 55.5 12.5t37 33t21 46t6.5 52.5q0 32 -20.5 63t-62.5 53l1 5l219 -20q0 -90 -25.5 -155.5t-65 -109t-87.5 -64.5t-94 -21 q-66 0 -123 34t-99 99t-66 160t-24 218zM213 478q29 11 72 28t108 47q37 17 64 34t48 29q-10 139 -42.5 205t-87.5 66q-77 0 -119.5 -102t-42.5 -303v-4zM238 1043q5 77 9 148t8 126q4 64 8 121h203q-29 -68 -56 -139q-12 -30 -24 -64.5t-24 -70t-22.5 -71.5t-18.5 -70z" />
<glyph unicode="&#xea;" horiz-adv-x="701" d="M63 482q0 123 24 218t66 160t99 99t123 34q55 0 101.5 -29.5t81.5 -87t56.5 -143t26.5 -196.5l-423 -148q13 -164 58 -238.5t114 -74.5q33 0 55.5 12.5t37 33t21 46t6.5 52.5q0 32 -20.5 63t-62.5 53l1 5l219 -20q0 -90 -25.5 -155.5t-65 -109t-87.5 -64.5t-94 -21 q-66 0 -123 34t-99 99t-66 160t-24 218zM137 1088l150 314h132l150 -314h-150l-66 248l-66 -248h-150zM213 478q29 11 72 28t108 47q37 17 64 34t48 29q-10 139 -42.5 205t-87.5 66q-77 0 -119.5 -102t-42.5 -303v-4z" />
<glyph unicode="&#xeb;" horiz-adv-x="701" d="M63 482q0 123 24 218t66 160t99 99t123 34q55 0 101.5 -29.5t81.5 -87t56.5 -143t26.5 -196.5l-423 -148q13 -164 58 -238.5t114 -74.5q33 0 55.5 12.5t37 33t21 46t6.5 52.5q0 32 -20.5 63t-62.5 53l1 5l219 -20q0 -90 -25.5 -155.5t-65 -109t-87.5 -64.5t-94 -21 q-66 0 -123 34t-99 99t-66 160t-24 218zM79 1198q0 21 8 39.5t21.5 32.5t31.5 22t39 8t39.5 -8t32.5 -22t22 -32.5t8 -39.5t-8 -39t-22 -31.5t-32.5 -21.5t-39.5 -8q-42 0 -71 29t-29 71zM213 478q29 11 72 28t108 47q37 17 64 34t48 29q-10 139 -42.5 205t-87.5 66 q-77 0 -119.5 -102t-42.5 -303v-4zM425 1198q0 21 8 39.5t21.5 32.5t31.5 22t39 8t39.5 -8t32.5 -22t22 -32.5t8 -39.5t-8 -39t-22 -31.5t-32.5 -21.5t-39.5 -8q-42 0 -71 29t-29 71z" />
<glyph unicode="&#xec;" horiz-adv-x="433" d="M17 908v5l291 80q-11 -109 -11.5 -240.5t-0.5 -272.5v-94t0.5 -72t2.5 -71.5t6 -93.5q4 -54 28 -90.5t75 -53.5v-5h-361v5q51 17 73 56t26 92q2 46 4.5 80.5t4 62.5t3 52t2.5 49t1.5 53.5t0.5 66.5q0 93 -0.5 158t-4.5 108.5t-12.5 68.5t-25 37.5t-41.5 15.5t-61 3z M100 1438h203q4 -57 8 -121q4 -55 8 -126t9 -148l-83 -20q-17 68 -41.5 141.5t-47.5 134.5q-27 71 -56 139z" />
<glyph unicode="&#xed;" horiz-adv-x="433" d="M17 908v5l291 80q-11 -109 -11.5 -240.5t-0.5 -272.5v-94t0.5 -72t2.5 -71.5t6 -93.5q4 -54 28 -90.5t75 -53.5v-5h-361v5q51 17 73 56t26 92q2 46 4.5 80.5t4 62.5t3 52t2.5 49t1.5 53.5t0.5 66.5q0 93 -0.5 158t-4.5 108.5t-12.5 68.5t-25 37.5t-41.5 15.5t-61 3z M100 1043q5 77 9 148t8 126q4 64 8 121h203q-29 -68 -56 -139q-12 -30 -24 -64.5t-24 -70t-22.5 -71.5t-18.5 -70z" />
<glyph unicode="&#xee;" horiz-adv-x="434" d="M1 1088l150 314h132l150 -314h-150l-66 248l-66 -248h-150zM18 908v5l291 80q-11 -109 -11.5 -240.5t-0.5 -272.5v-94t0.5 -72t2.5 -71.5t6 -93.5q4 -54 28 -90.5t75 -53.5v-5h-361v5q51 17 73 56t26 92q2 46 4.5 80.5t4 62.5t3 52t2.5 49t1.5 53.5t0.5 66.5 q0 93 -0.5 158t-4.5 108.5t-12.5 68.5t-25 37.5t-41.5 15.5t-61 3z" />
<glyph unicode="&#xef;" horiz-adv-x="434" d="M-57 1198q0 21 8 39.5t21.5 32.5t31.5 22t39 8t39.5 -8t32.5 -22t22 -32.5t8 -39.5t-8 -39t-22 -31.5t-32.5 -21.5t-39.5 -8q-42 0 -71 29t-29 71zM18 908v5l291 80q-11 -109 -11.5 -240.5t-0.5 -272.5v-94t0.5 -72t2.5 -71.5t6 -93.5q4 -54 28 -90.5t75 -53.5v-5h-361v5 q51 17 73 56t26 92q2 46 4.5 80.5t4 62.5t3 52t2.5 49t1.5 53.5t0.5 66.5q0 93 -0.5 158t-4.5 108.5t-12.5 68.5t-25 37.5t-41.5 15.5t-61 3zM289 1198q0 21 8 39.5t21.5 32.5t31.5 22t39 8t39.5 -8t32.5 -22t22 -32.5t8 -39.5t-8 -39t-22 -31.5t-32.5 -21.5t-39.5 -8 q-42 0 -71 29t-29 71z" />
<glyph unicode="&#xf0;" horiz-adv-x="864" d="M46 437q0 76 16 146t49.5 124t84.5 86.5t121 32.5q27 0 59.5 -9.5t62 -28.5t50.5 -46.5t26 -64.5l-138 -114q19 31 27.5 55.5t8.5 45.5q0 19 -9.5 31t-23 19t-29 9.5t-27.5 2.5q-34 0 -59.5 -24t-42 -64.5t-24.5 -93t-8 -109.5q0 -61 12 -122.5t34.5 -111t56 -80.5 t77.5 -31q40 0 70.5 25.5t51.5 68t35 98.5t22 116.5t11 122.5t3 117q0 85 -9 167.5t-27 154.5q-81 0 -133 -2t-81 -8v133q28 -5 71.5 -10t108.5 -7q-26 65 -63 103t-83 38q-29 0 -53 -16t-41.5 -42.5t-27.5 -59.5t-10 -67q0 -30 11 -59t35 -52l-3 -5l-129 86q-40 33 -40 84 q0 39 19.5 82t53.5 78t78.5 58t95.5 23q98 0 178.5 -64t132.5 -188q70 0 119 3.5t82 15.5v-143q-27 6 -66.5 10.5t-98.5 6.5q17 -66 26.5 -143.5t9.5 -165.5q0 -66 -7 -141t-23.5 -149t-43 -142t-65.5 -119.5t-91 -82.5t-119 -31q-77 0 -137.5 40.5t-102 105t-63 145.5 t-21.5 162z" />
<glyph unicode="&#xf1;" horiz-adv-x="807" d="M17 867v5l271 120q-8 -27 -9 -62.5t-1 -73.5q20 42 44 68.5t49 41.5t49.5 20.5t45.5 5.5q104 0 163.5 -101.5t59.5 -298.5v-128.5t1 -114.5t3 -114t5 -126q3 -38 25 -64.5t68 -39.5v-5h-312v5q35 11 50.5 40.5t18.5 67.5q3 94 4.5 168.5t1.5 127.5q0 106 -2 194 t-12 150.5t-29.5 97t-55.5 34.5q-33 0 -62 -19t-50.5 -53.5t-34.5 -82.5t-13 -106v-130q0 -97 2 -192.5t7 -192.5q3 -38 20.5 -64.5t52.5 -39.5v-5h-325v5q51 11 73.5 40.5t25.5 67.5q5 99 8 186.5t3 171.5q0 115 -2 191t-15.5 121.5t-43 64.5t-84.5 19zM131 1120 q2 44 18 75.5t42 52t61 30t75 9.5q28 0 57.5 -6.5t58 -14t54.5 -14t47 -6.5q37 0 60.5 10t31.5 33l40 -12q-2 -44 -18 -76t-42 -52t-61 -29.5t-75 -9.5q-28 0 -55 6.5t-53.5 14t-53.5 14t-55 6.5q-36 0 -60.5 -10.5t-31.5 -33.5z" />
<glyph unicode="&#xf2;" horiz-adv-x="724" d="M63 482q0 123 23.5 218t64 160t95.5 98.5t119 33.5q61 0 115 -33.5t94 -98.5t63.5 -160t23.5 -218t-23.5 -218t-63.5 -160t-94 -99t-115 -34q-64 0 -119 34t-95.5 99t-64 160t-23.5 218zM213 482q0 -201 40 -303t112 -102q73 0 109.5 102t36.5 303t-36.5 302t-109.5 101 q-72 0 -112 -101t-40 -302zM248 1438h203q4 -57 8 -121q4 -55 8 -126t9 -148l-83 -20q-17 68 -41.5 141.5t-47.5 134.5q-27 71 -56 139z" />
<glyph unicode="&#xf3;" horiz-adv-x="724" d="M63 482q0 123 23.5 218t64 160t95.5 98.5t119 33.5q61 0 115 -33.5t94 -98.5t63.5 -160t23.5 -218t-23.5 -218t-63.5 -160t-94 -99t-115 -34q-64 0 -119 34t-95.5 99t-64 160t-23.5 218zM213 482q0 -201 40 -303t112 -102q73 0 109.5 102t36.5 303t-36.5 302t-109.5 101 q-72 0 -112 -101t-40 -302zM248 1043q5 77 9 148t8 126q4 64 8 121h203q-29 -68 -56 -139q-12 -30 -24 -64.5t-24 -70t-22.5 -71.5t-18.5 -70z" />
<glyph unicode="&#xf4;" horiz-adv-x="724" d="M63 482q0 123 23.5 218t64 160t95.5 98.5t119 33.5q61 0 115 -33.5t94 -98.5t63.5 -160t23.5 -218t-23.5 -218t-63.5 -160t-94 -99t-115 -34q-64 0 -119 34t-95.5 99t-64 160t-23.5 218zM146 1088l150 314h132l150 -314h-150l-66 248l-66 -248h-150zM213 482 q0 -201 40 -303t112 -102q73 0 109.5 102t36.5 303t-36.5 302t-109.5 101q-72 0 -112 -101t-40 -302z" />
<glyph unicode="&#xf5;" horiz-adv-x="724" d="M63 482q0 123 23.5 218t64 160t95.5 98.5t119 33.5q61 0 115 -33.5t94 -98.5t63.5 -160t23.5 -218t-23.5 -218t-63.5 -160t-94 -99t-115 -34q-64 0 -119 34t-95.5 99t-64 160t-23.5 218zM89 1120q2 44 18 75.5t42 52t61 30t75 9.5q28 0 57.5 -6.5t58 -14t54.5 -14 t47 -6.5q37 0 60.5 10t31.5 33l40 -12q-2 -44 -18 -76t-42 -52t-61 -29.5t-75 -9.5q-28 0 -55 6.5t-53.5 14t-53.5 14t-55 6.5q-36 0 -60.5 -10.5t-31.5 -33.5zM213 482q0 -201 40 -303t112 -102q73 0 109.5 102t36.5 303t-36.5 302t-109.5 101q-72 0 -112 -101t-40 -302z " />
<glyph unicode="&#xf6;" horiz-adv-x="724" d="M63 482q0 123 23.5 218t64 160t95.5 98.5t119 33.5q61 0 115 -33.5t94 -98.5t63.5 -160t23.5 -218t-23.5 -218t-63.5 -160t-94 -99t-115 -34q-64 0 -119 34t-95.5 99t-64 160t-23.5 218zM88 1198q0 21 8 39.5t21.5 32.5t31.5 22t39 8t39.5 -8t32.5 -22t22 -32.5t8 -39.5 t-8 -39t-22 -31.5t-32.5 -21.5t-39.5 -8q-42 0 -71 29t-29 71zM213 482q0 -201 40 -303t112 -102q73 0 109.5 102t36.5 303t-36.5 302t-109.5 101q-72 0 -112 -101t-40 -302zM434 1198q0 21 8 39.5t21.5 32.5t31.5 22t39 8t39.5 -8t32.5 -22t22 -32.5t8 -39.5t-8 -39 t-22 -31.5t-32.5 -21.5t-39.5 -8q-42 0 -71 29t-29 71z" />
<glyph unicode="&#xf7;" horiz-adv-x="643" d="M55 418v133q37 -7 102 -12.5t171 -5.5q96 0 159 2.5t103 16.5v-143q-37 8 -99 13.5t-165 5.5q-108 0 -172.5 -1.5t-98.5 -8.5zM221 186q0 21 8 39.5t21.5 32.5t31.5 22t39 8t39.5 -8t32.5 -22t22 -32.5t8 -39.5t-8 -39t-22 -31.5t-32.5 -21.5t-39.5 -8q-42 0 -71 29 t-29 71zM221 772q0 21 8 39.5t21.5 32.5t31.5 22t39 8t39.5 -8t32.5 -22t22 -32.5t8 -39.5t-8 -39t-22 -31.5t-32.5 -21.5t-39.5 -8q-42 0 -71 29t-29 71z" />
<glyph unicode="&#xf8;" horiz-adv-x="745" d="M28 27l98 144q-26 61 -39.5 138.5t-13.5 172.5q0 123 23.5 218t64 160t95.5 98.5t119 33.5q63 0 118 -36t96 -106l72 105l53 -39l-92 -135q23 -60 36 -134t13 -165q0 -123 -23.5 -218t-63.5 -160t-94 -99t-115 -34q-64 0 -118.5 33.5t-96.5 99.5l-79 -116zM223 482 q0 -45 1.5 -83.5t6.5 -73.5l270 396q-33 164 -126 164q-72 0 -112 -101t-40 -302zM247 231q38 -154 128 -154q73 0 109.5 102t36.5 303q0 77 -6 142z" />
<glyph unicode="&#xf9;" horiz-adv-x="846" d="M-15 861v5l321 120q-8 -13 -13.5 -28t-9.5 -37t-6.5 -52t-3.5 -74t-1.5 -103t-0.5 -138q0 -107 2.5 -194.5t13 -150t32.5 -97t61 -34.5q36 0 69 20t58 61.5t40 104t15 147.5q0 136 -1.5 223.5t-14.5 137.5t-41.5 69.5t-83.5 19.5v5l321 120q-8 -15 -14 -32t-10 -42.5 t-6.5 -61.5t-4 -88.5t-2 -123.5t-0.5 -166q0 -127 2 -207.5t15 -127t42 -64t84 -17.5v-5l-271 -80q8 27 9 62.5t1 73.5q-27 -42 -58.5 -68.5t-64.5 -41.5t-65.5 -20.5t-59.5 -5.5q-100 0 -156.5 111t-56.5 329q0 136 -1.5 223.5t-14.5 137.5t-41.5 69.5t-83.5 19.5z M305 1438h203q4 -57 8 -121q4 -55 8 -126t9 -148l-83 -20q-17 68 -41.5 141.5t-47.5 134.5q-27 71 -56 139z" />
<glyph unicode="&#xfa;" horiz-adv-x="846" d="M-15 861v5l321 120q-8 -13 -13.5 -28t-9.5 -37t-6.5 -52t-3.5 -74t-1.5 -103t-0.5 -138q0 -107 2.5 -194.5t13 -150t32.5 -97t61 -34.5q36 0 69 20t58 61.5t40 104t15 147.5q0 136 -1.5 223.5t-14.5 137.5t-41.5 69.5t-83.5 19.5v5l321 120q-8 -15 -14 -32t-10 -42.5 t-6.5 -61.5t-4 -88.5t-2 -123.5t-0.5 -166q0 -127 2 -207.5t15 -127t42 -64t84 -17.5v-5l-271 -80q8 27 9 62.5t1 73.5q-27 -42 -58.5 -68.5t-64.5 -41.5t-65.5 -20.5t-59.5 -5.5q-100 0 -156.5 111t-56.5 329q0 136 -1.5 223.5t-14.5 137.5t-41.5 69.5t-83.5 19.5z M305 1043q5 77 9 148t8 126q4 64 8 121h203q-29 -68 -56 -139q-12 -30 -24 -64.5t-24 -70t-22.5 -71.5t-18.5 -70z" />
<glyph unicode="&#xfb;" horiz-adv-x="846" d="M-15 861v5l321 120q-8 -13 -13.5 -28t-9.5 -37t-6.5 -52t-3.5 -74t-1.5 -103t-0.5 -138q0 -107 2.5 -194.5t13 -150t32.5 -97t61 -34.5q36 0 69 20t58 61.5t40 104t15 147.5q0 136 -1.5 223.5t-14.5 137.5t-41.5 69.5t-83.5 19.5v5l321 120q-8 -15 -14 -32t-10 -42.5 t-6.5 -61.5t-4 -88.5t-2 -123.5t-0.5 -166q0 -127 2 -207.5t15 -127t42 -64t84 -17.5v-5l-271 -80q8 27 9 62.5t1 73.5q-27 -42 -58.5 -68.5t-64.5 -41.5t-65.5 -20.5t-59.5 -5.5q-100 0 -156.5 111t-56.5 329q0 136 -1.5 223.5t-14.5 137.5t-41.5 69.5t-83.5 19.5z M203 1088l150 314h132l150 -314h-150l-66 248l-66 -248h-150z" />
<glyph unicode="&#xfc;" horiz-adv-x="846" d="M-15 861v5l321 120q-8 -13 -13.5 -28t-9.5 -37t-6.5 -52t-3.5 -74t-1.5 -103t-0.5 -138q0 -107 2.5 -194.5t13 -150t32.5 -97t61 -34.5q36 0 69 20t58 61.5t40 104t15 147.5q0 136 -1.5 223.5t-14.5 137.5t-41.5 69.5t-83.5 19.5v5l321 120q-8 -15 -14 -32t-10 -42.5 t-6.5 -61.5t-4 -88.5t-2 -123.5t-0.5 -166q0 -127 2 -207.5t15 -127t42 -64t84 -17.5v-5l-271 -80q8 27 9 62.5t1 73.5q-27 -42 -58.5 -68.5t-64.5 -41.5t-65.5 -20.5t-59.5 -5.5q-100 0 -156.5 111t-56.5 329q0 136 -1.5 223.5t-14.5 137.5t-41.5 69.5t-83.5 19.5z M145 1198q0 21 8 39.5t21.5 32.5t31.5 22t39 8t39.5 -8t32.5 -22t22 -32.5t8 -39.5t-8 -39t-22 -31.5t-32.5 -21.5t-39.5 -8q-42 0 -71 29t-29 71zM491 1198q0 21 8 39.5t21.5 32.5t31.5 22t39 8t39.5 -8t32.5 -22t22 -32.5t8 -39.5t-8 -39t-22 -31.5t-32.5 -21.5t-39.5 -8 q-42 0 -71 29t-29 71z" />
<glyph unicode="&#xfd;" horiz-adv-x="835" d="M16 958v5h342v-5q-46 -11 -66.5 -40.5t-22.5 -67.5q-2 -71 -3 -140t-1 -131v-115v-91q0 -145 42 -219.5t127 -74.5q23 0 52.5 9.5t62.5 32.5v14l2 294q0 106 -2 212.5t-7 212.5q-3 38 -22.5 64.5t-60.5 39.5v5h355v-5q-51 -11 -73.5 -40.5t-25.5 -67.5q-5 -111 -8 -208 t-3 -190v-136t-0.5 -104.5t-0.5 -97.5v-113q0 -138 -22 -230t-60 -148t-89.5 -79.5t-110.5 -23.5q-42 0 -90.5 14.5t-90 47t-69 84.5t-27.5 126q0 14 1.5 28t3.5 30l249 50l1 -5q-58 -29 -85.5 -67t-27.5 -79q0 -19 6.5 -39.5t21 -37.5t37.5 -28t56 -11q18 0 35.5 3t33.5 15 t29 37.5t22.5 70t15 112.5t5.5 165q-72 -53 -140 -53q-64 0 -118 23.5t-93 68t-60.5 109.5t-21.5 149v108.5t0.5 83t0 70.5t-1 70t-2 82t-3.5 107q-3 38 -25 64.5t-68 39.5zM301 1043q5 77 9 148t8 126q4 64 8 121h203q-29 -68 -56 -139q-12 -30 -24 -64.5t-24 -70 t-22.5 -71.5t-18.5 -70z" />
<glyph unicode="&#xfe;" horiz-adv-x="784" d="M-32 1243v5l291 80q-3 -32 -5 -82t-3.5 -109.5t-2.5 -125t-1 -126.5q6 11 19 29t34 34.5t50.5 29t68.5 13.5q75 1 131 -38.5t94 -110t57 -167.5t19 -211q0 -113 -23 -202t-64.5 -151t-99 -94.5t-126.5 -32.5q-19 0 -41.5 4.5t-45 15t-42 27t-32.5 39.5q0 -93 1 -160 t13.5 -110.5t42 -64.5t86.5 -21v-5l-291 -80q4 36 6 97t3.5 132t2 144t0.5 134l1 216q1 78 1.5 158t0.5 158q0 135 -0.5 229.5t-4.5 158.5t-12.5 101t-25 56.5t-41.5 24.5t-61 5zM244 327q0 -90 16 -140t38 -73.5t45.5 -28.5t37.5 -5q189 0 189 384q0 106 -12 187.5 t-34.5 136.5t-53.5 83.5t-68 28.5q-28 0 -54 -14t-46.5 -41.5t-34 -68.5t-15.5 -96q-3 -50 -4.5 -94.5t-2 -87t-1 -84.5t-0.5 -87z" />
<glyph unicode="&#xff;" horiz-adv-x="835" d="M16 958v5h342v-5q-46 -11 -66.5 -40.5t-22.5 -67.5q-2 -71 -3 -140t-1 -131v-115v-91q0 -145 42 -219.5t127 -74.5q23 0 52.5 9.5t62.5 32.5v14l2 294q0 106 -2 212.5t-7 212.5q-3 38 -22.5 64.5t-60.5 39.5v5h355v-5q-51 -11 -73.5 -40.5t-25.5 -67.5q-5 -111 -8 -208 t-3 -190v-136t-0.5 -104.5t-0.5 -97.5v-113q0 -138 -22 -230t-60 -148t-89.5 -79.5t-110.5 -23.5q-42 0 -90.5 14.5t-90 47t-69 84.5t-27.5 126q0 14 1.5 28t3.5 30l249 50l1 -5q-58 -29 -85.5 -67t-27.5 -79q0 -19 6.5 -39.5t21 -37.5t37.5 -28t56 -11q18 0 35.5 3t33.5 15 t29 37.5t22.5 70t15 112.5t5.5 165q-72 -53 -140 -53q-64 0 -118 23.5t-93 68t-60.5 109.5t-21.5 149v108.5t0.5 83t0 70.5t-1 70t-2 82t-3.5 107q-3 38 -25 64.5t-68 39.5zM141 1198q0 21 8 39.5t21.5 32.5t31.5 22t39 8t39.5 -8t32.5 -22t22 -32.5t8 -39.5t-8 -39 t-22 -31.5t-32.5 -21.5t-39.5 -8q-42 0 -71 29t-29 71zM487 1198q0 21 8 39.5t21.5 32.5t31.5 22t39 8t39.5 -8t32.5 -22t22 -32.5t8 -39.5t-8 -39t-22 -31.5t-32.5 -21.5t-39.5 -8q-42 0 -71 29t-29 71z" />
<glyph unicode="&#x152;" horiz-adv-x="1142" d="M69 649q0 162 31 288.5t85.5 212.5t128 131t158.5 45q41 0 96 -2t130.5 -3t174 -0.5t226.5 6.5q-5 -20 -12 -50q-6 -26 -15 -66t-22 -97l-5 1q1 35 -10.5 62t-40.5 41q-42 20 -89.5 26.5t-104.5 8.5q-6 -124 -9 -245.5t-4 -242.5h63.5t57.5 3q51 5 79.5 30.5t36.5 62.5h3 v-275h-4q-8 40 -36 66.5t-81 31.5q-26 3 -55 3t-64 1v-4q0 -149 3.5 -295.5t8.5 -292.5q18 3 43.5 5.5t54 6.5t56.5 11t50 18.5t35.5 29.5t13.5 45h4q8 -49 15 -87.5t12 -66.5q5 -33 10 -58h-621q-87 0 -160.5 44t-127.5 127.5t-84.5 204t-30.5 273.5zM225 638 q0 -100 14.5 -193.5t44 -166t73.5 -116.5t104 -44q41 0 72 1t52 3q25 2 43 5v1076q-18 1 -43 3q-21 1 -52 2t-72 1q-58 0 -102 -49t-74 -129t-45 -182.5t-15 -210.5z" />
<glyph unicode="&#x153;" horiz-adv-x="1150" d="M63 482q0 123 23.5 218t64 160t95.5 98.5t119 33.5q66 0 123.5 -39.5t98.5 -116.5q43 77 104 117t133 40q55 0 101.5 -29.5t81.5 -87t56.5 -143t26.5 -196.5l-423 -148q13 -164 58 -238.5t114 -74.5q33 0 55.5 12.5t37 33t21 46t6.5 52.5q0 32 -20.5 63t-62.5 53l1 5 l219 -20q0 -90 -25.5 -155.5t-65 -109t-87.5 -64.5t-94 -21q-72 0 -133 39.5t-103 117.5q-42 -78 -99 -117.5t-124 -39.5q-64 0 -119 34t-95.5 99t-64 160t-23.5 218zM213 482q0 -201 40 -303t112 -102q73 0 109.5 102t36.5 303t-36.5 302t-109.5 101q-72 0 -112 -101 t-40 -302zM662 478q29 11 72 28t108 47q37 17 64 34t48 29q-10 139 -42.5 205t-87.5 66q-77 0 -119.5 -102t-42.5 -303v-4z" />
<glyph unicode="&#x178;" horiz-adv-x="730" d="M-46 1327h360l1 -5q-48 -17 -66.5 -53.5t-11.5 -90.5q11 -76 27.5 -146.5t34 -139.5t35 -139.5t31.5 -146.5q14 76 31.5 146.5t35.5 139.5t34 139.5t27 146.5q6 54 -12 90.5t-66 53.5l1 5h360l-1 -5q-54 -17 -81.5 -56.5t-42.5 -91.5q-23 -81 -45 -155t-41 -143 q-16 -63 -33 -124.5t-33 -124t-30 -126.5t-24 -132l-2 -146q0 -38 1.5 -70.5t10.5 -59.5t28.5 -49.5t55.5 -38.5v-5h-358v5q48 11 75.5 67t29.5 145l3 114q-10 73 -24.5 142t-31 136.5t-34.5 133.5t-34 133q-19 69 -41 143t-45 155q-15 52 -42.5 91.5t-81.5 56.5zM91 1562 q0 21 8 39.5t21.5 32.5t31.5 22t39 8t39.5 -8t32.5 -22t22 -32.5t8 -39.5t-8 -39t-22 -31.5t-32.5 -21.5t-39.5 -8q-42 0 -71 29t-29 71zM437 1562q0 21 8 39.5t21.5 32.5t31.5 22t39 8t39.5 -8t32.5 -22t22 -32.5t8 -39.5t-8 -39t-22 -31.5t-32.5 -21.5t-39.5 -8 q-42 0 -71 29t-29 71z" />
<glyph unicode="&#x2c6;" horiz-adv-x="486" d="M27 1088l150 314h132l150 -314h-150l-66 248l-66 -248h-150z" />
<glyph unicode="&#x2dc;" horiz-adv-x="630" d="M43 1120q2 44 18 75.5t42 52t61 30t75 9.5q28 0 57.5 -6.5t58 -14t54.5 -14t47 -6.5q37 0 60.5 10t31.5 33l40 -12q-2 -44 -18 -76t-42 -52t-61 -29.5t-75 -9.5q-28 0 -55 6.5t-53.5 14t-53.5 14t-55 6.5q-36 0 -60.5 -10.5t-31.5 -33.5z" />
<glyph unicode="&#x2000;" horiz-adv-x="941" />
<glyph unicode="&#x2001;" horiz-adv-x="1883" />
<glyph unicode="&#x2002;" horiz-adv-x="941" />
<glyph unicode="&#x2003;" horiz-adv-x="1883" />
<glyph unicode="&#x2004;" horiz-adv-x="627" />
<glyph unicode="&#x2005;" horiz-adv-x="470" />
<glyph unicode="&#x2006;" horiz-adv-x="313" />
<glyph unicode="&#x2007;" horiz-adv-x="313" />
<glyph unicode="&#x2008;" horiz-adv-x="235" />
<glyph unicode="&#x2009;" horiz-adv-x="376" />
<glyph unicode="&#x200a;" horiz-adv-x="104" />
<glyph unicode="&#x2010;" horiz-adv-x="574" d="M79 457v173q28 -11 79 -19.5t134 -8.5q74 0 122.5 3.5t79.5 25.5v-183q-28 13 -75.5 21t-128.5 8q-86 0 -135.5 -2.5t-75.5 -17.5z" />
<glyph unicode="&#x2011;" horiz-adv-x="574" d="M79 457v173q28 -11 79 -19.5t134 -8.5q74 0 122.5 3.5t79.5 25.5v-183q-28 13 -75.5 21t-128.5 8q-86 0 -135.5 -2.5t-75.5 -17.5z" />
<glyph unicode="&#x2012;" horiz-adv-x="574" d="M79 457v173q28 -11 79 -19.5t134 -8.5q74 0 122.5 3.5t79.5 25.5v-183q-28 13 -75.5 21t-128.5 8q-86 0 -135.5 -2.5t-75.5 -17.5z" />
<glyph unicode="&#x2013;" horiz-adv-x="685" d="M75 487v133q37 -7 102 -12.5t171 -5.5q96 0 159 2.5t103 16.5v-143q-37 8 -99 13.5t-165 5.5q-108 0 -172.5 -1.5t-98.5 -8.5z" />
<glyph unicode="&#x2014;" horiz-adv-x="845" d="M75 487v133q49 -7 133.5 -12.5t219.5 -5.5q126 0 208 2.5t134 16.5v-143q-49 8 -130 13.5t-214 5.5q-138 0 -221.5 -1.5t-129.5 -8.5z" />
<glyph unicode="&#x2018;" horiz-adv-x="304" d="M32 912q17 60 37 128q17 58 41.5 132t53.5 155h84q-12 -80 -17 -142.5t-5.5 -112.5t2.5 -89t7 -71h-203z" />
<glyph unicode="&#x2019;" horiz-adv-x="293" d="M58 912q12 79 17 142t5.5 113t-2.5 89t-7 71h203q-17 -60 -37 -128q-17 -58 -41.5 -132.5t-53.5 -154.5h-84z" />
<glyph unicode="&#x201a;" horiz-adv-x="305" d="M42 -287q12 79 17 142t5.5 113t-2.5 89t-7 71h203q-17 -60 -37 -128q-17 -58 -41.5 -132.5t-53.5 -154.5h-84z" />
<glyph unicode="&#x201c;" horiz-adv-x="566" d="M31 912q17 60 37 128q17 58 41.5 132t53.5 155h84q-12 -80 -17 -142.5t-5.5 -112.5t2.5 -89t7 -71h-203zM293 912q17 60 37 128q17 58 41.5 132t53.5 155h84q-12 -80 -17 -142.5t-5.5 -112.5t2.5 -89t7 -71h-203z" />
<glyph unicode="&#x201d;" horiz-adv-x="554" d="M57 912q12 79 17 142t5.5 113t-2.5 89t-7 71h203q-17 -60 -37 -128q-17 -58 -41.5 -132.5t-53.5 -154.5h-84zM319 912q12 79 17 142t5.5 113t-2.5 89t-7 71h203q-17 -60 -37 -128q-17 -58 -41.5 -132.5t-53.5 -154.5h-84z" />
<glyph unicode="&#x201e;" horiz-adv-x="574" d="M41 -287q12 79 17 142t5.5 113t-2.5 89t-7 71h203q-17 -60 -37 -128q-17 -58 -41.5 -132.5t-53.5 -154.5h-84zM311 -287q12 79 17 142t5.5 113t-2.5 89t-7 71h203q-17 -60 -37 -128q-17 -58 -41.5 -132.5t-53.5 -154.5h-84z" />
<glyph unicode="&#x2022;" horiz-adv-x="617" d="M52 513q0 62 20 109.5t55 80t82 49t102 16.5q52 0 98 -16.5t80.5 -49t54.5 -80t20 -109.5t-20 -110t-54.5 -80.5t-80.5 -49.5t-98 -17q-55 0 -102 17t-82 49.5t-55 80.5t-20 110z" />
<glyph unicode="&#x2026;" horiz-adv-x="846" d="M47 71q0 21 8 39.5t21.5 32.5t31.5 22t39 8t39.5 -8t32.5 -22t22 -32.5t8 -39.5t-8 -39t-22 -31.5t-32.5 -21.5t-39.5 -8q-42 0 -71 29t-29 71zM323 71q0 21 8 39.5t21.5 32.5t31.5 22t39 8t39.5 -8t32.5 -22t22 -32.5t8 -39.5t-8 -39t-22 -31.5t-32.5 -21.5t-39.5 -8 q-42 0 -71 29t-29 71zM599 71q0 21 8 39.5t21.5 32.5t31.5 22t39 8t39.5 -8t32.5 -22t22 -32.5t8 -39.5t-8 -39t-22 -31.5t-32.5 -21.5t-39.5 -8q-42 0 -71 29t-29 71z" />
<glyph unicode="&#x202f;" horiz-adv-x="376" />
<glyph unicode="&#x2039;" horiz-adv-x="742" d="M29 430v100q110 57 208 107q42 21 84.5 42.5t81.5 41t71 35t52 24.5q22 10 41 20t35 21.5t28 26.5t20 36h7v-245h-9q-8 19 -23 26t-32 7t-34 -5.5t-29 -11.5t-34 -16t-49.5 -23.5t-59.5 -28.5t-63 -30q-74 -35 -159 -77q85 -42 159 -77q31 -15 63 -30t59.5 -28.5 t49.5 -24t34 -15.5q12 -6 29 -11.5t34 -5.5t32 7t23 26h9v-245h-7q-8 21 -20 36t-28 26.5t-35 21l-41 20.5q-20 9 -52 24.5t-71 34.5t-81.5 41t-84.5 43q-98 49 -208 107z" />
<glyph unicode="&#x203a;" horiz-adv-x="742" d="M85 76v245h9q8 -19 23 -26t32 -7t34 5.5t29 11.5q12 5 33.5 15.5t49.5 24t59.5 28.5t63.5 30q73 35 159 77q-86 42 -159 77q-32 15 -63.5 30t-59.5 28.5t-49.5 23.5t-33.5 16t-29 11.5t-34 5.5t-32 -7t-23 -26h-9v245h7q7 -21 19.5 -36t28.5 -26.5t35 -21.5t41 -20 q20 -9 52 -24.5t71 -35t81.5 -41t84.5 -42.5q98 -50 208 -107v-100q-110 -58 -208 -107q-42 -21 -84.5 -43t-81.5 -41t-71 -34.5t-52 -24.5l-41 -20.5t-35 -21t-28.5 -26.5t-19.5 -36h-7z" />
<glyph unicode="&#x205f;" horiz-adv-x="470" />
<glyph unicode="&#x20ac;" horiz-adv-x="948" d="M42 522v143q20 -7 49.5 -12.5t70.5 -10.5v7q0 29 1 56.5t3 54.5q-44 -2 -74 -6t-50 -13v143q23 -8 56.5 -14t81.5 -10q20 111 61 196t97.5 143t127 88t149.5 30q59 0 111 -23t91 -58t62 -78t23 -82q0 -51 -40 -84l-129 -86l-3 5q24 23 35 52t11 59q0 34 -13 67 t-35.5 59.5t-54.5 42.5t-69 16q-53 0 -95.5 -27.5t-76 -75t-57 -111.5t-37.5 -137q85 0 143 4.5t96 24.5v-153q-37 12 -97 19.5t-156 9.5q-6 -62 -6 -123v-1q94 0 156 4t103 25v-153q-38 12 -98 19.5t-158 9.5q6 -90 23.5 -171.5t46.5 -144t69.5 -99t93.5 -36.5 q50 0 91.5 23t73.5 63t55 94t37 116l93 -196q-60 -103 -149.5 -156t-189.5 -53q-79 0 -147.5 37.5t-121 109t-86.5 175.5t-44 237q-44 -2 -74 -6t-50 -13z" />
<glyph unicode="&#x2122;" horiz-adv-x="1495" d="M82 1286q0 25 1 41q66 -4 130.5 -6t130.5 -2t129.5 2.5t128.5 5.5v-41v-52.5t-2 -73.5q-10 0 -10 2q0 1 1 1q0 26 -17.5 41.5t-45 23.5t-61 11t-64.5 5q-1 -24 -2 -76t-2 -113t-1.5 -119.5t-0.5 -94.5q0 -54 1 -105t6 -105q2 -42 21.5 -71.5t58.5 -41.5v-4h-282v4 q40 13 57.5 43.5t19.5 72.5q8 72 10.5 139t2.5 130q0 85 -1 168t-9 173q-30 -2 -63.5 -5t-61.5 -11t-46 -23.5t-18 -41.5l-1 -1q-2 -2 -7 -2q-3 84 -3 126zM590 514l1 4q40 13 62 42t28 71q10 51 18.5 109.5t15.5 118t12.5 116.5t10 104.5t7 82t4.5 48.5q1 2 1 6.5v7.5 q0 75 -73 99l1 4h112q27 0 41 -9.5t20.5 -24.5t9.5 -33.5t8 -36.5q3 -11 11.5 -34.5t19.5 -54t24.5 -66t27.5 -71.5q32 -84 71 -182q38 98 71 182q14 36 27.5 71.5t25 66t20 54t11.5 34.5q5 18 7.5 36.5t9.5 33.5t20.5 24.5t40.5 9.5h112l1 -4q-72 -24 -72 -99q0 -10 1 -14 q1 -14 4 -48.5t7 -82t10 -104.5t13 -116.5t15.5 -118t18.5 -109.5q6 -42 28 -71.5t62 -41.5l1 -4h-283l-1 4q41 13 55 43.5t14 72.5q-5 72 -13 139t-13 130l-10 144q-13 -42 -32 -90t-38.5 -96t-37.5 -92.5t-30 -79.5l-10.5 -21t-10.5 -20t-11 -15t-13 -6q-14 0 -23.5 20.5 t-20.5 41.5q-12 35 -30.5 79.5t-38 92.5t-38.5 96t-32 90l-10 -144q-5 -63 -12.5 -130t-12.5 -139q0 -42 14 -72t54 -44l-1 -4h-282z" />
<glyph unicode="&#x25fc;" horiz-adv-x="965" d="M0 0v965h965v-965h-965z" />
<glyph unicode="&#xfb01;" horiz-adv-x="1010" d="M28 0v5q51 17 73.5 56t25.5 92q5 84 8 149.5t5 118t2.5 95t0.5 81.5q0 43 -0.5 80.5t-1 74.5t-1.5 74.5t-1 80.5q-28 2 -46 3.5t-29 3.5q-13 2 -20 4v60h95q0 213 54.5 311.5t152.5 98.5q48 0 103.5 -19.5t120.5 -64.5l-127 -215l-3 2q6 16 6 43q0 32 -8 58.5t-21 46 t-29 30t-32 10.5q-15 0 -28.5 -10t-24 -41.5t-16.5 -91t-6 -158.5h161q118 0 201.5 2t137.5 5q62 3 104 7q-11 -109 -11.5 -240t-0.5 -272v-94t0.5 -72t2.5 -71.5t6 -93.5q4 -54 28 -90.5t75 -53.5v-5h-361v5q51 17 73 56t26 92q2 46 4.5 80.5t4 62.5t3 52t2.5 49t1.5 53.5 t0.5 66.5q0 93 -0.5 159t-2.5 110t-5 70t-8 38q-50 5 -116.5 6t-165.5 1h-161q-1 -91 -1.5 -206.5t-0.5 -267.5v-63.5t1 -61t2.5 -68.5t4.5 -85q3 -54 27.5 -90.5t75.5 -53.5v-5h-361zM700 1235q0 38 26 64.5t64 26.5t64.5 -26.5t26.5 -64.5t-26.5 -64t-64.5 -26t-64 26 t-26 64z" />
<glyph unicode="&#xfb02;" horiz-adv-x="1013" d="M28 0v5q51 17 73.5 56t25.5 92q5 84 8 149.5t5 118t2.5 95t0.5 81.5q0 43 -0.5 80.5t-1 74.5t-1.5 74.5t-1 80.5q-28 2 -46 3.5t-29 3.5q-13 2 -20 4v60h95q0 213 54.5 311.5t152.5 98.5q48 0 103.5 -19.5t120.5 -64.5l-127 -215l-3 2q6 16 6 43q0 32 -8 58.5t-21 46 t-29 30t-32 10.5q-15 0 -28.5 -10t-24 -41.5t-16.5 -91t-6 -158.5h71q55 0 93.5 1.5t63.5 3.5q29 2 47 5l-40 -130q-11 11 -32 21q-18 8 -50 15t-83 7h-71q-1 -91 -1.5 -206.5t-0.5 -267.5v-63.5t1 -61t2.5 -68.5t4.5 -85q3 -54 27.5 -90.5t75.5 -53.5v-5h-361zM598 1262v5 l291 80q-11 -143 -11.5 -310t-0.5 -353q0 -136 0.5 -269t8.5 -266q4 -54 28 -90.5t75 -53.5v-5h-361v5q51 17 73 56t26 92q7 161 11.5 299t4.5 269q0 128 -0.5 217.5t-4.5 149.5t-12.5 95t-25 52.5t-41.5 22t-61 4.5z" />
</font>
</defs>
</svg>
