<svg version="1.1" xmlns="http://www.w3.org/2000/svg" xmlns:xlink="http://www.w3.org/1999/xlink" x="0px" y="0px"
	 width="24px" height="24px" viewBox="-0.5 0.5 24 24" enable-background="new -0.5 0.5 24 24" xml:space="preserve">
<path d="M21.639,6.079c-0.736,0.327-1.526,0.547-2.357,0.646c0.847-0.508,1.498-1.313,1.805-2.27
	c-0.793,0.469-1.673,0.811-2.606,0.996c-0.748-0.8-1.813-1.296-2.994-1.296c-2.268,0-4.103,1.837-4.103,4.103
	c0,0.321,0.036,0.634,0.107,0.935C8.08,9.021,5.056,7.387,3.031,4.904C2.678,5.512,2.476,6.216,2.476,6.969
	c0,1.422,0.723,2.678,1.825,3.416c-0.672-0.022-1.305-0.207-1.858-0.515c0,0.018,0,0.035,0,0.051c0,1.991,1.414,3.646,3.29,4.024
	c-0.343,0.095-0.706,0.146-1.08,0.146c-0.265,0-0.523-0.027-0.773-0.073c0.524,1.628,2.039,2.813,3.834,2.849
	c-1.403,1.101-3.174,1.755-5.097,1.755c-0.332,0-0.659-0.018-0.979-0.058c1.815,1.164,3.973,1.844,6.289,1.844
	c7.547,0,11.677-6.253,11.677-11.674c0-0.179-0.006-0.356-0.013-0.531C20.394,7.625,21.091,6.902,21.639,6.079"/>
</svg>
